<svg fill="none" height="35" viewBox="0 0 185 35" width="185" xmlns="http://www.w3.org/2000/svg" xmlns:xlink="http://www.w3.org/1999/xlink"><clipPath id="a"><path d="m0 0h185v35h-185z"/></clipPath><g clip-path="url(#a)"><path d="m7.53125 30.8125c-.60417-.4792-1.17708-1-1.71875-1.5625l-.34375-.0625c-.6875-1.0417-1.05208-2.2187-1.09375-3.5313l.0625-.75-.15625-.3437c.33333-.8542.44792-1.7708.34375-2.75-.16667-.3333-.25-.7083-.25-1.125-.02083-.75-.02083-1.4896 0-2.2187l-.28125-.9376c.0625-1.25.04167-2.5-.0625-3.75-.125-.75-.27083-1.4791-.4375-2.1874-.16667-.7084-.42708-1.375-.78125-2.00005l-1.1875-.96875c-.45833-.72917-.854167-1.5-1.1875-2.3125l.59375-.0625c1.375.04167 2.65625.32292 3.84375.84375 1.64583-.625 3.32292-1.13542 5.03125-1.53125 1.70835-.39583 3.44795-.77083 5.21875-1.125l.3438.09375c1.5208-.29167 3.0729-.53125 4.6562-.71875 1.6042-.20833 3.1771-.47917 4.7188-.8125l.4374.40625c.9584.22917 1.8646.5625 2.7188 1 .8542.41667 1.6458.96875 2.375 1.65625l.1875.4375.5937.5v.34375l-.0937.53125.1875.5-.0938.34375c-.1666.45833-.4791.63542-.9374.53125l-.6876.25c-1.1874 2.9583-2.0416 6.0625-2.5624 9.3125-.5 3.25-1.323 6.3854-2.4688 9.4063l-.4375.2812-1.3437 2.125-.6876.0938-1.1874-.9376-.9376-1.125-1.625-.1562-.1874-.2812c-.7709-.0834-1.5417-.1355-2.3126-.1563l-.75.8437h-.5937l-1.0313-.9374h-.5c-.2916.1666-.6041.2291-.9374.1874l-.3438-.0937c-.9167.2292-1.77083.5417-2.5625.9375l-1.1875 1.5312zm1.9375-5.2187 3.09375-.625c.2708-.8959.4375-1.8334.5-2.8126l-.25-3.75.0937-.4374-.5937-.25c-.8542.0416-1.7083.1562-2.5625.3437l-.625.5937-.0625.3438-.78125.0625-.09375.3437.09375.5313-.09375.4063.28125.6874-.09375.875.15625.5-.0625.5313c.22917.8542.36458 1.7396.40625 2.6563zm10.68745-.7813c.2292-1.1458.5209-2.2604.875-3.3437.375-1.0834.5938-2.2188.6563-3.4063-.3958-.1875-.8542-.25-1.375-.1875l-.4063.0938-.3437-.0938c-.4583-.1042-.8646-.1354-1.2187-.0938l-.3438.0938c-.3958-.1667-.8438-.2188-1.3438-.1562l-.1874.4062c0 .8958.0312 1.7812.0937 2.6562l-.0937.3438c.1874.7917.302 1.6458.3437 2.5625l-.0625.875c1.125.0417 2.2604.125 3.4062.25zm-7.5937-10.4375c.2292-.2292.3125-.5208.25-.875l-.0937-4.09375-.25-.34375h-.7813c-.7292.16667-1.4792.3125-2.25.4375-.77083.10417-1.5.30208-2.1875.5938-.25 1.75-.02083 3.4583.6875 5.125.85417-.2292 1.64583-.3959 2.375-.5.75-.125 1.5-.2396 2.25-.3438zm10.0625-.25c.2917-1.0417.5-2.1146.625-3.2188.1458-1.10412.3021-2.19787.4688-3.2812-.2084-.1875-.4584-.25-.75-.1875h-1.2813c-1.4792.0625-2.8437.32292-4.0937.78125l-1.1876.25-.0937.5c.1042.52083.1875 1.04165.25 1.56245l-.1563 2.3126.0626.5937 1.7187.0625.3437-.0625c1.3126.2708 2.6771.5 4.0938.6875zm30.025 20.0938c-.4583-.2917-.7708-.6876-.9375-1.1876-.3958-1.2083-.6771-2.4687-.8437-3.7812-.1667-1.3125-.2188-2.6771-.1563-4.0938l.1563-3.25-.1563-1.625c-1.375.1667-2.5417.5938-3.5 1.2813l-.5312.8437-.75 1.0313-.6875-.0937-.5313.0937c-.7917-.1042-1.5-.3646-2.125-.7813-.6875-.7291-.9687-1.6041-.8437-2.625.1666-.5208.2187-1.0937.1562-1.7187-.2292-1.4375-.4687-2.8542-.7187-4.25s-.6667-2.75-1.25-4.0625c-.7292-.5625-1.4896-1.04167-2.2813-1.4375 1.1875-.22917 2.4375-.375 3.75-.4375l3.9063.59375c.9791-.29167 1.9479-.53125 2.9062-.71875.9792-.20833 1.9167-.54167 2.8125-1l.0938-1.1875c.0625-1.54167-.3959-2.85417-1.375-3.9375l-1.4375-.6875c1.0208-.5 2.0729-.78125 3.1562-.84375.75.333333 1.5.59375 2.25.78125.7708.16667 1.5313.38542 2.2813.65625l.0937.9375c-.2292.22917-.375.52083-.4375.875l-.5.4375c0 .66667-.0937 1.29167-.2812 1.875l.0937.59375h.4375c.8958-.29167 1.7813-.57292 2.6563-.84375.8958-.29167 1.802-.55208 2.7187-.78125l-.0937-.34375 1.125.25c1.6458.0625 3.1041.39583 4.375 1 1.2916.58333 2.5312 1.28125 3.7187 2.09375l.25.75-.4375.96875c-1.0208.04167-1.8958.43745-2.625 1.18745-.6875 1.4792-1.2187 3.0521-1.5937 4.7188-.3542 1.6458-1.0521 3.1562-2.0938 4.5312-.7292.4376-1.5521.7188-2.4687.8438l-.6875-.3438-.3438-.5937c-1.0208-.3542-2.0937-.5313-3.2187-.5313h-.5938c-.4583 0-.8646.1146-1.2187.3438l-.1563.6875.1563.7813-.25.5937c.1666.2917.2291.6042.1875.9375.125 1.9167.2083 3.8542.25 5.8125-.125 1.0417-.3021 2.0417-.5313 3l.0938.9375c-.1042.5833-.3334 1.1042-.6875 1.5625zm-1.625-16.8438.1875-.7812c-.1667-.9792-.25-2.0105-.25-3.0938l.0625-.4062-.1562-3.25005-.4375-.09375c-.7917.2917-1.5834.5104-2.375.6562-.7917.125-1.5625.3646-2.3125.7188l-.25.5938-.4375.3437v.3437c.125.7292.2708 1.4688.4375 2.2188l-.0938.3438c.1667 1.1458.4583 2.2604.875 3.3437l.3125.0937c.6875-.2291 1.4167-.4166 2.1875-.5624.7708-.1459 1.5208-.3021 2.25-.4688zm7.6875-.875h.4375l.5-.1562.4375.0937c.3958-1.2083.7188-2.4375.9688-3.6875.2708-1.25.4895-2.5312.6562-3.84375-.3958-.1875-.8229-.25-1.2812-.1875l-.4375.09375-1.375-.09375c-1.3542 0-2.625.22917-3.8125.6875-.3334 1.95835-.4271 3.92705-.2813 5.90625l-.1562.5c.2916.2917.4375.6146.4375.9687l2.0312.0626 1.625-.3438zm23.65 16.1875-1.125-.5c-.7292-.4583-1.4687-.8854-2.2187-1.2813-.3959-.4166-.6459-.875-.75-1.375l.3437-.7812-1.125-.75 1.625-.3438.4375.0938.5938-.2812c.5-.625.9062-1.3021 1.2187-2.0313.3125-.75.6458-1.4896 1-2.2187.3958-.9167.75-1.7813 1.0625-2.5938.3125-.8333.5521-1.6771.7188-2.5312.3541.7291.552 1.4687.5937 2.2187-.25 2-.4792 3.9896-.6875 5.9687-.2708 1.25-.5521 2.5313-.8437 3.8438l.25 2.0625c-.3334.2708-.698.4375-1.0938.5zm8.3438-.5937c0-.6876-.3125-1.2292-.9375-1.625l-.25-.4376c-.2709-.7291-.4375-1.5312-.5-2.4062-.0625-.8958-.2084-1.7396-.4375-2.5312-.0625-1.5417-.3438-2.9063-.8438-4.0938-.4583-.125-.8542-.3021-1.1875-.5312l.25-.4063.9375.0937c1.3125-.1874 2.5625-.5312 3.75-1.0312.2292-.2917.5938-.375 1.0938-.25.75-.3542 1.552-.5938 2.4062-.7188.8542-.1458 1.6771-.3333 2.4688-.5624l.6875.1562c.5625-.2917 1.2187-.4062 1.9692-.3438.333.1667.697.25 1.093.25l1.219.1876c.833.1666 1.594.5312 2.281 1.0937.521.625 1.063 1.1979 1.625 1.7187l.188 1.0313-.781 1.0937-.594.3438c-.521 1.0208-1.104 2-1.75 2.9375s-1.177 1.9479-1.594 3.0313l-.344.25-.25.4374-1.531.4376-.9375-.3438-.6875.4062-.0625-.3124c-.4583-.0209-.9167 0-1.375.0624-.4583-.1666-.9687-.2187-1.5312-.1562-.7084.1875-1.4271.2188-2.1563.0938l-.4062 1.0937-.3438.25-.25.4375h-.5312l-.4063.25zm4.7187-4.875c.4375-.2292.9167-.3438 1.4375-.3438l.5938.1875.5937.1563c.3958-.5.5417-1.125.4375-1.875l-.0937-.5938.6875-4.5312c-.3334-.2709-.7605-.3542-1.2813-.25-.9167.1666-1.8333.3229-2.75.4687-.8958.1458-1.7396.4167-2.5312.8125l-.3438.6875c.1042.9167.2292 1.8333.375 2.75.1458.8958.25 1.8229.3125 2.7813l.5938.0937c.625-.2292 1.2812-.3437 1.9687-.3437zm-16.2187-6.75-.3438-.1563-.0937-.3437c.2291-.5626.3437-1.1563.3437-1.7813l-.3437-.5313c-.9167-.5-1.8542-.9479-2.8125-1.3437l-.1563-.6875c.7083-.25 1.4167-.2812 2.125-.0938l1.0313-1.0937c.6666-.4167 1.3958-.6667 2.1875-.75.8125-.0833 1.6145-.1458 2.4062-.1875l.5.8438-.4062.6874-.6875.5938c-.1667.3333-.3334.6771-.5 1.0312l-.5313.4063c-.2917.9792-.8021 1.8646-1.5312 2.6563l-.4375.4374zm8.0937-1.9376c-1.5-.5833-2.6042-1.6145-3.3125-3.0937h.5938l.3437.1875.4063-.0938c.3541.3959.8125.5417 1.375.4376.625-.1667 1.2187-.3959 1.7812-.6876l.3438.0938c.9166-.4167 1.8541-.7812 2.8125-1.0938.9791-.3124 1.9479-.6041 2.9062-.875l.0938-.4374-.0938-.3438.1875-.6875-.1875-.4063.0938-.6874v-1.5313h-.5938c-.9792.27083-1.8854.75-2.7187 1.4375-.4167.9167-.823 1.8542-1.2188 2.8125l-1.0937-.25-.3438.0937-.3437-.5312c-.3959-.0417-.7084-.2083-.9375-.5l-.0938-.4375-.4062-.5937-.5313-.3438-.0937-1.1875.5312-.59375.9375-.15625c.2292-.8125.4271-1.59375.5938-2.34375.1666-.77083.2812-1.58333.3437-2.4375l-.4375-.9375-.5937-.34375-.3438-1.125.4375-.09375.3438.1875c.2291-.22917.5104-.3125.8437-.25.75.33333 1.5625.54167 2.4375.625s1.625.46875 2.25 1.15625c.2292.39583.3125.875.25 1.4375l-.6562.53125c-.3542.5625-.5834 1.15625-.6875 1.78125l.3437.09375c.6667-.29167 1.3438-.63542 2.0313-1.03125l.0937-.34375c-.1667-.72917-.2812-1.48958-.3437-2.28125-.0625-.8125-.2917-1.53125-.6875-2.15625l-1.0313-.40625v-.34375l.3438-.4375.5312.15625c1.4792.0625 2.9792.0625 4.5 0 .4583.354167.6354.78125.5313 1.28125-.4584.75-.6875 1.58333-.6875 2.5.9166.10417 1.802.27083 2.6562.5l.406-.09375.532.1875.343-.09375c.229.22917.511.34375.844.34375l.344-.09375c.625.125 1.187.40625 1.687.84375l.188 1.03125c-.563.52083-1.25.75-2.063.6875l-2.281.25-.344-.0625-.437.15625-.4377-.15625-1.0938.40625c-.2292.6875-.4167 1.40625-.5625 2.1563-.1458.7291-.2708 1.4583-.375 2.1874l.3438.1876c.6875-.1667 1.3854-.323 2.0937-.4688.7085-.1458 1.4275-.3021 2.1565-.4688.979.3334 1.979.5417 3 .625 1.021.0834 1.958.4167 2.812 1 .292.4584.407 1 .344 1.625l-.781.75c-1.417-.0833-2.834-.2187-4.25-.4062l-.344.1562-.344.25-.5-.1562-.437.0938c-.563-.2292-1.136-.4896-1.719-.7813-2.2708.1667-4.4375.5937-6.5 1.2813-2.0417.6874-4.0833 1.4583-6.125 2.3124zm-7.1562-7.1874-.4375-.25-.0938-.5.2813-1.4688-.875-.75-.0625-.4375c-.5834-.16667-1.1042-.44792-1.5625-.84375l-.25-.25-.0938-.78125.625-.34375 1.4375.25.3438-.5c1.0833-.75 2.3333-1.125 3.75-1.125h1.4687l.75.34375.1875.59375-.3437.59375-1.2813 1.03125c-.3542.6875-.75 1.34375-1.1875 1.96875-.4167.625-.8229 1.25-1.2187 1.875-.5.0625-.9792.2604-1.4375.5938zm65.0252 18.6874c-2.063-1.0208-4.157-1.9062-6.282-2.6562-2.125-.7708-4.385-1.1562-6.781-1.1562-1.541.1041-3.073.1562-4.594.1562l-.875.25c-1.541.2917-3.041.5521-4.5.7812-1.437.2292-2.812.6563-4.125 1.2813l-.5.8437h-.781l-1.781-1.2812-1.281-1.0312c-.292-.8334-.459-1.7396-.5-2.7188l.687-.0625c.438.3333.948.5313 1.531.5937l.407.25.781-.1562.781.0625c2.209-.4583 4.438-.8958 6.688-1.3125s4.541-.7708 6.875-1.0625l1.968-.0937.313.0937.437-.0937.844.0937c1.313.1667 2.427-.0833 3.344-.75l.344-.5937h.437c.959.1041 1.844.4374 2.656 1 .834.5624 1.74.9374 2.719 1.125 1.146.7916 2.219 1.6666 3.219 2.625l.187 1.1874c-.229.7917-.458 1.5834-.687 2.375-.458.1667-.969.25-1.531.25zm-21.344-16.4687c-.688-.0625-1.313-.2604-1.875-.5937-.958-.7292-1.844-1.5209-2.656-2.375l-.25-.8438c-.229-.0625-.313-.22917-.25-.5.625-.22917 1.281-.40625 1.968-.53125.563.35417 1.188.5 1.875.4375 1.188-.52083 2.396-.98958 3.625-1.40625 1.23-.41667 2.407-.96875 3.532-1.65625l.093-.34375.25-.6875.782-.84375c.458-.16667.968-.21875 1.531-.15625 1.479.0625 2.802.4375 3.969 1.125 1.166.66667 2.343 1.36458 3.531 2.09375.521.5625.812 1.23958.875 2.03125l-.094.6875.094.5938c-.688.3958-1.427.5937-2.219.5937l-1.969-.4375c-1.833.1875-3.645.4375-5.437.75-1.792.2917-3.563.6458-5.313 1.0625l-.531.5c-.458.2708-.969.4375-1.531.5zm46.744 19.2187-.438-.2812c-.229-.2708-.312-.6354-.25-1.0938-.021-3.8958-.021-7.7916 0-11.6874-.291-.5626-.604-1.1042-.937-1.625l.156-.5c-.292-.2292-.375-.5209-.25-.875l.844.3437-.063-.4063.063-2.0624c-.167-.8542-.219-1.7292-.156-2.625.062-.9167-.136-1.7188-.594-2.4063l.687-.25c1.313.33333 2.625.7292 3.938 1.1875.271-.2917.437-.60417.5-.9375l-.25-.25.344-.53125c.5-.72917.843-1.46875 1.031-2.21875h-.531c-1.084.35417-2.167.72917-3.25 1.125l-.688-.25-.437.0625-.657-1.1875c-.458-.10417-.896-.30208-1.312-.59375l-.156.6875c-.396 1.8125-.896 3.5625-1.5 5.24995-.605 1.6667-1.303 3.2709-2.094 4.8126l-1.375.5-.406-.9376h-.625c-1.188.5209-2.386 1.0105-3.594 1.4688-.313 1.5833-.396 3.1771-.25 4.7812l.187.5-.187 1.0313v.5937l.344.0938c.979-.4583 1.947-.9479 2.906-1.4688.812-.4374 1.583-.8333 2.312-1.1874-.396-.7917-.771-1.5-1.125-2.125-.333-.625-.729-1.2188-1.187-1.7813l1.281-.0937c1.375 0 2.521.5104 3.438 1.5312.625 1.0833 1.197 2.1875 1.718 3.3125.209.125.292.3333.25.625l-.093.4063.156.7812-1.188.25-1.375-.7812-.593-.5938c-1.48 1.1458-2.99 2.25-4.532 3.3125-1.541 1.0417-3.052 2.1042-4.531 3.1875l-.187.4062-1.094.0938-.688-.4062-.25-.3438-1.375-.6875-.437-.6875.344-.6875-.094-.4375.437-.0625.532-.5937.156-.4376.687-.25 1.032.4063c.291-.6667.437-1.4063.437-2.2187.188-3.8959.156-7.7917-.094-11.6876 0-1.25-.427-2.32287-1.281-3.2187l.344-.1875-1.469-1.625v-.34375c2.188.29167 4.323-.07292 6.406-1.09375l.094-.59375c-.458-.58333-.708-1.27083-.75-2.0625-.229-.10417-.323-.33333-.281-.6875-.5-.66667-1.125-1.32292-1.875-1.96875h.875c.958.125 1.937.25 2.937.375 1 .104167 1.865.46875 2.594 1.09375.188.45833.25.96875.188 1.53125l-.438.4375-.344.84375.438.09375c.521-.35417 1.094-.5 1.719-.4375 1.145.22917 2.26.57292 3.343 1.03125l-.281-.78125.531-.25.063-.34375-.063-.5.157-.4375c.854.52083 1.687.83333 2.5.9375 1.25-.29167 2.5-.59375 3.75-.90625s2.51-.63542 3.781-.96875c1.312.33333 2.562.79167 3.75 1.375l.187.40625-.625 1.03125c-.729.22917-1.437.54167-2.125.9375-.687.89583-1.427 1.71875-2.218 2.46875-.625.625-1.146 1.3125-1.563 2.0625l-.5.3438-.25.5937c1.313.3333 2.625.7187 3.938 1.1563 1.312.4166 2.531 1.0312 3.656 1.8437.687.7292 1.146 1.5729 1.375 2.5313-.042 1.2083-.198 2.3541-.469 3.4374-.25 1.0834-.75 2.073-1.5 2.9688l-.594.4375-1.187 1.0937c-1.021.2292-2.052.5209-3.094.875-.958-.5833-1.927-1.1874-2.906-1.8124l-.75-.5938-.188 1.875.094.3438c0 1.2083-.115 2.3437-.344 3.4062-.229 1.0833-.573 2.1146-1.031 3.0938-.458.3958-.969.625-1.531.6874zm8.031-12.3124c.625-.9584.885-2.0938.781-3.4063-.062-.8958-.406-1.6875-1.031-2.375-1.021-.625-2.073-1.1667-3.156-1.625l-.781-.7813c-.459-.1666-.886-.3958-1.282-.6874-.166.8541-.271 1.7604-.312 2.7187-.021.9375-.031 1.8542-.031 2.75v1.375c.229.6875.427 1.3646.593 2.0313.625.5833 1.396.8124 2.313.6874 1.083 0 2.052-.2291 2.906-.6874zm-19.344-5.2813c1.229-.5625 2.49-.9896 3.782-1.2813.229-.625.364-1.302.406-2.0312l-.344-.0938c-.729.2292-1.5.4688-2.312.7188-.792.25-1.532.5833-2.219 1l.094 1.7812zm-.5-4.25c.729-.2292 1.479-.4375 2.25-.625.771-.2083 1.532-.48958 2.282-.84375l.437-2.21875h-.531c-1.021.29167-2.031.5625-3.031.8125s-1.959.60417-2.875 1.0625l-.063.34375.844.4375.25 1.09375z" fill="#222"/></g></svg>