<svg fill="none" height="164" viewBox="0 0 194 164" width="194" xmlns="http://www.w3.org/2000/svg"><path d="m32.7961 55.509s3.0788-.7207 4.9746-2.4826c2.158-2.0042 2.153-3.3645 2.153-3.3645l5.7925 3.2897s-.0761 1.1063-1.8419 3.4343c-1.85 2.4393-3.7694 3.2282-4.9683 3.6041-.31.0974-.4928.1406-.4928.1406z" fill="#f2f2f2"/><path d="m128.45 39.1745s3.157.1683 5.466-.9937c2.628-1.3225 3.001-2.6303 3.001-2.6303l4.651 4.7775s-.379 1.0424-2.721 2.7845c-2.453 1.8262-4.515 2.0482-5.771 2.0739-.324.0062-.512-.0023-.512-.0023z" fill="#f2f2f2"/><path d="m142.091 48.4924s.889 3.0455 2.747 4.848c2.114 2.0505 3.467 1.9691 3.467 1.9691l-2.947 5.9909s-1.105-.0144-3.518-1.6532c-2.53-1.718-3.423-3.5971-3.863-4.7782-.114-.3051-.168-.4862-.168-.4862z" fill="#f2f2f2"/><g fill="#ffbe55"><g opacity=".3"><path d="m118.977 94.2142c-.031.728-.081 2.1775-.124 3.4549h-34.8036v2.7389h1.7503v13.984c-8.3731-4.83-13.3162-7.413-24.6186-5.671-3.0462.471-5.9752.849-8.7847 1.036-.0854-.846-.1979-1.921-.3217-3.043.1009-.051.1979-.101.291-.156 0 0-1.6296-9.9797-2.4172-12.9013l.2289-.1324s-.0931-1.0136-.194-2.3884c1.0709-.1172 5.0867-.6002 5.5135-1.2422.2405-.3623.3612-.7639.4151-1.0752l1.6064-.3003.388-1.2813 31.2805-.1636v7.1755c0 .6428.5199 1.1648 1.1601 1.1648h3.5541l-.9587 2.185h9.5766v-.6233h-5.5643l.6553-1.5621h6.511c.639 0 1.16-.522 1.16-1.1648v-7.2576l4.415-.023 2.693 3.4315c.465.5925 1.3.7327 1.932.3272 1.164-.7479 3.026-1.959 4.52-3.0268.097 2.3147.206 4.9091.136 6.5145z"/><path d="m40.1123 93.8212c-.9122 2.5862-1.8896 7.2528-.939 14.1528 0 0 .2794.038.7679.089.0194.226.0388.46.0582.697-4.1093-1.18-7.8613-3.393-11.2408-7.156-7.6669-8.535-5.8588-23.8478 11.4037-30.0342-.1319 2.4347.0543 3.518-.2289 4.9516-.0621.2489-.1086.448-.1397.5804-.0081.0351-.0155.0701-.0271.1087 0 .0078-.0039.0199-.0039.0273-.0931.3272-.2095.6778-.357 1.0712-.1241.3272-.1668.5645-.1435.7281v.0039c-.5083.6899-.939 1.9715-1.358 4.1997-.4191 2.2278-.6752 4.7019-.4812 5.0871.0738.1523.5122.1995 1.0205.1995.7876 0 1.7421-.1134 1.7421-.1134.2561-.0152.5397-.0425.8381-.0736.2522 1.8192-1.164 5.4026-1.164 5.4026z"/><path d="m148.554 72.7696c-9.867-3.8718-16.563-5.4728-22.244-18.4253-5.68-12.9525-9.704-21.3438-24.374-23.7161-11.842-1.9166-23.3807.9275-29.8758 8.3328l3.8373-.0199 16.653-.086 21.2315-.1087c2.468-.0152 4.482 1.9867 4.493 4.4646l.202 39.2233v.1164c.221-.1164.473-.2099.733-.2839.734-.6705 2.247-1.4184 3.519-1.6478 0 0 0 .0039-.003.0113.035-.0113.054-.0191.054-.0191l3.527.1986s3.55 1.9941 4.365 2.5009c.528.3273.011 3.0502-.442 5.3092 4.446.2069 4.78 1.0674 4.78 1.0674s-.521 3.814-1.141 7.9818h8.086v2.7389h-1.878v3.595c2.569-1.476 5.444-2.855 8.714-4.055 22.108-8.1022 11.849-22.4376-.237-27.1784zm-21.096 2.4467c-.779 2.7187-1.435 3.0143-1.435 3.0143-.714.7441-3.329 1.6603-3.911 1.6015-.578-.0585-1.025-2.0027-1.175-2.1585-.148-.1597-.854-.3385-.757-.5804.093-.2451.826-1.7491.489-1.9439-.287-.1675.035-.9739.252-1.437 0 0-1.672-1.6946-.233-2.5009 4.109-2.3062 5.246.5531 5.564.6353.318.0814 2.11.2022 1.206 3.3696z"/><path d="m127.458 75.2163c-.779 2.7187-1.435 3.0144-1.435 3.0144-.714.744-3.329 1.6602-3.911 1.6014-.578-.0584-1.025-2.0027-1.176-2.1585-.147-.1597-.853-.3385-.756-.5804.093-.245.826-1.7491.489-1.9439-.287-.1675.035-.9738.252-1.437 0 0-1.672-1.6946-.233-2.5009 4.109-2.3061 5.246.5531 5.564.6353.318.0815 2.11.2022 1.206 3.3696z"/><path d="m50.165 79.1508c-.3298-.3194-.6437-.5765-.9036-.7054-.9312-.4671-2.6078-.7752-3.1467-.8687l-.582-.5061c-.0466-.1523-.097-.3081-.1397-.4717-.0423-.1597-.0815-.3194-.1164-.4792.1824.0312.3298.0433.4346.0472.6285.0113 1.195-1.7962 1.195-1.7962s.5393-.1087.6709-.1901c.128-.0822-.3838-1.7339-.2173-2.2949.1703-.5605.2444-1.2738.2444-1.2738.0349-.3354.0117-.6544-.0659-.9548.904-.1866 1.7615-.3895 2.5763-.5995z"/><path d="m57.9056 87.2373-.388 1.2812-1.6063.3004c-.0543.3112-.1746.7129-.4152 1.0751-.4268.642-4.4426 1.1254-5.5135 1.2423.1009 1.3747.1941 2.3883.1941 2.3883l-.229.1325c.7877 2.9216 2.4173 12.9019 2.4173 12.9019-.0932.054-.1902.105-.291.155.1237 1.122.2363 2.198.3216 3.043-1.4278.089-2.8242.136-4.1865.117-1.5054-.024-2.9717-.125-4.3999-.324-1.3033-.179-2.5725-.44-3.8098-.79-.0198-.237-.0392-.472-.0582-.698-.4889-.05-.7678-.089-.7678-.089-.9506-6.899.0267-11.5661.9389-14.1523l-.2522-.0783s1.4162-3.5835 1.164-5.4027c-.2987.0312-.582.0585-.8381.0737 0 0-.9544.1133-1.7421.1133-.5083 0-.9463-.0471-1.0204-.1994-.194-.3849.0621-2.8593.4811-5.0871.419-2.2286.8497-3.5099 1.358-4.1998v-.0039c-.0233-.1636.0194-.4008.1436-.728.1474-.3935.2638-.7441.3569-1.0713 0-.0078.0039-.0199.0039-.0273.0116-.0389.0194-.0736.0272-.1086.031-.1325.0776-.3319.1396-.5805.2829-1.4335.097-2.5168.229-4.9515.1513-.0542.3065-.1087.4656-.1636.0698-.0238.1392-.0464.2091-.0737 1.0402-.3506 2.1383-.6665 3.2902-.9501.7683-.1908 1.5598-.363 2.3785-.5181.2949-.0549.5858-.1133.8691-.1757.0543-.0077.1086-.019.163-.0311.0776.3003.1008.6194.0659.9548 0 0-.0737.7128-.2444 1.2738-.1669.5605.3453 2.2126.2173 2.2948-.132.0814-.6709.1901-.6709.1901s-.5665 1.8079-1.195 1.7962c-.1052-.0039-.2522-.0159-.4346-.0471.0349.1597.0737.3194.1164.4791.0427.1636.0931.3195.1397.4718l.582.506c.5393.0935 2.2155.4016 3.1467.8687.2599.1286.5738.3857.9036.7055v.0935l.0198 3.3575v.1835c.0039.6155.128 1.2037.3527 1.737.031.0662.0621.1324.0892.1947.7295 1.508 2.2737 2.5442 4.0508 2.536z"/><path d="m65.3207 57.0825v3.4358c0 .6232-.5006 1.1297-1.1252 1.1297h-1.2568c1.0977-1.5119 1.8159-3.1324 2.3513-4.8191.0186.0825.0307.1675.0307.2536z"/><path d="m65.3206 66.0459v3.4359c0 .6268-.5005 1.1336-1.1252 1.1336h-3.4218c-.6212 0-1.1252-.5068-1.1252-1.1336v-3.4359c0-.6232.5044-1.1296 1.1252-1.1296h3.4218c.6247 0 1.1252.5064 1.1252 1.1296z"/><path d="m65.3206 75.013v3.4358c0 .6233-.5005 1.1297-1.1252 1.1297h-3.4218c-.6212 0-1.1252-.5068-1.1252-1.1297v-3.4358c0-.6268.5044-1.1336 1.1252-1.1336h3.4218c.6247 0 1.1252.5068 1.1252 1.1336z"/><path d="m105.281 86.9917v7.2577c0 .6427-.521 1.1647-1.16 1.1647h-6.511l-.6554 1.5621h5.5644v.6233h-9.5767l.9588-2.185h-3.5541c-.6402 0-1.1601-.522-1.1601-1.1647v-7.1755z"/><path d="m108.811 48.2554h-39.9909v1.3984h39.9909z"/><path d="m108.811 57.207h-39.9909v1.3985h39.9909z"/><path d="m108.811 66.8835h-39.9909v1.4024h39.9909z"/><path d="m108.811 75.8396h-39.9909v1.3985h39.9909z"/><path d="m141.954 97.6694v2.7386h-1.878v3.595c-.52.297-1.024.597-1.517.901-.291.179-.574.358-.857.538-5.851 3.747-10.057 7.911-14.03 11.277-1.161.981-2.297 1.896-3.453 2.715-2.026 1.434-4.098 2.564-6.407 3.225-1.252.363-2.572.585-3.996.643-4.986.206-11.1972-1.605-19.9509-6.568-.6596-.374-1.2959-.736-1.909-1.094-.291-.164-.5738-.331-.8574-.495-.4424-.253-.8769-.507-1.2998-.753v-13.984h-1.7503v-2.7386h34.8034c.043-1.2773.093-2.7268.124-3.4549.07-1.6053-.039-4.1997-.136-6.5136-1.494 1.0673-3.356 2.2788-4.52 3.0268-.632.4055-1.466.2656-1.932-.3273l-2.692-3.4315 4.334-.0238c2.429-.012 4.4-1.9715 4.446-4.3945.221-.1164.474-.2099.734-.2839.733-.6704 2.246-1.4184 3.519-1.6478 0 0 0 .0039-.004.0113.035-.0113.054-.0191.054-.0191l3.527.1987s3.55 1.9941 4.365 2.5009c.528.3272.012 3.0501-.442 5.3091 4.446.2069 4.78 1.0674 4.78 1.0674s-.52 3.814-1.141 7.9818h8.086z"/></g><path d="m65.3206 57.0826v3.4358c0 .6233-.5005 1.1297-1.1252 1.1297h-3.4218c-.6212 0-1.1252-.5068-1.1252-1.1297v-3.4358c0-.6233.5044-1.1297 1.1252-1.1297h3.4218c.5354 0 .9817.3743 1.0942.8765.019.0822.031.1671.031.2532z" opacity=".7"/><path d="m65.3206 48.1851v3.4358c0 .6268-.5005 1.1336-1.1252 1.1336h-3.4218c-.6212 0-1.1252-.5068-1.1252-1.1336v-3.4358c0-.6233.5044-1.1297 1.1252-1.1297h3.4218c.6247 0 1.1252.5068 1.1252 1.1297z" opacity=".7"/><path d="m65.3206 66.0459v3.4359c0 .6268-.5005 1.1336-1.1252 1.1336h-3.4218c-.6212 0-1.1252-.5068-1.1252-1.1336v-3.4359c0-.6232.5044-1.1296 1.1252-1.1296h3.4218c.6247 0 1.1252.5064 1.1252 1.1296z" opacity=".7"/><path d="m65.3206 75.013v3.4358c0 .6233-.5005 1.1297-1.1252 1.1297h-3.4218c-.6212 0-1.1252-.5068-1.1252-1.1297v-3.4358c0-.6268.5044-1.1336 1.1252-1.1336h3.4218c.6247 0 1.1252.5068 1.1252 1.1336z" opacity=".7"/><path d="m118.274 43.211c-.011-2.4779-2.025-4.4798-4.493-4.4646l-21.2309.1087-16.653.0861-3.8373.0199-17.6272.0892c-2.4712.0159-4.462 2.0338-4.4504 4.5156l.1319 25.4917.0505 10.0932v.0935l.0198 3.3575v.1835c.0039.6155.128 1.2037.3527 1.737.031.0662.062.1324.0892.1948.7294 1.5079 2.2737 2.5441 4.0507 2.5359l3.2278-.0152 31.2805-.1636 16.0947-.0822 4.415-.023 4.334-.0237c2.429-.0121 4.4-1.9715 4.446-4.3945v-.1165zm-52.9534 35.2382c0 .6233-.5005 1.1297-1.1252 1.1297h-3.4217c-.6212 0-1.1252-.5068-1.1252-1.1297v-3.4358c0-.6268.5044-1.1336 1.1252-1.1336h3.4217c.6247 0 1.1252.5068 1.1252 1.1336zm0-8.9674c0 .6268-.5005 1.1336-1.1252 1.1336h-3.4217c-.6212 0-1.1252-.5068-1.1252-1.1336v-3.4358c0-.6233.5044-1.1297 1.1252-1.1297h3.4217c.6247 0 1.1252.5068 1.1252 1.1297zm0-8.9635c0 .6233-.5005 1.1297-1.1252 1.1297h-3.4217c-.6212 0-1.1252-.5068-1.1252-1.1297v-3.4358c0-.6233.5044-1.1297 1.1252-1.1297h3.4217c.5355 0 .9817.3743 1.0942.8765.0194.0822.031.1675.031.2532zm0-8.8969c0 .6268-.5005 1.1336-1.1252 1.1336h-3.4217c-.6212 0-1.1252-.5068-1.1252-1.1336v-3.4358c0-.6233.5044-1.1297 1.1252-1.1297h3.4217c.6247 0 1.1252.5068 1.1252 1.1297zm43.4904 25.6163h-39.991v-1.3985h39.991zm0-8.9518h-39.991v-1.4024h39.991zm0-9.6803h-39.991v-1.3985h39.991zm0-8.9518h-39.991v-1.3985h39.991z" opacity=".6"/><path d="m108.811 48.2554h-39.9909v1.3984h39.9909z" opacity=".7"/><path d="m108.811 57.207h-39.9909v1.3985h39.9909z" opacity=".7"/><path d="m108.811 66.8835h-39.9909v1.4024h39.9909z" opacity=".7"/><path d="m108.811 75.8396h-39.9909v1.3985h39.9909z" opacity=".7"/></g><path d="m108.811 48.2551h-39.9911v1.3985h39.9911z" fill="#fff"/><path d="m108.811 57.207h-39.9911v1.3985h39.9911z" fill="#fff"/><path d="m108.811 66.8833h-39.9911v1.4024h39.9911z" fill="#fff"/><path d="m108.811 75.8394h-39.9911v1.3984h39.9911z" fill="#fff"/><path d="m65.3206 48.1851v3.4358c0 .6268-.5005 1.1336-1.1252 1.1336h-3.4218c-.6212 0-1.1252-.5068-1.1252-1.1336v-3.4358c0-.6233.5044-1.1297 1.1252-1.1297h3.4218c.6247 0 1.1252.5068 1.1252 1.1297z" fill="#ffbe55"/><path d="m65.3206 66.0459v3.4359c0 .6268-.5005 1.1336-1.1252 1.1336h-3.4218c-.6212 0-1.1252-.5068-1.1252-1.1336v-3.4359c0-.6232.5044-1.1296 1.1252-1.1296h3.4218c.6247 0 1.1252.5064 1.1252 1.1296z" fill="#ffbe55"/><path d="m62.2911 69.1424-1.5749-1.374c-.1292-.1133-.1424-.3089-.0307-.439.1118-.1293.3073-.1429.4369-.0304l1.1132.9716 1.5846-1.7787c.1129-.1286.3084-.1391.4365-.0249.128.1149.1393.3112.0244.4398z" fill="#fff"/><path d="m65.3206 57.0823v3.4358c0 .6233-.5005 1.1297-1.1252 1.1297h-3.4218c-.6212 0-1.1252-.5068-1.1252-1.1297v-3.4358c0-.6232.5044-1.1297 1.1252-1.1297h3.4218c.5354 0 .9817.3744 1.0942.8765.019.0822.031.1671.031.2532z" fill="#ffbe55"/><path d="m62.2911 60.1768-1.5749-1.3731c-.1292-.1134-.1424-.3097-.0307-.439.1118-.1302.3073-.1438.4369-.0312l1.1132.9715 1.5846-1.7786c.1129-.1278.3084-.1383.4365-.0242.128.1149.1393.3113.0244.4382z" fill="#fff"/><path d="m65.3206 75.013v3.4358c0 .6233-.5005 1.1297-1.1252 1.1297h-3.4218c-.6212 0-1.1252-.5068-1.1252-1.1297v-3.4358c0-.6268.5044-1.1336 1.1252-1.1336h3.4218c.6247 0 1.1252.5068 1.1252 1.1336z" fill="#ffbe55"/><path d="m62.2911 78.1074-1.5749-1.3731c-.1292-.1126-.1424-.3089-.0307-.4398.1118-.1293.3073-.143.4369-.0304l1.1132.9715 1.5846-1.7786c.1129-.1278.3084-.1383.4365-.0238.128.1141.1393.3105.0244.4375z" fill="#fff"/><path d="m61.8232 50.3393c0-.0736.0035-.1445.014-.2123.0089-.0677.0275-.1316.0547-.1947.0271-.0631.0671-.1216.1175-.1765.0516-.0549.1192-.1044.2018-.1492.0419-.023.0974-.0526.1661-.0896.0698-.0358.1369-.0791.2021-.127s.1218-.1044.17-.1675c.0481-.0623.0729-.1317.0729-.2084 0-.1056-.0396-.1885-.1156-.2481-.0776-.0608-.1649-.0896-.265-.0896-.0629 0-.1211.012-.17.0366-.0492.0237-.0946.0533-.1338.0861-.0408.0343-.0753.0724-.104.1141-.028.0409-.0543.0783-.0761.111l-.4947-.3478c.0838-.1964.2158-.3487.3966-.4581.1804-.1087.3849-.1629.6115-.1629.1218 0 .2436.0168.3643.0518.1214.0366.2312.0927.3259.1691.0978.0767.175.1765.2363.2992.0601.1215.0912.2699.0912.4437 0 .1827-.0384.3369-.1133.4604s-.1859.2322-.3333.3249c-.0667.0456-.1358.0861-.2041.1211-.0679.0359-.1319.0725-.1897.1111-.0567.0389-.1032.0822-.1389.1301-.0346.0479-.0532.1055-.0532.1733h-.6332zm.014 1.1808v-.7234h.6285v.7234z" fill="#fff"/><path d="m141.26 85.1226s.979-.1706.96-.5699c-.019-.4.149-.945.21-1.1137.082-.2251.091-1.0233.361-.91.27.1142.045 1.3187.045 1.582.001.2641.849-.4741 1.106-.4764.257-.0024 1.352 1.5901.715 2.0229-.638.4336-1.597.4414-1.695.5411-.097.0997-.942.4343-.942.4343z" fill="#eea886"/><path d="m143.77 83.6973s2.039-1.1862 2.239-1.1421c.201.0432.256.1659.07.2851-.186.1196-1.937 1.2084-1.937 1.2084s2.643-.9661 2.813-.9692c.101-.0016.222.2306.128.3042s-2.66 1.1924-2.66 1.1924 2.47-.8971 2.614-.8535c.126.0382.189.2801.01.36-.178.0798-2.424 1.0514-2.424 1.0514s1.839-.531 1.942-.4184c.063.0693.177.2641-.302.3856-.478.1212-1.577.5341-1.577.5341z" fill="#eea886"/><path d="m128.994 110.571 4.003 16.758h.882l-3.395-16.795z" fill="#858585"/><path d="m124.626 110.571 4.004 16.758h.882l-3.395-16.795z" fill="#858585"/><path d="m119.746 110.571-4.003 16.758h-.883l3.395-16.795z" fill="#858585"/><path d="m135.009 89.6872s-.52 3.8141-1.14 7.9819c-.055.3545-.109.7089-.163 1.0673v.0039c-.074.487-.148.9739-.222 1.4567-.011.07-.023.14-.034.211-.156 1.005-.311 1.987-.466 2.898-.175 1.051-.341 2.006-.493 2.793-.077.389-.147.737-.213 1.032-.159.701-.33 1.262-.509 1.718-.718 1.866-1.498 1.886-1.498 1.886h-17.25c-.12-1.66.342-4.449.342-4.449l.194-.253 4.318-5.625.163-.211.768-1.0009v-.0039l.632-.8216.334-.4328.206-.2683.058-.0737.314-.4133 6.592-8.5852c1.288-.0273 2.375-.0121 3.287.0229 4.447.2065 4.78 1.067 4.78 1.067z" fill="#e2d2ca"/><path d="m119.121 100.156 2.249-.3942-1.5-3.7899z" fill="#24263d"/><path d="m110.056 125.667s-1.478.882-2.146 1.21c-.671.328-3.274.428-3.531.675-.256.245-.161 1.027.27 1.105.433.079 3.599.359 4.655.107 1.055-.25 3.031.162 3.468.012s.149-2.517-.021-3.048c-.171-.531-2.695-.061-2.695-.061z" fill="#0e538c"/><path d="m110.08 124.665-.024 1.001s1.98.367 2.695.062l-.05-1.1z" fill="#1c1e30"/><path d="m128.448 102.124s-11.301 2.409-13.065 3.161c-1.763.752-2.821 1.062-2.953 1.438-.133.377-2.888 18.37-2.888 18.37h3.747s2.91-13.589 3.263-14.43c.352-.841 14.329-.886 15.342-1.904 1.015-1.018 1.897-3.807.794-6.307-1.102-2.5013-4.24-.328-4.24-.328z" fill="#282b45"/><path d="m123.836 126.377s-1.327 1.099-1.938 1.527c-.611.427-3.17.926-3.386 1.209-.216.282-.002 1.04.437 1.051s3.61-.199 4.615-.609c1.005-.409 3.021-.305 3.43-.521s-.236-2.51-.486-3.009c-.249-.499-2.672.352-2.672.352z" fill="#0e538c"/><path d="m123.706 125.384.13.993s2.013.058 2.672-.352l-.217-1.079z" fill="#0e538c"/><path d="m129.155 100.447s-12.249 5.608-13.043 7.424c-.808 1.851 7.15 18.016 7.15 18.016l3.659-.569s-5.983-15.374-5.655-16.142c.327-.768 19.733-3.089 15.255-8.26-4.478-5.1731-7.366-.469-7.366-.469z" fill="#282b45"/><path d="m129.101 83.1199c.588-.3066 2.549.3654 3.128 1.2707 1.347 2.1051 3.891 4.7057 3.891 4.7057l5.673-4.7887 1.137 2.8546-6.734 5.6987c-.574.4854-1.42.4558-1.959-.0693-1.769-1.7242-5.41-5.3501-5.691-6.2569-.372-1.1999-.568-2.8282.555-3.4148z" fill="#0b4870"/><path d="m130.229 88.6198c-.249 1.247-.481 2.3533-.504 2.8363-.039.7554-.78 3.7358-1.424 6.2129-.225.8613-.439 1.6634-.606 2.2871l-.066.2409-.054.211h-.004l-.229.853-3.861-.853-.95-.211-1.614-.3582-.784-.171c.046-.1675.031-.6003-.016-1.1959-.019-.2419-.046-.5142-.073-.8029-.004-.0237-.008-.0502-.008-.0736-.039-.3658-.086-.7592-.136-1.1686v-.0039c-.016-.1212-.027-.2458-.047-.3744-.186-1.5192-.411-3.1705-.535-4.2379-.109-.9466-.225-2.5905-.291-4.2461-.089-2.3412-.082-4.6983.19-5.1151.05-.0776.132-.1598.236-.2451.788-.6353 2.906-1.437 3.271-1.5741.035-.0113.055-.0191.055-.0191l3.527.1987s3.55 1.9941 4.365 2.5009c.528.3272.012 3.0501-.442 5.3091z" fill="#fff"/><path d="m127.343 101.261.353-1.3059-7.577-1.4815.016 1.194z" fill="#1f2136"/><path d="m123.574 99.0815-1.797-.3767v1.4272l1.797.421z" fill="#4f558a"/><path d="m124.38 95.365c.019.3735.043.7526.062 1.1351l.006.0047c.255 4.2002.637 8.5952.637 8.5952.526.441 7.203-1.116 7.203-1.116s-.822-1.12-1.614-4.2245c-.797-3.0997-.174-6.0778.652-11.1213.821-5.0442.14-5.0162.14-5.0162l-5.159-2.8129c-.338 1.2902-1.705 5.971-2.029 8.653-.115.9794-.043 3.3229.102 5.9029z" fill="#0b4870"/><path d="m122.729 80.6189s0 .0039-.004.0113c-.046.1172-.443 1.1647-.9 2.6727-.221.7281-.454 1.5621-.671 2.4499 0 0 0 .0039-.004.0039-.213.8725-.411 1.804-.558 2.7346-.346 2.1347-.497 5.1853-.668 7.6161-.008.1086-.016.2107-.023.3159v.0039c-.031.4444-.066.8605-.101 1.2422-.008.0935-.016.1835-.027.2684-.121 1.231-.272 2.0611-.505 2.1192-.05.012-.097.023-.136.035-.539.129-.353.024-.353.024s.011-.3664.027-.9195v-.0039c.016-.4246.031-.954.047-1.5232.042-1.2773.093-2.7268.124-3.4549.07-1.6053-.039-4.1997-.136-6.5136-.105-2.4109-.509-4.8853-.365-5.2667.062-.1644-.143.023.062-.1644.734-.6692 2.918-1.4211 4.191-1.6509z" fill="#0b4870"/><path d="m122.853 80.009c0 .238-.019.4566-.072.6019 0 0 .396 1.5519 3.526.1986 0 0-.619-2.3135 0-4.2538l-3.526 2.1974s.043.349.062.7569c.01.164.015.3393.01.499z" fill="#eea987"/><path d="m126.18 80.1943s-1.231.5972-2.472.7129l.605 1.2918 1.995-1.3884z" fill="#d3d3d3"/><path d="m123.708 80.9072s-.866-.2875-.86-.7129l-.118.4262.353 1.3634z" fill="#d3d3d3"/><path d="m123.708 80.9072-.453.7807s.21.2403.881.1363z" fill="#ffbe55"/><path d="m123.352 81.7556s-1.85 5.4658-1.865 9.3469c-.015 3.8803.29 6.1969.29 6.1969l.408.7639.595-.6977s-.42-11.2681 1.226-15.5254c0 0-.585-.2801-.654-.0846z" fill="#ffbe55"/><path d="m122.843 79.5095c.01.1644.015.3393.01.499 2.488.0398 2.527-1.3872 2.527-1.3872-.387 1.0335-2.537.8882-2.537.8882z" fill="#a77860"/><path d="m108.451 81.4332s-.614-1.2256-.713-1.409c-.099-.1843-.584-.4383-1.163-.6779-.579-.238-1.456-.2707-1.542-.2002-.086.0701-.202.0958-.289.3849-.087.2883-.019.5866-.019.5866s-.258.2984-.15.6588c0 0-.231.2929-.047.6801 0 0-.218.293-.064.5614 0 0 .485.2563.641.4094.155.1531 1.198.6081 2.257.8734 0 0 1.076-.1267 1.089-1.8675z" fill="#eea886"/><path d="m108.451 81.4331s1.172 1.1733 1.146 1.4538c-.044.4632-.614 1.8153-.643 1.788-.029-.0272-1.834-1.4378-1.834-1.4378z" fill="#eea886"/><path d="m120.646 85.7212s0 .0039-.004.0039c-.194.3424-1.043 1.028-2.122 1.8071-.062.0471-.124.0896-.186.1371-1.494 1.0666-3.356 2.2789-4.52 3.0268-.632.4047-1.467.2649-1.932-.3272l-2.693-3.4323-2.758-3.5138.151-.2298 1.281-1.9516.256-.3857 4.594 5.8393s3.015-2.0338 4.757-3.8218c.132-.1364.302-.2532.5-.3545.221-.1173.474-.2107.734-.2844.081-.0237.163-.0424.244-.0623.765-.1675 1.548-.1476 1.839.0896.326.2649.489.6155.532 1.0089.096.7791-.269 1.714-.673 2.4507z" fill="#0b4870"/><path d="m106.457 81.0145.317-.2191-2.583-3.7691-.317.2191z" fill="#eb4747"/><path d="m104.197 77.0249-.537-.4468.219.665z" fill="#eea886"/><path d="m105.188 79.2022s1.455.6435 1.392.9182c-.064.2738-.235.3319-.235.3319l.493.5683s.136.5812-.47.5746c0 0 .178.5286-.407.4452 0 0-.021.4063-.299.4215-.277.0145-1.197-.4437-1.197-.4437s-.156-.194.064-.5613c0 0-.195-.3599.047-.6802 0 0-.116-.3151.149-.6587 0 0-.209-.7241.309-.9715 0 0 .092.0284.154.0557z" fill="#d69779"/><path d="m107.695 79.9971s-1.068.1157-1.626.4639c-.125.0783-.234.1804-.216.3417.019.1612.25.3361.715.3128.464-.023 1.076.185 1.076.185s.471-.1811.051-1.3034z" fill="#eea886"/><path d="m108.964 110.898s.793-4.964.834-5.165c.042-.201.849-.924 4.701-2.191 0 0-4.283.835-5.405 1.57-.866.566-.13 5.786-.13 5.786z" fill="#12131f"/><path d="m87.955 101.704h-.8578v28.275h.8578z" fill="#0e538c"/><path d="m138.56 101.704h-.858v28.275h.858z" fill="#0e538c"/><path d="m140.077 100.198h-54.2777v25.616h54.2777z" fill="#cce9ff"/><path d="m141.954 97.5994h-57.9049v2.7386h57.9049z" fill="#0e538c"/><path d="m88.281 129.423h-1.5093v.556h1.5093z" fill="#0e538c"/><path d="m138.856 129.423h-1.449v.556h1.449z" fill="#0e538c"/><path d="m105.281 84.9313v9.3181c0 .6427-.521 1.1647-1.16 1.1647h-13.7744c-.6402 0-1.1601-.522-1.1601-1.1647v-9.3181c0-.6427.5199-1.1647 1.1601-1.1647h13.7744c.639 0 1.16.522 1.16 1.1647z" fill="#f7f7f7"/><path d="m99.7437 96.9763v.6233h-6.8017l.9588-2.185 1.7184-3.9193.066-.1523h3.6394l-1.7029 4.0478-.012.0238-.6554 1.5617z" fill="#f7f7f7"/><path d="m99.1151 91.343-.0699.1722-1.6451 3.8994-.9196 2.185h-3.5269l.9584-2.185 1.7153-3.9193.066-.1523z" fill="#f2f2f2"/><path d="m102.518 96.9763v.6233h-5.8043l.2406-.6233z" fill="#d3d3d3"/><path d="m97.6135 95.3915 1.7115-4.0673v4.0673z" fill="#d3d3d3"/><path d="m96.025 93.2337c.1898-.4916.6449-.7896 1.0911-.7526-.0361-.0214-.0737-.0397-.1133-.0549-.5157-.2002-1.1159.111-1.3409.6961-.2262.5851.0089 1.222.5245 1.4219.0819.0319.1661.0494.2503.0564-.4346-.2438-.62-.8266-.4117-1.3669z" fill="#fff"/><path d="m96.7172 94.5788c.3457-.0775.6612-.3424.811-.7304.1652-.4293.0818-.8843-.177-1.1764-.0384-.0433-.0799-.0838-.1257-.1189-.0345-.0264-.071-.051-.1086-.0724-.4462-.0374-.9013.261-1.0911.7526-.2083.5403-.0233 1.1231.4117 1.3673.0322.0023.0632.0039.0947.0031.0617-.0011.1233-.0113.185-.0249z" fill="#d3d3d3"/><path d="m154.048 68.943s-.732.0982-.725-.2131c.005-.3105.055-.716.055-.716z" fill="#eea987"/><path d="m158.161 65.5725-2.403 1.8656c.307-.0577.819-.1325.832.0288.015.2291-.914.506-1.208.7144-.27.1917-.554.5326-.629.5485l-.525.4519-.85-1.1679s1.402-1.5932 1.74-1.9325c.55-.5524 2.772-.8773 2.893-.7966.22.1449.15.2878.15.2878z" fill="#eea987"/><path d="m155.195 69.2606-1.937-1.6478-6.644 6.7411c-1.04.7176 2.029 3.1916 2.895 3.7319 2.227 1.3864 4.855 4.594 7.58 2.6376 2.954-2.121-1.347-3.6305-2.781-3.5935-1.243.0319-3.949-2.4219-3.949-2.4219z" fill="#ffbe55"/><path d="m151.689 129.747s-1.104 1.163-2.224 1.407c-1.121.244-3.054 1.074-3.063 1.742s4.374.588 5.657-.085c1.914-1.005 2.109-.702 2.32-1.204.213-.501-.254-1.846-.241-2.005.018-.197-2.449.145-2.449.145z" fill="#0b4870"/><path d="m151.813 129.19s-.146.545-.124.557 2.526.293 2.449-.144c-.061-.356-.148-.741-.148-.741z" fill="#2f6b8c"/><path d="m164.159 130.05s-.812 1.134-1.899 1.395c-1.071.258-2.656 1.265-2.708 1.914-.053.648 3.416.982 5.227-.158 1.19-.749 1.633-.705 1.873-1.182.24-.476-.125-1.81-.101-1.964.029-.191-2.392-.005-2.392-.005z" fill="#0b4870"/><path d="m164.191 129.49s-.053.547-.032.56c.02.013 2.406.436 2.392.005-.012-.344-.153-.771-.153-.771z" fill="#2f6b8c"/><path d="m154.338 96.4474s-1.159 8.4556-1.633 11.3146c-.553 3.341-.741 6.103-.896 7.833-.194 2.176-.451 13.309-.587 13.946-.137.635 3.376.305 3.376.305s1.841-14.515 2.419-16.832c.539-2.157 2.107-11.477 2.598-10.888.492.589 1.996 11.146 2.36 12.848.365 1.701 1.339 15.096 1.339 15.096s3.315.533 3.982 0c0 0-.523-11.944-.755-15.134-.089-1.216.766-14.555-1.282-19.9346-1.081-2.8421-10.921 1.446-10.921 1.446z" fill="#0e538c"/><path d="m158.128 76.1687s-3.067.6369-3.432.961c-.395.3448-1.092 3.7175-1.133 4.6579-.043.9403.369 4.8654.764 6.327s-.518 7.7135-.767 9.7387c0 0 6.827 1.2867 12.901.4932 0 0-.828-6.1514-.585-8.154.312-2.5664 1.06-8.4797 1.06-8.4797s.005-3.328-.465-3.8597c-1.007-1.1422-4.88-1.6844-4.88-1.6844z" fill="#ffbe55"/><path d="m162.347 82.3408c.144 3.0462 1.11 3.7868 2.061 3.5499.298-.0736.591-.2442.849-.4694.404-.3529.721-.8414.835-1.3057.416-1.6965.419-6.3758-1.713-6.9776 0 0-2.313-.7507-2.032 5.2028z" fill="#ffbe55"/><path d="m153.172 83.7247s1.711-.2851 1.815 2.2072c.105 2.4923 1.18 7.1221 2.931 8.9674l-6.888.2626c-1.751-1.8449-2.611-6.264-2.741-8.7551-.121-2.291-1.818-2.2072-1.818-2.2072z" fill="#d3d3d3"/><path d="m157.19 78.016c.039.0265.08.0518.127.0737.155.0798.353.1371.601.1644.091.0105.182.0136.274.0112.055-.0007.111-.0046.168-.0097 1.624-.1589 3.235-2.0245 3.235-2.0245-3.26-.4959-4.658.1142-4.658.1142s-.522 1.1468.253 1.6707z" fill="#ffbe55"/><path d="m157.258 76.8361s.759.5036 3.639-.7702c0 0-.287-1.7171.156-3.601.428-1.8129-3.537 2.236-3.537 2.236.047.0335.055.2186.028.4765-.007.0701-.016.1445-.028.222-.021.134-.049.277-.084.4238-.009.0398-.018.0791-.03.1188-.161.6194-.144.3538-.144.8941z" fill="#eea886"/><path d="m160.896 75.5183s-1.506.9116-2.995 1.1168l.792 1.27 2.51-1.7362z" fill="#0b4870"/><path d="m157.402 75.9421s.159.5228.499.693l-.745 1.0417.028-1.381z" fill="#0b4870"/><path d="m157.416 75.4407c1.707.0904 2.799-1.6867 2.832-1.7393-1.072 1.1757-2.732 1.2454-2.732 1.2454-.021.134-.066.3471-.1.4939z" fill="#a77860"/><path d="m153.172 83.7249s-2.05.1908-1.617 3.063l-6.085.3303s-.841-1.9559 1.001-2.9185z" fill="#f7f7f7"/><path d="m158.446 89.0932s-.264.1246-.493.0623c-.396-.1079-.733-.6603-1.251-.3767-.516.284-.082 2.1834.18 2.462.263.2785 1.068.1157 2.075-.6093 1.007-.7242-.511-1.5383-.511-1.5383z" fill="#eea886"/><path d="m156.891 88.709s-.874.0654-1.838.2579c-.845.169-1.871.4966-1.831.7113.06.3249.871-.0409 1.72-.1516.783-.102.645.0511.645.0511s.036-.0456-.794.2337c-.894.3003-1.84.6595-1.811.836.037.2177.059.2419.401.1866-.189.0744-.196.1379-.173.222.121.4301 1.502.1971 2.049.1036-.42.0744-.721.1742-.477.3904.279.2465 2.216-.1726 2.925-.2556.771-.09-.816-2.5854-.816-2.5854z" fill="#eea886"/><path d="m163.698 77.1982c-.626.2069-.961 1.0954-.58 2.9415.422 2.0412.893 3.0334 1.166 3.5141.272.4807 1.74 2.9423 1.472 3.3326-.269.3896-3.818 1.3163-4.059 1.3856-.481.1372-3.701.7822-3.701.7822l.788 2.7686s9.803-1.6798 10.281-2.1585c.477-.4792.726-1.1282.198-2.802-.537-1.7004-1.5-5.6828-1.672-5.994-.17-.3113-1.068-4.7023-3.893-3.7701z" fill="#ffbe55"/><path d="m163.205 80.5422s.32 4.1238 1.742 7.0528c.433-.0974.858-.3218 1.231-.6186 0 0-1.643-2.7101-1.79-3.0182s-1.017-2.6984-1.183-3.416z" fill="#a77860" opacity=".3"/><path d="m158.494 91.3394s3.946.7113 7.344.2875c-.051-.3296-.005-.6907.101-1.113 0 0-3.187.6276-3.544.6704-.358.0425-3.093.1816-3.901.1551z" fill="#a77860" opacity=".3"/><path d="m44.4691 67.1561-.0427.3896-.4613 4.3746c-1.0864-.799-1.9788-.1052-2.6539 1.0202-.0194.0312-.0392.0624-.0582.0974-.5937-1.079-1.3033-3.0303.0194-4.7287.6522-.8375 1.614-1.1998 2.5957-1.1998.0582 0 .1203 0 .1785.0039.0271 0 .0504.0039.0776.0039.0422.0039.0888.0078.1319.0113.0349.0046.0698.0081.1047.012.0198.0039.0392.0039.0582.0078.0152.0039.0346.0039.0501.0078z" fill="#e8734d"/><path d="m47.577 74.1801c-.132.0814-.6709.1901-.6709.1901s-.5665 1.8079-1.195 1.7962c-.1052-.0039-.2522-.016-.4346-.0471-.4307-.0737-1.0515-.249-1.6917-.5996l.163-1.5309.1672-1.5893c0-.0039.0039-.0039.0039-.0039l.031-.3273.0156-.1484c-1.0864-.7989-1.9789-.1052-2.654 1.0203-.2176-.51-.388-1.0592-.4737-1.6085-.2949-1.8313.3375-3.6306 3.201-3.7942.1125-.0078.2448-.0039.388.0078.9312.0662 2.3516.5454 2.9492 2.1425.1047.2731.1823.5804.2289.9236 0 0-.0737.7129-.2444 1.2739-.1673.5609.3445 2.2126.2165 2.2948z" fill="#a77860"/><path d="m47.6041 70.6118s-1.6063 1.1137-3.2049 1.3514c-.1051.0159-.2021.035-.2991.0623h-.0039c-.0504.0121-.1009.0272-.1474.0432l.0155-.1484c-1.0864-.799-1.9788-.1052-2.6539 1.0202-.0194.0312-.0392.0624-.0582.0974-.1164-.2138-.2406-.4632-.3488-.7393-.0237-.0585-.0466-.1173-.0703-.1796-.0815-.2221-.1513-.4632-.2052-.7129 0-.0039 0-.0078-.0043-.0113-.0155-.0701-.0268-.1406-.0388-.2146-.0155-.0737-.0272-.1516-.0349-.2338-.0082-.0736-.0155-.1523-.0194-.2259-.0043-.0775-.0082-.1558-.0082-.2337 0-.7168.1979-1.4686.7489-2.1776.6522-.8375 1.6141-1.1998 2.5957-1.1998.0582 0 .1203 0 .1785.0039.0271 0 .0504.0039.0776.0039.0423.0039.0888.0078.1319.0113.0349.0046.0698.0081.1048.012.0197.0039.0391.0039.0582.0078.0155.0039.0349.0039.0504.0078 1.4162.2147 2.7432 1.1574 3.0691 2.5009.0787.3004.1016.619.0667.9548z" fill="#0e538c"/><path d="m39.9337 76.5212c-.0353.1827-.0814.3775-.1396.5805.031-.1325.0776-.3319.1396-.5805z" fill="#e8734d"/><path d="m56.4972 130.209s1.4818 2.089 1.2788 2.421c-.2025.331-1.7615.378-2.7094 0-.9482-.378-.9704-2.828-1.3995-3.88-.1796-.44.2037-1.74.745-1.835.5408-.095 1.1279.183 1.1279.183s-.5611 1.482.9572 3.111z" fill="#ffbe55"/><path d="m55.5504 127.081s.3112.89.4252 1.74c.0943.704 1.0554 2.2 1.0104 2.39-.0454.19-1.2645.361-1.7619-.128-.4959-.488-.8164-1.906-.9254-2.754-.1024-.791-.2305-1.181-.2305-1.181s1.0073-.587 1.4822-.067z" fill="#a77860"/><path d="m43.6027 130.244s1.4283 2.054 1.2246 2.386c-.2034.331-1.7608.378-2.7095 0-.9478-.378-.9715-2.828-1.3999-3.88-.18-.44.2049-1.74.7454-1.836.5405-.094 1.1737.203 1.1737.203s-.5529 1.497.9657 3.127z" fill="#ffbe55"/><path d="m42.6371 127.117s.1129.97.2933 1.657c.1812.685 1.152 2.247 1.107 2.437-.045.189-1.2653.36-1.7612-.128-.497-.489-.8811-1.901-.9257-2.755-.045-.856.1129-1.414.1129-1.414s.6996-.316 1.1737.203z" fill="#a77860"/><path d="m55.6397 127.517s-.0733.062-.1978.124c-.2406.125-.679.253-1.133-.078-.0392-.027-.1125-.147-.2212-.342 0 0 0 0 0-.005v-.004c-.0116-.015-.0194-.031-.031-.05-.9351-1.726-3.9072-8.496-3.9072-10.522 0-2.31-1.1872-5.13-1.94-6.766-.2828-.612-.5082-1.056-.5858-1.25-.0815-.199-.1591-.394-.2328-.585-2.4212-6.127-1.9323-8.037-2.2737-8.4534-.3488-.4285-.3799.2649-.5859 1.2154-.1358.642-.3841 4.64-.613 7.456-.035.472-.0738.912-.1087 1.293-.0659.702-.128 1.22-.1823 1.434-.2639 1.045-.0582 4.558-.2018 6.334-.1478 1.773-.7876 9.801-.7876 9.801s-.4967.814-1.1951.02c-.0039-.008-.0116-.024-.0194-.055-.0116-.035-.0194-.085-.0349-.152-.2561-1.352-1.1485-8.905-1.1756-10.845-.0311-2.111-.0621-5.021-.1164-5.933-.0311-.486-.0621-.95-.097-1.394-.0198-.237-.0392-.472-.0582-.698-.5898-6.902-1.5365-8.4328.3763-14.0937.0082-.0237.0155-.0502.0272-.0736.3414-1.005.6984-1.8391 1.0631-2.5282.0078-.0152.0155-.0311.0233-.0463.0039-.0047 0-.0047 0-.0047.7643-1.4297 1.5636-2.2088 2.3474-2.5399.2367-.0974.4737-.1558.7061-.1827.1436-.012.2872-.0159.4307-.0046.0155 0 .0349 0 .0505.0046.3104.0265.613.1126.904.2412 0 0 .0039 0 .0039.0039.1203.0471.2367.1094.3531.171l.0077.0047c.4346.245.8497.5761 1.2261.9427.0427.0389.0776.0736.1164.1164l.0043.0039c.1668.1636.322.3354.4733.5068.1436.1675.2829.3385.4113.5068.1168.1477.2177.284.3221.4246v.0039c.4345.6116.7449 1.1488.8966 1.4098.0113.0199.0233.039.0311.0584.0232.0511.0423.0815.0504.1013.0039.0039.0078.0078.0078.0113 0 .0047.0038.0082.0038.0121.0082.0464.0509.2571.1168.5765.3259 1.5812 1.2063 5.9009 1.4434 7.1668.1591.845.4695 3.448.7372 5.859.1238 1.122.2363 2.198.3216 3.043.0703.697.1207 1.235.1397 1.5.0854 1.285 1.3231 6.123 1.2649 6.583-.0504.401 1.3735 7.409 1.7503 9.24 0 .004 0 .008.0039.012.0038.011.0038.019.0077.027.0493.254.0764.398.0764.398z" fill="#a77860"/><path d="m52.3654 106.559c-.0932.055-.1902.105-.291.156-1.3542.709-3.0152 1.11-4.6832 1.324-1.1877.155-2.3827.214-3.4726.218-1.6878.008-3.1389-.109-3.977-.195-.4889-.05-.7678-.089-.7678-.089-.9506-6.899.0267-11.566.9389-14.1522.5777-1.6478 1.1248-2.4546 1.1248-2.4546h.1707.0233c.4583 0 1.6607.016 3.0187.1173 1.2299.0935 2.5879.261 3.6316.5605.2674.0775.5157.1636.7334.2571.3996.1749.7022.3818.8691.6268.0112.0199.0233.039.031.0584.0233.0351.0388.0663.0505.1013.0038.0039.0077.0078.0077.0113 0 .0047.0039.0082.0039.0121.0508.1324.1052.3194.1707.5454.7877 2.9228 2.4173 12.9026 2.4173 12.9026z" fill="#0e538c"/><path d="m53.6267 128.566v2.187h.2716v-1.69z" fill="#ffbe55"/><path d="m40.678 128.566v2.187h.2712v-1.69z" fill="#ffbe55"/><path d="m43.9652 71.9204-.0156.1484-.031.3272s-.0039 0-.0039.0039l-.1672 1.5893-.163 1.531-.1587 1.5309s-.1168.0935-.3065.2372c-.0043.0039-.0043.0082-.0081.0082-.0272.023-.0578.0464-.0889.0701-.0427.0312-.0857.0663-.1323.1013-.1432.1087-.3104.2298-.4928.3658-.0038.0039-.0038.0039-.0081.0039-.0078.0039-.0194.0121-.0307.0199-.3573.2571-.7682.5418-1.1721.7869-.8924.5492-1.746.9236-1.9051.4791-.0112-.0273-.0155-.0549-.0194-.0822v-.0039c-.0233-.1636.0194-.4008.1436-.7281.1474-.3934.2638-.744.3569-1.0712 0-.0078.0039-.0199.0039-.0273.0117-.0389.0194-.0736.0272-.1087.0582-.2029.1047-.3977.1397-.5804.2828-1.4335.097-2.5169.2289-4.9516.0155-.3073.0388-.6345.0659-.989.2518-3.1476 2.5376-3.4947 3.6395-3.4709-.9817 0-1.9439.3623-2.5957 1.1998-.7954 1.0202-.8575 2.1386-.6437 3.0965.1358.6354.388 1.2037.6243 1.6319.0194-.0351.0391-.0663.0582-.0974.6759-1.1258 1.5683-1.8196 2.6547-1.0206z" fill="#0e538c"/><path d="m46.0056 78.3518s-.0814.0198-.2133.051c-.2755.0623-.7877.1675-1.3076.2411-.0776.0113-.1552.0238-.2328.0312-.0155.0039-.0349.0039-.0505.0078-.1672.0198-.3336.035-.4892.0397-.2134.0113-.4113.0078-.5665-.016-.322-.051-.4889-.1834-.3414-.4596.031-.055.0547-.1173.0776-.1835.0426-.1087.0737-.2372.097-.3775v-.0047c0-.0039 0-.0039 0-.0077.0194-.0974.031-.2026.0426-.3074.0311-.0238.0617-.0471.0889-.0701.0039 0 .0039-.0047.0081-.0082.1898-.1437.3066-.2372.3066-.2372l.1587-1.531.1629-1.5309c.776-.1246 1.7192-.1406 1.4822.5532-.1319.3973-.0815.9738.0427 1.5582 0 .0078.0038.0113.0038.0191.035.1597.0738.3194.1164.4791.0427.1636.0932.3194.1397.4717l.1591.4788.0039.016c.1719.467.3111.7869.3111.7869z" fill="#a77860"/><path d="m37.4502 88.197c.0466.3805 1.8174.3011 3.707.1071.0019.0078.0039.0144.0062.0222.0404.1675.0757.3163.1013.4215.0275.1149.0535.2364.0756.3638.1898 1.0857.1746 2.6143-.1862 3.9243 0 0 4.7631 1.7826 7.7336.1582 0 0-.3154-2.5936.1583-4.2699.4749-1.677 2.9527-7.5179 2.9527-7.5179s-1.7964-2.6072-3.1672-3.0844c-1.3709-.4772-3.1382-.7721-3.1382-.7721l-2.5689.0951s-2.1387.5593-2.6179.7105c-.8555.2715-1.1865.557-1.6296 1.444-.6091 1.2197-1.6358 6.6835-1.4267 8.3976zm2.7013-2.873s.234.5197.4439 1.1079c-.1711.016-.3333.0168-.4101.0281-.6767.102-.168-.7616-.0338-1.136z" fill="#ffbe55"/><path d="m45.3926 76.5988c-1.5788-.222-1.8004-1.0553-1.8081-1.079 1.6882.5804 1.6882.5804 1.6882.5804 0 .0078.0038.0113.0038.0191.0346.1597.0738.3198.1161.4795z" fill="#a77860"/><path d="m40.1853 85.3447s.116.245.4334 1.2083c.322-2.7069.1536-4.1167.1536-4.1167-.0353 1.4468-.587 2.9084-.587 2.9084z" fill="#cfbeb8"/><path d="m41.163 88.3262c.0403.1675.0756.3163.1012.4215.0276.1149.0536.2365.0757.3638 1.0639-.5804 1.8286-1.0346 1.8286-1.0346-.2863.0639-2.0055.2493-2.0055.2493z" fill="#cfbeb8"/><path d="m42.9792 77.6821 3.0253 2.4756-.312-2.6081s-1.7634-.3817-2.7133.1325z" fill="#a77860"/><path d="m45.1303 79.7378.8742.4199-2.9706-2.9563z" fill="#fcd2b1"/><path d="m45.3926 84.9039c-.0194.4445-.0621.9501-.1238 1.492-.0508.4445-.1125.9154-.1827 1.3985-.0078.0424-.0113.0861-.0194.1285-.035.2221-.066.4445-.1009.6704-.0039.0039-.0039.0078-.0039.0113-.0116.0624-.0237.1286-.031.1948-.0117.0584-.0198.1212-.0311.1835-.0081.0541-.0194.1126-.0271.1675-.1358.8021-.2829 1.5971-.423 2.3334-.1707.8683-.3298 1.6556-.4617 2.2551-.0268.1363-.0543.261-.0772.3782-.097.4519-.5587.7207-.9972.5844l-2.5685-.8064-.2328-.0736-.2522-.0783s1.4162-3.5835 1.164-5.4027c.0039-.0078 0-.016 0-.0198-.0117-.0737-.0233-.1399-.0388-.2061-.1436-.5921-.3027-1.1496-.4462-1.6318-.0039-.016-.0117-.0312-.0155-.0472 0-.0078-.0039-.0152-.0078-.0237-.0508-.1636-.1013-.3113-.1436-.4558l-.0702-.2139c-.0423-.1211-.0815-.2298-.1125-.3272-.0039-.016-.0078-.0273-.0155-.0397 0 0-.0039-.0039 0-.0039-.1009-.2961-.1669-.4671-.1669-.4671s-.7643-4.2301 1.1796-6.26c.3146-.3273.7026-.5996 1.1721-.7869.0349-.0113.0698-.0273.1048-.039.0116-.0039.0155-.0039.0155-.0039.0853-.0311.1746-.0584.2677-.0822.0772-.0237.1513-.0424.2328-.0584.0078 0 .0155-.0039.0233-.0039.0392-.0078.0737-.0152.1125-.0191.0043-.0047.0043-.0047.0082-.0047 0 0 .0659.1056.1746.2969.1008.1827.2483.4472.4147.7791.2212.4437.485 1.0003.7337 1.6283.5351 1.3474 1.0162 3.0151.946 4.5534z" fill="#0b4870"/><path d="m52.5167 81.9002-1.6103 2.1348-.3686.4869-.8182 1.0872c0 .4087.0077.8605.0232 1.3397v.0039c.0043.1398.0117.2769.0156.4168.0194.4908.0465.9976.0737 1.5033.0194.312.0388.6232.0578.9275.0043.0311.0043.0623.0081.0935v.0424c.0272.3896.0544.7639.0815 1.1176 0 .0273 0 .055.0039.0822.1009 1.3748.194 2.3884.194 2.3884l-.2289.1324-.0543.0312-.9972.5761c-.3453.1987-.776-.0463-.7842-.4437 0-.0896-.0038-.187-.0038-.2882-.0078-.4169-.0156-.9276-.0268-1.4881-.0082-.3035-.0116-.6268-.0198-.9587 0-.1636-.0039-.3311-.0078-.5021-.0038-.1134-.0038-.2299-.0081-.3471v-.0113l-.0112-.6315c-.0043-.0927-.0043-.1866-.0082-.2762-.0039-.2999-.0078-.5956-.0155-.8924-.0039-.2875-.0113-.5723-.0155-.8492-.0078-.3658-.0156-.7207-.0194-1.0553-.0117-.5302-.0233-1.0128-.0311-1.4184-.031-1.5695-.6635-3.6769-1.2218-5.2511-.4582-1.2773-.8617-2.2048-.8617-2.2048.0155.0046.0271.0082.0426.0159.0311.0078.0621.0191.0932.0312l-.035-.0935-.0197-.051s.062.0082.1707.0273c.5393.0934 2.2155.4016 3.1467.8686.2599.1286.5738.3857.9036.7055.5203.4947 1.0752 1.1414 1.5214 1.6829.4815.5964.8311 1.0673.8311 1.0673z" fill="#0b4870"/><path d="m49.9822 91.0539s-2.1091.0822-2.4374 0c-.3275-.0822-2.5162-1.0354-2.6481-1.9765-.1311-.9412 5.0855.8429 5.0855.8429z" fill="#a77860"/><path d="m43.4379 88.1123 8.5604-1.0059-3.8668 3.1593z" fill="#d3d3d3"/><path d="m48.1315 90.2657-4.6936-1.6061v-.5473l4.8515 1.5629z" fill="#f2f2f2"/><path d="m45.9246 86.5345s.7077 0 1.1047-.0806c.3069-.0631 1.0693.0238 1.2644.1963.1937.1726.8121 1.3771.9293 1.4511.1164.0732-.0597.2443-.2654.1582 0 0-.1882.5266-.6538.3303-.4652-.1979-.7814-.6291-1.0247-.7047-.2433-.076-1.6614-.4589-1.6614-.4589s-.0586-1.0202.3069-.8917z" fill="#a77860"/><path d="m47.9457 80.1593-.7834-.499-1.2571-1.998-.0543-.0857-.3182-.506.582.506.0384.0584z" fill="#ffbe55"/><path d="m47.1607 79.6596-1.1562.4982-.3116-2.608-.1618-.4807z" fill="#fcd2b1"/><path d="m55.9694 88.2542s.0043.2337-.0578.5652c-.0543.3112-.1746.7129-.4151 1.0751-.4268.642-4.4426 1.1255-5.5135 1.2423-.1669.0199-.26.0273-.26.0273.0117-.0238.0155-.0585.0237-.1013.0349-.2649.0039-.8414-.0155-1.095-.0043-.0775-.0082-.1247-.0082-.1247l.0155-.0039.1514-.0389z" fill="#0b4870"/><path d="m60.1173 79.9412-2.2116 7.2962-.388 1.2812-1.606.3008-5.929 1.1024-.085.0152-.1668.0311-.8967.1637-.7019.1324.1591-.5882.0698-.2649.2096-.7865.291-1.0872.019-.0663 1.304-4.8693.442-1.6556.9583-.1013.1013-.0113z" fill="#f2f2f2"/><path d="m43.0339 77.2014 2.0964 2.5364-1.1477 1.0264-1.2374-3.0357z" fill="#ffbe55"/><path d="m45.9436 86.4348-.0194.1013-.1746.9236-.0466.2373s-.2363.0389-.6169.0973c-.4695.0737-1.164.175-1.9163.2809-.0043 0-.0043 0-.0082.0039-.0349.0039-.0733.0078-.1082.0152-.4389.0584-.8928.1173-1.3313.1718-.097.0078-.1901.0191-.2828.0304-.0392.0047-.0776.0082-.1125.0121-.0548.0039-.1087.0113-.163.019-.0466.0047-.0931.0082-.1397.0121-.2987.0312-.582.0585-.8381.0736 0 0-.9544.1134-1.7421.1134-.5083 0-.9463-.0471-1.0204-.1994-.194-.3849.0621-2.8593.4811-5.0872.419-2.2286.8497-3.5098 1.358-4.1997v-.0039c.1242-.1675.3764-.3233.6906-.4671.0423-.0198.0815-.035.1238-.0549.0892-.0389.1828-.0775.2755-.1087.7997-.3042 1.7615-.5181 2.0451-.573.0311-.0078.0544-.0152.066-.0152.0116-.0039.0155-.0039.0155-.0039l-1.6645 5.465v.0039l-.3414 1.1137-.0082.0351-.2673.8726-.0117.0397s-.0038.0113-.0116.0265c-.0039 0 0 .0039 0 .0039-.066.1371-.3143.6817-.3023.9314.0078.0896.0699.1285.1514.1445.0582-.0047.1823-.016.3569-.0273l.1242-.012h.0116c.0194-.0039.0349-.0039.0543-.0039.0078 0 .0117 0 .0194-.0039h.0466c.5704-.0425 1.4162-.0935 2.1146-.0974.4889 0 1.1213.0199 1.6956.0471.3022.0113.5858.0265.8225.0425.4032.0206.6744.0397.6744.0397z" fill="#0b4870"/><path d="m155.669 68.8285s-.821 1.5286-.414 1.7658c.336.1971-.394 1.6981-.489 1.9431-.096.2442.609.4231.758.5804.15.1582.594 2.0993 1.175 2.1577.58.0585 3.196-.855 3.908-1.5987.713-.7436 1.297-4.1015.821-5.5191-.474-1.4164-4.309-2.0007-5.759.6708z" fill="#eea987"/><path d="m155.505 69.1591s-1.669-1.6961-.23-2.504c4.107-2.3069 5.246.5532 5.563.6346.316.0822 2.112.206 1.206 3.3719-.779 2.7191-1.437 3.0151-1.437 3.0151s-.032-1.7568-.362-1.998c-.514-.3743-1.641-.284-1.641-.284s.537-1.4319-.303-1.6357c-.839-.2018-1.945-.9162-2.796-.5999z" fill="#0b4870"/><path d="m159.334 71.0014c.075-.1971.315-1.0401 1.035-.5446.722.4959-.448 2.0868-.574 2.1075-.126.0206-1.084.0911-.461-1.5629z" fill="#eea987"/><path d="m126.023 78.2305c-.714.7441-3.329 1.6603-3.911 1.6015-.578-.0585-1.025-2.0027-1.176-2.1585-.147-.1597-.853-.3385-.756-.5804.093-.2451.826-1.7491.489-1.9439-.287-.1675.035-.9739.252-1.437.089-.1987.163-.3312.163-.3312 1.451-2.6684 5.284-2.084 5.758-.6704.477 1.4184-.109 4.7759-.819 5.5199z" fill="#eea987"/><path d="m127.458 75.2162c-.779 2.7187-1.435 3.0144-1.435 3.0144s-.027-1.3985-.268-1.8695c-.031-.0584-.062-.1013-.097-.1285-.263-.1909-.686-.261-1.039-.2809-.334-.0238-.602-.0039-.602-.0039s.54-1.4296-.302-1.6318c-.839-.2026-1.944-.9197-2.794-.6042 0 0-1.672-1.6945-.233-2.5009 4.109-2.3061 5.246.5532 5.564.6353.318.0819 2.11.2026 1.206 3.37z" fill="#0b4870"/><path d="m124.748 75.5564c.075-.1971.315-1.0409 1.035-.5446.722.4959-.448 2.0868-.574 2.1075-.126.0206-1.084.0903-.461-1.5629z" fill="#eea987"/></svg>