<svg fill="none" height="277" width="327" xmlns="http://www.w3.org/2000/svg"><path d="M55.28 93.756s5.19-1.217 8.385-4.193c3.638-3.385 3.629-5.683 3.629-5.683l9.764 5.557s-.129 1.868-3.105 5.8c-3.118 4.12-6.354 5.453-8.374 6.088a13.5 13.5 0 01-.831.237zm161.231-27.589s5.321.284 9.214-1.679c4.429-2.233 5.057-4.442 5.057-4.442l7.841 8.07s-.64 1.76-4.586 4.702c-4.135 3.085-7.612 3.46-9.728 3.503-.547.01-.863-.004-.863-.004zm22.992 15.738s1.499 5.144 4.631 8.189c3.563 3.463 5.843 3.326 5.843 3.326l-4.966 10.118s-1.863-.024-5.931-2.792c-4.264-2.902-5.768-6.076-6.511-8.07a14.384 14.384 0 01-.283-.822z" fill="#f2f2f2"/><g fill="#ffbe55"><g opacity=".3"><path d="M200.544 159.13c-.052 1.23-.137 3.678-.209 5.836h-58.664v4.626h2.95v23.619c-14.113-8.157-22.445-12.52-41.496-9.579-5.135.795-10.072 1.434-14.808 1.75a573.516 573.516 0 00-.542-5.139c.17-.086.334-.171.49-.263 0 0-2.746-16.857-4.074-21.791l.386-.224s-.157-1.712-.327-4.034c1.805-.198 8.574-1.014 9.294-2.098.405-.612.608-1.29.7-1.816l2.707-.507.654-2.164 52.725-.277v12.12c0 1.085.877 1.967 1.956 1.967h5.99l-1.616 3.691h16.142v-1.053h-9.379l1.105-2.639h10.974a1.963 1.963 0 001.956-1.967V146.93l7.442-.039 4.538 5.796a2.449 2.449 0 003.257.552c1.962-1.263 5.101-3.308 7.619-5.112.164 3.91.347 8.292.23 11.003zm-132.932-.664c-1.538 4.369-3.185 12.251-1.583 23.904 0 0 .471.066 1.294.151l.099 1.178c-6.927-1.994-13.251-5.731-18.947-12.087-12.924-14.416-9.876-40.28 19.221-50.729-.222 4.113.092 5.942-.386 8.364-.104.42-.183.756-.235.98-.014.059-.026.118-.046.184 0 .013-.006.033-.006.046a23.623 23.623 0 01-.602 1.809c-.21.553-.281.953-.242 1.23v.006c-.857 1.166-1.583 3.33-2.29 7.094-.705 3.763-1.137 7.941-.81 8.592.124.257.863.337 1.72.337 1.328 0 2.936-.192 2.936-.192.432-.025.91-.071 1.413-.124.425 3.073-1.962 9.125-1.962 9.125zm182.786-35.556c-16.632-6.54-27.919-9.244-37.494-31.121s-16.357-36.05-41.084-40.057c-19.961-3.237-39.41 1.567-50.358 14.074l6.468-.033 28.07-.146 35.787-.183c4.159-.026 7.554 3.355 7.573 7.54l.341 66.25v.196a6.545 6.545 0 011.236-.479c1.237-1.133 3.787-2.396 5.932-2.783 0 0 0 .006-.007.019.059-.019.092-.033.092-.033l5.945.336s5.984 3.368 7.357 4.224c.89.553.02 5.152-.745 8.967 7.494.35 8.057 1.803 8.057 1.803s-.877 6.442-1.923 13.482h13.629v4.626h-3.165v6.072a94.863 94.863 0 0114.689-6.849c37.264-13.685 19.972-37.898-.4-45.905zm-35.558 4.132c-1.315 4.592-2.419 5.092-2.419 5.092-1.204 1.256-5.612 2.804-6.593 2.704-.974-.098-1.727-3.382-1.981-3.645-.249-.27-1.439-.572-1.276-.981.157-.413 1.393-2.954.824-3.283-.483-.283.06-1.645.425-2.427 0 0-2.818-2.862-.392-4.224 6.926-3.895 8.842.934 9.378 1.073.537.138 3.557.341 2.034 5.691z"/><path d="M214.84 127.042c-1.315 4.592-2.42 5.092-2.42 5.092-1.203 1.256-5.611 2.804-6.592 2.704-.974-.098-1.727-3.382-1.981-3.645-.249-.27-1.439-.572-1.276-.981.157-.413 1.393-2.954.824-3.283-.483-.283.06-1.645.425-2.427 0 0-2.818-2.862-.392-4.224 6.926-3.895 8.842.934 9.378 1.073.537.138 3.557.341 2.034 5.691zm-130.284 6.646c-.556-.54-1.085-.974-1.523-1.192-1.57-.789-4.395-1.309-5.304-1.467l-.98-.855c-.08-.257-.164-.52-.236-.796a19.06 19.06 0 01-.196-.81c.307.053.556.073.732.08 1.06.019 2.014-3.034 2.014-3.034s.91-.184 1.131-.321c.216-.139-.647-2.929-.366-3.876.287-.947.412-2.152.412-2.152a4.536 4.536 0 00-.111-1.612 90.583 90.583 0 004.342-1.013z"/><path d="M97.604 147.346l-.654 2.164-2.708.508c-.091.525-.294 1.204-.7 1.815-.72 1.085-7.488 1.901-9.293 2.099a246 246 0 00.327 4.034l-.386.223c1.328 4.935 4.075 21.791 4.075 21.791a8.133 8.133 0 01-.491.263c.209 1.895.398 3.712.542 5.14-2.407.15-4.76.23-7.057.196-2.537-.04-5.009-.21-7.416-.546a46.686 46.686 0 01-6.422-1.335l-.098-1.178c-.824-.085-1.294-.151-1.294-.151-1.602-11.653.045-19.535 1.583-23.903l-.425-.133s2.387-6.052 1.962-9.125c-.504.053-.981.099-1.413.125 0 0-1.609.191-2.936.191-.857 0-1.595-.08-1.72-.337-.327-.65.104-4.829.81-8.592.707-3.764 1.433-5.928 2.29-7.094v-.006c-.04-.276.032-.677.241-1.23.25-.664.445-1.257.602-1.809 0-.013.007-.034.007-.046.02-.066.032-.125.045-.184.053-.224.131-.56.236-.98.477-2.421.163-4.251.386-8.364.255-.091.516-.183.785-.276.117-.04.234-.078.352-.124a69.05 69.05 0 015.546-1.605 73.135 73.135 0 014.01-.875c.496-.093.987-.192 1.464-.297.092-.013.183-.032.275-.052.13.507.17 1.046.11 1.612 0 0-.123 1.204-.411 2.152-.281.947.582 3.737.366 3.876-.222.137-1.13.321-1.13.321s-.955 3.053-2.015 3.034a5.626 5.626 0 01-.732-.08c.058.27.124.54.196.809.072.277.157.54.235.797l.981.855c.91.158 3.735.678 5.304 1.467.438.217.967.651 1.523 1.192v.158l.034 5.671v.309a7.685 7.685 0 00.594 2.934c.053.112.105.224.15.329 1.23 2.547 3.833 4.297 6.828 4.284zm12.498-50.932v5.803a1.899 1.899 0 01-1.896 1.908h-2.119c1.85-2.554 3.061-5.29 3.964-8.14.031.14.051.283.051.429zm0 15.139v5.804a1.9 1.9 0 01-1.896 1.914h-5.768a1.905 1.905 0 01-1.897-1.914v-5.804c0-1.052.851-1.908 1.897-1.908h5.768a1.9 1.9 0 011.896 1.908zm0 15.146v5.803a1.899 1.899 0 01-1.896 1.908h-5.768a1.904 1.904 0 01-1.897-1.908v-5.803c0-1.059.851-1.915 1.897-1.915h5.768a1.9 1.9 0 011.896 1.915zm67.356 20.232v12.259a1.963 1.963 0 01-1.956 1.967h-10.974l-1.105 2.638h9.379v1.053H156.66l1.616-3.69h-5.99a1.963 1.963 0 01-1.956-1.968v-12.119zm5.95-65.427h-67.407v2.362h67.407zm0 15.12h-67.407v2.362h67.407zm0 16.344h-67.407v2.369h67.407zm0 15.127h-67.407v2.362h67.407z"/><path d="M239.273 164.966v4.626h-3.165v6.073c-.877.5-1.727 1.007-2.557 1.52-.491.303-.968.605-1.446.909-9.862 6.329-16.951 13.362-23.648 19.047-1.956 1.658-3.872 3.204-5.82 4.587-3.415 2.421-6.907 4.329-10.799 5.447a28.128 28.128 0 01-6.736 1.085c-8.404.349-18.874-2.711-33.628-11.093a259.616 259.616 0 01-3.218-1.849c-.491-.276-.967-.559-1.445-.835-.746-.428-1.478-.856-2.191-1.271v-23.62h-2.951v-4.626h58.664a780.5 780.5 0 01.21-5.835c.117-2.712-.066-7.094-.23-11.002-2.518 1.803-5.656 3.849-7.618 5.112a2.448 2.448 0 01-3.257-.552l-4.538-5.796 7.305-.04c4.094-.021 7.416-3.33 7.495-7.423a6.492 6.492 0 011.236-.479c1.236-1.133 3.786-2.396 5.931-2.784 0 0 0 .007-.006.02.059-.02.091-.033.091-.033l5.945.336s5.984 3.368 7.358 4.224c.889.553.019 5.152-.746 8.967 7.495.35 8.057 1.803 8.057 1.803s-.877 6.442-1.922 13.482z"/></g><path d="M110.102 96.414v5.803a1.899 1.899 0 01-1.896 1.908h-5.768a1.904 1.904 0 01-1.897-1.908v-5.803c0-1.053.851-1.908 1.897-1.908h5.768a1.89 1.89 0 011.844 1.48c.032.139.052.282.052.428zm0-15.028v5.803a1.9 1.9 0 01-1.896 1.915h-5.768a1.906 1.906 0 01-1.897-1.915v-5.803c0-1.053.851-1.908 1.897-1.908h5.768a1.9 1.9 0 011.896 1.908zm0 30.167v5.804a1.9 1.9 0 01-1.896 1.914h-5.768a1.905 1.905 0 01-1.897-1.914v-5.804c0-1.052.851-1.908 1.897-1.908h5.768a1.9 1.9 0 011.896 1.908zm0 15.146v5.803a1.899 1.899 0 01-1.896 1.908h-5.768a1.904 1.904 0 01-1.897-1.908v-5.803c0-1.059.851-1.915 1.897-1.915h5.768a1.9 1.9 0 011.896 1.915z" opacity=".7"/><path d="M199.359 72.985c-.018-4.186-3.413-7.567-7.573-7.541l-35.787.183-28.069.146-6.468.033-29.712.151c-4.166.027-7.521 3.435-7.502 7.627l.223 43.056.085 17.048v.158l.033 5.671v.309a7.683 7.683 0 00.594 2.934c.053.112.105.224.15.329 1.23 2.547 3.833 4.297 6.829 4.284l5.44-.026 52.726-.276 27.128-.139 7.442-.039 7.305-.04c4.094-.021 7.417-3.33 7.495-7.423v-.196zm-89.257 59.518a1.9 1.9 0 01-1.896 1.908h-5.768a1.904 1.904 0 01-1.897-1.908V126.7c0-1.059.851-1.915 1.897-1.915h5.768a1.9 1.9 0 011.896 1.915zm0-15.146a1.9 1.9 0 01-1.896 1.914h-5.768a1.905 1.905 0 01-1.897-1.914v-5.804c0-1.052.851-1.908 1.897-1.908h5.768a1.9 1.9 0 011.896 1.908zm0-15.14a1.899 1.899 0 01-1.896 1.908h-5.768a1.904 1.904 0 01-1.897-1.908v-5.803c0-1.053.851-1.908 1.897-1.908h5.768a1.89 1.89 0 011.844 1.48c.033.139.052.283.052.428zm0-15.027a1.9 1.9 0 01-1.896 1.914h-5.768a1.905 1.905 0 01-1.897-1.914v-5.803c0-1.053.851-1.908 1.897-1.908h5.768a1.9 1.9 0 011.896 1.908zm73.306 43.266h-67.407v-2.362h67.407zm0-15.119h-67.407v-2.369h67.407zm0-16.35h-67.407v-2.363h67.407zm0-15.12h-67.407v-2.363h67.407z" opacity=".6"/><path d="M183.408 81.504h-67.407v2.362h67.407zm0 15.12h-67.407v2.362h67.407zm0 16.344h-67.407v2.369h67.407zm0 15.127h-67.407v2.362h67.407z" opacity=".7"/></g><path d="M183.408 81.505h-67.407v2.362h67.407zm0 15.119h-67.407v2.363h67.407zm0 16.344h-67.407v2.369h67.407zm0 15.127h-67.407v2.362h67.407z" fill="#fff"/><path d="M110.102 81.386v5.803a1.9 1.9 0 01-1.896 1.915h-5.768a1.906 1.906 0 01-1.897-1.915v-5.803c0-1.053.851-1.908 1.897-1.908h5.768a1.9 1.9 0 011.896 1.908zm0 30.167v5.804a1.9 1.9 0 01-1.896 1.914h-5.768a1.905 1.905 0 01-1.897-1.914v-5.804c0-1.052.851-1.908 1.897-1.908h5.768a1.9 1.9 0 011.896 1.908z" fill="#ffbe55"/><path d="M104.996 116.783l-2.655-2.32a.528.528 0 01-.051-.742.52.52 0 01.736-.051l1.876 1.641 2.671-3.004a.518.518 0 01.736-.042.525.525 0 01.041.742z" fill="#fff"/><path d="M110.102 96.414v5.803a1.899 1.899 0 01-1.896 1.908h-5.768a1.904 1.904 0 01-1.897-1.908v-5.803c0-1.053.851-1.908 1.897-1.908h5.768a1.89 1.89 0 011.844 1.48c.032.14.052.282.052.428z" fill="#ffbe55"/><path d="M104.996 101.641l-2.655-2.32a.528.528 0 01-.051-.741.519.519 0 01.736-.053l1.876 1.641 2.671-3.004a.523.523 0 01.777.7z" fill="#fff"/><path d="M110.102 126.699v5.803a1.899 1.899 0 01-1.896 1.908h-5.768a1.904 1.904 0 01-1.897-1.908v-5.803c0-1.059.851-1.915 1.897-1.915h5.768a1.9 1.9 0 011.896 1.915z" fill="#ffbe55"/><path d="M104.996 131.926l-2.655-2.319a.53.53 0 01-.051-.743.52.52 0 01.736-.052l1.876 1.641 2.671-3.004c.191-.216.52-.233.736-.04s.235.524.041.739zm-.789-46.901c0-.125.006-.244.024-.359.015-.114.046-.222.092-.329s.113-.205.198-.298c.087-.093.201-.176.34-.252l.28-.151c.118-.06.231-.134.341-.215.11-.08.205-.176.286-.283a.564.564 0 00.123-.352.506.506 0 00-.195-.419.698.698 0 00-.446-.151.639.639 0 00-.287.062 1.01 1.01 0 00-.401.338l-.128.187-.834-.587c.141-.332.364-.59.669-.774a1.954 1.954 0 011.03-.275c.206 0 .411.028.614.088.205.061.39.156.55.285.165.13.295.298.398.505.101.206.154.456.154.75 0 .308-.065.569-.191.778a1.708 1.708 0 01-.562.548 3.274 3.274 0 01-.344.205 3.65 3.65 0 00-.32.187.987.987 0 00-.234.22.49.49 0 00-.09.293h-1.067zm.024 1.994v-1.222h1.059v1.222z" fill="#fff"/><path d="M238.103 143.774s1.65-.288 1.619-.962c-.034-.676.25-1.597.353-1.882.139-.38.153-1.728.609-1.536.454.192.076 2.227.076 2.671.001.447 1.43-.8 1.864-.804s2.279 2.686 1.205 3.417c-1.076.732-2.693.745-2.857.913-.164.169-1.588.734-1.588.734z" fill="#eea886"/><path d="M242.333 141.367s3.438-2.004 3.774-1.929c.339.073.433.28.119.481-.313.202-3.266 2.041-3.266 2.041s4.455-1.632 4.742-1.637c.17-.002.375.39.216.514s-4.483 2.014-4.483 2.014 4.163-1.515 4.405-1.442c.214.065.318.474.018.608-.301.135-4.087 1.776-4.087 1.776s3.1-.897 3.274-.706c.106.117.298.446-.509.651s-2.659.902-2.659.902z" fill="#eea886"/><path d="M217.428 186.757l6.747 28.305h1.486l-5.722-28.367zm-7.363 0l6.75 28.305h1.486l-5.723-28.367zm-8.225 0l-6.747 28.305h-1.488l5.722-28.367z" fill="#858585"/><path d="M227.567 151.484s-.877 6.442-1.923 13.482c-.091.599-.183 1.197-.274 1.803v.006l-.373 2.461-.059.356a327.082 327.082 0 01-.785 4.894 194.999 194.999 0 01-.83 4.718 85.181 85.181 0 01-.36 1.744c-.268 1.183-.557 2.131-.857 2.901-1.21 3.151-2.525 3.185-2.525 3.185h-29.077c-.202-2.803.576-7.514.576-7.514l.327-.428 7.28-9.5.274-.356 1.294-1.691v-.007l1.066-1.387.563-.731.347-.454.097-.124.53-.698 11.112-14.501c2.17-.046 4.002-.02 5.539.039 7.496.349 8.058 1.802 8.058 1.802z" fill="#e2d2ca"/><path d="M200.787 169.165l3.789-.665-2.527-6.401z" fill="#24263d"/><path d="M185.507 212.254s-2.491 1.49-3.618 2.045c-1.13.554-5.518.723-5.951 1.139-.433.415-.271 1.735.456 1.868.728.133 6.065.605 7.844.18 1.779-.423 5.11.274 5.847.021.737-.255.251-4.253-.037-5.149-.287-.897-4.541-.104-4.541-.104z" fill="#0e538c"/><path d="M185.546 210.561l-.039 1.693s3.337.619 4.542.104l-.084-1.858z" fill="#1c1e30"/><path d="M216.507 172.49s-19.048 4.069-22.021 5.339-4.756 1.795-4.978 2.429c-.225.636-4.868 31.028-4.868 31.028h6.317s4.904-22.953 5.499-24.374c.594-1.42 24.153-1.496 25.861-3.216 1.709-1.719 3.196-6.429 1.338-10.653s-7.148-.553-7.148-.553z" fill="#282b45"/><path d="M208.734 213.454s-2.236 1.856-3.266 2.578c-1.031.721-5.343 1.564-5.708 2.043-.364.477-.004 1.756.737 1.775.74.02 6.084-.336 7.778-1.029 1.695-.69 5.092-.515 5.781-.88.691-.364-.397-4.239-.818-5.081-.42-.844-4.504.594-4.504.594z" fill="#0e538c"/><path d="M208.515 211.777l.219 1.678s3.393.097 4.504-.595l-.366-1.823z" fill="#0e538c"/><path d="M217.699 169.658s-20.646 9.471-21.984 12.54c-1.362 3.125 12.051 30.427 12.051 30.427l6.169-.959s-10.086-25.968-9.534-27.265c.553-1.297 33.263-5.217 25.715-13.952-7.548-8.737-12.417-.791-12.417-.791z" fill="#282b45"/><path d="M217.609 140.392c.991-.518 4.296.617 5.272 2.146 2.27 3.556 6.559 7.948 6.559 7.948l9.562-8.088 1.917 4.821-11.351 9.626a2.452 2.452 0 01-3.302-.118c-2.983-2.912-9.119-9.036-9.593-10.568-.627-2.026-.958-4.776.936-5.767z" fill="#0b4870"/><path d="M219.51 149.681c-.419 2.106-.811 3.975-.85 4.791-.066 1.276-1.316 6.31-2.401 10.494a691.355 691.355 0 01-1.02 3.862l-.112.408-.091.356h-.007l-.386 1.44-6.507-1.44-1.602-.356-2.721-.606-1.322-.288c.079-.283.053-1.014-.026-2.02-.032-.409-.078-.869-.123-1.356a115.996 115.996 0 00-.243-2.099v-.006c-.026-.205-.046-.415-.078-.633-.314-2.566-.694-5.355-.903-7.157-.183-1.599-.379-4.376-.49-7.172-.151-3.954-.138-7.936.32-8.64.085-.131.222-.27.398-.414 1.328-1.073 4.899-2.427 5.514-2.658.059-.02.092-.033.092-.033l5.945.336s5.984 3.368 7.357 4.224c.891.553.021 5.152-.744 8.967z" fill="#fff"/><path d="M214.645 171.033l.596-2.206-12.773-2.503.027 2.017z" fill="#1f2136"/><path d="M208.292 167.351l-3.029-.636v2.411l3.029.71z" fill="#4f558a"/><path d="M209.65 161.074c.033.631.073 1.271.105 1.917l.01.008a653.112 653.112 0 001.074 14.517c.886.746 12.142-1.885 12.142-1.885s-1.386-1.892-2.721-7.135c-1.343-5.235-.293-10.265 1.099-18.784 1.384-8.52.236-8.472.236-8.472l-8.696-4.751c-.569 2.179-2.875 10.085-3.42 14.615-.194 1.654-.073 5.612.171 9.97zm-2.782-24.907s0 .007-.007.02c-.078.198-.746 1.967-1.517 4.514a78.558 78.558 0 00-1.131 4.138s0 .006-.007.006a57.734 57.734 0 00-.941 4.619c-.583 3.606-.837 8.758-1.125 12.864l-.04.533v.007a94.915 94.915 0 01-.215 2.552c-.203 2.079-.458 3.481-.851 3.58a2.784 2.784 0 00-.229.059c-.909.217-.595.04-.595.04s.019-.619.045-1.554v-.006c.027-.717.053-1.611.079-2.573.072-2.157.157-4.605.209-5.835.118-2.712-.066-7.094-.229-11.002-.177-4.072-.857-8.251-.614-8.895.104-.278-.242.038.104-.278 1.236-1.13 4.918-2.4 7.064-2.789z" fill="#0b4870"/><path d="M207.077 135.137c0 .402-.033.771-.122 1.017 0 0 .668 2.621 5.944.335 0 0-1.043-3.907 0-7.185l-5.944 3.712s.073.59.105 1.278c.017.277.025.573.017.843z" fill="#eea987"/><path d="M212.684 135.45s-2.074 1.009-4.167 1.205l1.021 2.181 3.362-2.345zm-4.167 1.205s-1.459-.486-1.449-1.205l-.198.72.595 2.303z" fill="#d3d3d3"/><path d="M208.517 136.655l-.763 1.318s.354.406 1.486.23z" fill="#ffbe55"/><path d="M207.918 138.087s-3.119 9.232-3.143 15.787c-.025 6.554.488 10.467.488 10.467l.687 1.29 1.004-1.178s-.709-19.032 2.066-26.223c0 0-.986-.473-1.102-.143z" fill="#ffbe55"/><path d="M207.06 134.294c.017.277.025.573.017.842 4.193.068 4.258-2.343 4.258-2.343-.652 1.746-4.275 1.501-4.275 1.501z" fill="#a77860"/><path d="M182.802 137.543s-1.035-2.07-1.202-2.38c-.167-.311-.984-.74-1.961-1.145-.976-.402-2.454-.457-2.599-.338-.144.118-.34.162-.486.65-.148.487-.034.991-.034.991s-.434.504-.251 1.112c0 0-.39.495-.079 1.149 0 0-.369.495-.108.948 0 0 .817.433 1.08.692.261.258 2.019 1.027 3.804 1.475 0 0 1.813-.214 1.836-3.154z" fill="#eea886"/><path d="M182.802 137.543s1.975 1.981 1.931 2.455c-.075.783-1.034 3.066-1.083 3.02-.05-.046-3.092-2.428-3.092-2.428z" fill="#eea886"/><path d="M203.357 144.786s0 .006-.006.006c-.327.578-1.759 1.736-3.578 3.052-.104.08-.209.152-.313.232-2.518 1.801-5.657 3.849-7.619 5.112a2.45 2.45 0 01-3.257-.552l-4.538-5.798-4.65-5.934.255-.389 2.159-3.296.432-.651 7.743 9.862s5.082-3.435 8.018-6.455a3.2 3.2 0 01.844-.599 6.35 6.35 0 011.236-.48c.137-.04.274-.072.412-.105 1.289-.283 2.609-.25 3.1.151.549.448.824 1.04.896 1.704.162 1.316-.453 2.895-1.134 4.14z" fill="#0b4870"/><path d="M179.441 136.836l.534-.37-4.354-6.366-.535.37z" fill="#eb4747"/><path d="M175.632 130.097l-.907-.754.37 1.123z" fill="#eea886"/><path d="M177.301 133.775s2.453 1.086 2.347 1.55c-.107.463-.396.561-.396.561l.831.96s.229.982-.793.97c0 0 .301.893-.686.752 0 0-.036.687-.503.712s-2.019-.749-2.019-.749-.262-.328.108-.948c0 0-.329-.608.079-1.149 0 0-.195-.532.252-1.113 0 0-.353-1.223.52-1.641 0 0 .156.048.26.095z" fill="#d69779"/><path d="M181.527 135.117s-1.799.196-2.74.784c-.212.132-.395.305-.364.577s.421.568 1.205.528c.782-.038 1.813.313 1.813.313s.794-.306.086-2.202z" fill="#eea886"/><path d="M183.666 187.31s1.336-8.384 1.406-8.723c.071-.34 1.43-1.562 7.924-3.703 0 0-7.219 1.412-9.111 2.652-1.46.956-.219 9.774-.219 9.774z" fill="#12131f"/><path d="M148.254 171.781h-1.446v47.757h1.446zm85.298 0h-1.447v47.757h1.447z" fill="#0e538c"/><path d="M236.108 169.237H144.62v43.267h91.488z" fill="#cce9ff"/><path d="M239.273 164.848H141.67v4.626h97.603zm-90.47 53.75h-2.544v.94h2.544zm85.247 0h-2.442v.94h2.442z" fill="#0e538c"/><path d="M177.458 143.451v15.739a1.963 1.963 0 01-1.956 1.967h-23.217a1.962 1.962 0 01-1.955-1.967v-15.739c0-1.085.876-1.967 1.955-1.967h23.217c1.079 0 1.956.882 1.956 1.967z" fill="#f7f7f7"/><path d="M168.124 163.795v1.053H156.66l1.616-3.691 2.896-6.619.112-.257h6.134l-2.87 6.836-.021.04-1.104 2.638z" fill="#f7f7f7"/><path d="M167.065 154.281l-.118.29-2.773 6.586-1.55 3.691h-5.945l1.616-3.691 2.891-6.619.111-.257z" fill="#f2f2f2"/><path d="M172.801 163.795v1.053h-9.784l.406-1.053zm-8.267-2.676l2.885-6.87v6.87z" fill="#d3d3d3"/><path d="M161.856 157.474c.32-.83 1.087-1.333 1.84-1.271a1.348 1.348 0 00-.191-.093c-.87-.338-1.881.188-2.261 1.176-.381.988.015 2.064.885 2.402.138.054.279.083.421.095-.732-.412-1.045-1.396-.694-2.309z" fill="#fff"/><path d="M163.023 159.746c.583-.131 1.115-.578 1.367-1.234.279-.725.138-1.493-.298-1.987a1.54 1.54 0 00-.395-.323c-.752-.063-1.519.441-1.839 1.272-.351.912-.039 1.896.694 2.309a1.415 1.415 0 00.471-.037z" fill="#d3d3d3"/><path d="M259.658 116.447s-1.234.165-1.223-.36c.009-.525.093-1.21.093-1.21zm6.932-5.693l-4.049 3.151c.516-.098 1.38-.224 1.401.049.027.386-1.54.854-2.036 1.206-.455.324-.933.9-1.06.927l-.885.763-1.432-1.973s2.363-2.691 2.933-3.264c.926-.933 4.672-1.482 4.876-1.345.37.244.252.486.252.486z" fill="#eea987"/><path d="M261.592 116.983l-3.265-2.783-11.199 11.386c-1.754 1.212 3.42 5.39 4.88 6.303 3.754 2.342 8.182 7.759 12.776 4.455 4.979-3.583-2.27-6.132-4.687-6.07-2.096.054-6.658-4.09-6.658-4.09z" fill="#ffbe55"/><path d="M255.682 219.146s-1.861 1.965-3.749 2.377c-1.889.411-5.148 1.813-5.163 2.942-.015 1.128 7.374.993 9.535-.143 3.226-1.697 3.555-1.186 3.912-2.034.358-.847-.429-3.118-.406-3.386.028-.333-4.129.244-4.129.244z" fill="#0b4870"/><path d="M255.891 218.206s-.246.919-.209.94c.037.02 4.257.495 4.129-.244-.104-.6-.251-1.251-.251-1.251z" fill="#2f6b8c"/><path d="M276.7 219.658s-1.369 1.914-3.2 2.356c-1.805.436-4.476 2.136-4.565 3.232-.088 1.095 5.758 1.659 8.81-.265 2.006-1.266 2.754-1.193 3.158-1.997.404-.805-.211-3.057-.171-3.318.049-.322-4.032-.008-4.032-.008z" fill="#0b4870"/><path d="M276.755 218.711s-.089.926-.055.947 4.056.736 4.032.008c-.02-.58-.256-1.301-.256-1.301z" fill="#2f6b8c"/><path d="M260.147 162.902s-1.954 14.283-2.752 19.111c-.933 5.644-1.249 10.307-1.511 13.231-.327 3.674-.76 22.478-.989 23.554-.231 1.073 5.691.515 5.691.515s3.102-24.516 4.077-28.43c.908-3.643 3.552-19.384 4.379-18.389.828.995 3.365 18.826 3.977 21.699.615 2.874 2.258 25.499 2.258 25.499s5.587.901 6.711 0c0 0-.882-20.174-1.272-25.562-.149-2.055 1.291-24.584-2.16-33.67-1.824-4.8-18.409 2.442-18.409 2.442z" fill="#0e538c"/><path d="M266.536 128.651s-5.171 1.076-5.785 1.623c-.666.583-1.842 6.279-1.911 7.867-.071 1.589.623 8.218 1.289 10.687s-.873 13.028-1.294 16.449c0 0 11.508 2.173 21.745.833 0 0-1.395-10.39-.985-13.772.526-4.335 1.787-14.323 1.787-14.323s.009-5.621-.783-6.519c-1.698-1.929-8.227-2.845-8.227-2.845z" fill="#ffbe55"/><path d="M273.647 139.076c.242 5.145 1.87 6.396 3.473 5.996.503-.125.997-.413 1.431-.793.681-.596 1.216-1.421 1.407-2.206.702-2.865.708-10.768-2.886-11.785 0 0-3.899-1.268-3.425 8.788z" fill="#ffbe55"/><path d="M258.181 141.413s2.885-.481 3.061 3.728c.176 4.21 1.988 12.03 4.939 15.147l-11.61.443c-2.952-3.116-4.401-10.58-4.621-14.788-.204-3.869-3.063-3.728-3.063-3.728z" fill="#d3d3d3"/><path d="M264.954 131.771c.066.045.136.088.214.124.262.135.595.232 1.014.278a3.95 3.95 0 00.745.003c2.737-.269 5.453-3.42 5.453-3.42-5.496-.837-7.852.193-7.852.193s-.88 1.937.426 2.822z" fill="#ffbe55"/><path d="M265.068 129.778s1.28.851 6.134-1.301c0 0-.484-2.9.264-6.082.722-3.062-5.962 3.777-5.962 3.777.078.056.093.369.047.805a6.544 6.544 0 01-.048.375 9.174 9.174 0 01-.191.916c-.273 1.046-.244.598-.244 1.51z" fill="#eea886"/><path d="M271.201 127.552s-2.538 1.54-5.049 1.887l1.336 2.145 4.231-2.933zm-5.889.716s.268.883.84 1.171l-1.255 1.759.046-2.333z" fill="#0b4870"/><path d="M265.334 127.421c2.878.153 4.719-2.849 4.775-2.937-1.807 1.985-4.606 2.103-4.606 2.103a12.6 12.6 0 01-.169.834z" fill="#a77860"/><path d="M258.181 141.413s-3.455.323-2.725 5.174l-10.256.558s-1.418-3.304 1.686-4.93z" fill="#f7f7f7"/><path d="M267.071 150.481s-.444.21-.831.105c-.667-.182-1.236-1.115-2.108-.636-.87.479-.138 3.688.304 4.158.443.47 1.799.195 3.497-1.029 1.696-1.223-.862-2.598-.862-2.598z" fill="#eea886"/><path d="M264.449 149.832s-1.472.111-3.096.436c-1.425.285-3.154.838-3.087 1.201.101.549 1.468-.069 2.899-.256 1.319-.172 1.087.086 1.087.086s.061-.077-1.338.395c-1.507.507-3.101 1.114-3.053 1.412.062.368.1.409.676.315-.319.126-.331.233-.291.375.204.727 2.531.333 3.454.175-.709.126-1.216.294-.804.66.469.416 3.735-.292 4.929-.432 1.301-.152-1.376-4.367-1.376-4.367z" fill="#eea886"/><path d="M275.924 130.39c-1.056.349-1.619 1.85-.978 4.968.711 3.448 1.506 5.124 1.965 5.936s2.934 4.969 2.482 5.629c-.453.658-6.435 2.223-6.842 2.34-.811.232-6.238 1.321-6.238 1.321l1.328 4.676s16.524-2.837 17.329-3.646c.804-.809 1.224-1.905.334-4.732-.904-2.872-2.528-9.599-2.818-10.124-.287-.526-1.801-7.942-6.562-6.368z" fill="#ffbe55"/><path d="M275.093 136.038s.54 6.965 2.937 11.912c.728-.164 1.445-.543 2.074-1.045 0 0-2.77-4.577-3.018-5.098-.248-.52-1.713-4.557-1.993-5.769zm-7.941 18.237s6.652 1.201 12.379.485c-.085-.556-.008-1.166.17-1.88 0 0-5.371 1.06-5.973 1.133-.603.071-5.214.306-6.576.262z" fill="#a77860" opacity=".3"/><path d="M74.956 113.429l-.072.658-.778 7.388c-1.831-1.349-3.335-.177-4.473 1.724a2.734 2.734 0 00-.098.164c-1.001-1.822-2.197-5.118.032-7.987 1.1-1.414 2.72-2.026 4.376-2.026.098 0 .202 0 .3.006.046 0 .085.007.131.007l.223.019c.058.008.117.014.176.02.034.007.066.007.098.013.026.007.058.007.085.014z" fill="#e8734d"/><path d="M80.194 125.292c-.222.138-1.13.321-1.13.321s-.955 3.054-2.015 3.034a5.592 5.592 0 01-.732-.079 9.407 9.407 0 01-2.852-1.013l.275-2.586.282-2.684c0-.007.006-.007.006-.007l.053-.553.026-.25c-1.832-1.35-3.336-.178-4.474 1.723a11.558 11.558 0 01-.798-2.717c-.497-3.093.569-6.132 5.395-6.408a4.45 4.45 0 01.654.013c1.57.112 3.964.921 4.971 3.619.177.461.308.98.386 1.56 0 0-.124 1.204-.412 2.151-.282.948.581 3.737.365 3.876z" fill="#a77860"/><path d="M80.24 119.265s-2.708 1.881-5.402 2.283a4.16 4.16 0 00-.504.105h-.007c-.085.02-.17.046-.248.073l.026-.251c-1.832-1.349-3.336-.177-4.474 1.724-.032.052-.066.105-.098.164a11.024 11.024 0 01-.588-1.249 9.078 9.078 0 01-.464-1.507c0-.007 0-.013-.007-.019-.026-.119-.045-.238-.066-.363a6.892 6.892 0 01-.105-1.171 5.86 5.86 0 011.262-3.678c1.1-1.414 2.721-2.026 4.376-2.026.098 0 .202 0 .3.006.046 0 .085.007.131.007l.223.019c.058.008.117.014.176.02.033.007.066.007.098.013.026.007.06.007.085.014 2.387.362 4.624 1.954 5.173 4.224.133.507.172 1.045.113 1.612z" fill="#0e538c"/><path d="M67.311 129.247c-.06.308-.137.637-.235.98.052-.224.13-.561.235-.98z" fill="#e8734d"/><path d="M95.23 219.926s2.497 3.529 2.155 4.089c-.341.56-2.969.639-4.567 0-1.598-.638-1.635-4.776-2.359-6.552-.302-.744.344-2.941 1.256-3.101.912-.159 1.901.31 1.901.31s-.945 2.503 1.614 5.254z" fill="#ffbe55"/><path d="M93.634 214.644s.524 1.502.717 2.937c.159 1.191 1.779 3.716 1.703 4.038-.077.32-2.132.609-2.97-.216-.836-.825-1.376-3.22-1.56-4.653-.173-1.335-.388-1.994-.388-1.994s1.697-.992 2.498-.112z" fill="#a77860"/><path d="M73.495 219.985s2.408 3.47 2.064 4.03c-.342.56-2.968.639-4.567 0-1.597-.639-1.637-4.776-2.36-6.552-.303-.744.346-2.941 1.257-3.101.911-.159 1.978.343 1.978.343s-.932 2.527 1.628 5.28z" fill="#ffbe55"/><path d="M71.867 214.705s.19 1.638.495 2.797c.305 1.158 1.942 3.795 1.866 4.116-.076.32-2.133.61-2.969-.215-.838-.825-1.485-3.211-1.56-4.653-.076-1.446.19-2.388.19-2.388s1.18-.535 1.978.343z" fill="#a77860"/><path d="M93.784 215.38s-.123.105-.333.209c-.406.21-1.145.428-1.91-.131-.066-.046-.19-.249-.373-.578v-.015c-.02-.025-.032-.052-.052-.085-1.576-2.914-6.586-14.35-6.586-17.771 0-3.903-2.001-8.665-3.27-11.43-.477-1.033-.857-1.782-.987-2.111a49.171 49.171 0 01-.393-.987c-4.08-10.349-3.257-13.574-3.832-14.278-.588-.724-.64.447-.988 2.053-.229 1.085-.647 7.837-1.033 12.593-.059.797-.124 1.54-.183 2.184-.111 1.185-.216 2.06-.308 2.422-.444 1.764-.098 7.698-.34 10.698-.249 2.994-1.327 16.554-1.327 16.554s-.837 1.375-2.015.034a.42.42 0 01-.032-.093c-.02-.059-.033-.144-.06-.256-.43-2.284-1.935-15.041-1.98-18.317-.053-3.567-.105-8.482-.197-10.021-.052-.823-.105-1.605-.164-2.356l-.098-1.178c-.994-11.658-2.59-14.243.635-23.805.013-.04.026-.085.046-.124.575-1.698 1.177-3.106 1.791-4.27l.04-.079c.006-.008 0-.008 0-.008 1.288-2.414 2.635-3.73 3.956-4.289a4.427 4.427 0 011.19-.309 4.512 4.512 0 01.812 0c.523.045 1.033.19 1.523.407 0 0 .007 0 .007.007.203.079.399.185.595.289l.013.008c.733.413 1.433.973 2.067 1.592.072.066.13.124.196.197l.007.006a16.29 16.29 0 011.491 1.712c.197.249.367.48.543.717v.007c.733 1.033 1.256 1.94 1.512 2.381.019.034.039.066.052.099.04.086.071.137.085.171.006.006.013.013.013.019 0 .008.007.014.007.02.013.079.085.435.196.974.55 2.671 2.034 9.967 2.433 12.105.268 1.428.792 5.824 1.243 9.896.209 1.895.398 3.712.542 5.14.118 1.177.203 2.085.236 2.533.143 2.171 2.23 10.342 2.132 11.119-.085.677 2.315 12.515 2.95 15.606 0 .007 0 .014.006.021.007.019.007.032.013.045l.13.673z" fill="#a77860"/><path d="M88.265 179.981c-.157.093-.32.178-.49.263-2.283 1.198-5.083 1.875-7.894 2.237a46.79 46.79 0 01-5.853.368 63.673 63.673 0 01-6.704-.329c-.824-.085-1.294-.151-1.294-.151-1.603-11.653.045-19.535 1.582-23.903.974-2.783 1.896-4.146 1.896-4.146h.328c.772 0 2.799.027 5.088.198 2.073.158 4.362.441 6.121.947.45.131.87.276 1.236.434.674.296 1.184.645 1.465 1.059.019.033.04.066.052.099.04.059.066.111.085.171.007.006.013.013.013.019 0 .008.007.013.007.02.086.224.177.54.288.921 1.327 4.937 4.074 21.793 4.074 21.793z" fill="#0e538c"/><path d="M90.391 217.152v3.694h.458v-2.855zm-21.826 0v3.694h.457v-2.855z" fill="#ffbe55"/><path d="M74.106 121.475l-.026.251-.052.553s-.007 0-.007.006l-.282 2.685-.275 2.586-.267 2.585s-.197.158-.517.401c-.007.007-.007.014-.013.014-.046.039-.098.078-.15.118-.072.053-.145.112-.223.171-.242.184-.523.389-.83.618-.007.007-.007.007-.015.007-.013.006-.032.02-.051.033-.603.435-1.295.916-1.976 1.329-1.504.928-2.943 1.56-3.211.81a.56.56 0 01-.033-.139v-.007c-.039-.276.033-.677.242-1.229a23.29 23.29 0 00.602-1.81c0-.013.006-.033.006-.046.02-.066.033-.124.046-.183.098-.343.177-.672.236-.981.476-2.421.163-4.251.385-8.363a68.62 68.62 0 01.112-1.671c.424-5.316 4.277-5.902 6.134-5.862-1.654 0-3.276.612-4.375 2.026-1.34 1.724-1.445 3.613-1.085 5.231.229 1.073.654 2.033 1.052 2.756.033-.059.066-.112.098-.165 1.14-1.901 2.644-3.073 4.475-1.724z" fill="#0e538c"/><path d="M77.545 132.338s-.137.034-.36.086a29.19 29.19 0 01-2.203.408c-.131.019-.262.04-.393.052-.026.007-.059.007-.085.013a9.39 9.39 0 01-.824.068c-.36.019-.694.013-.955-.027-.543-.087-.824-.31-.576-.777.053-.093.092-.198.131-.31.072-.183.124-.4.164-.637v-.021c.032-.165.052-.342.071-.519.053-.041.104-.08.15-.119.007 0 .007-.008.014-.014.32-.242.517-.4.517-.4l.267-2.586.275-2.586c1.308-.21 2.898-.237 2.498.934-.222.672-.137 1.645.072 2.632 0 .013.007.019.007.032.058.27.124.54.196.81.072.276.157.539.235.797l.268.808.007.027c.29.789.524 1.329.524 1.329z" fill="#a77860"/><path d="M63.125 148.967c.078.643 3.063.509 6.248.181a.854.854 0 00.01.037l.171.712c.047.194.09.4.128.615.32 1.834.294 4.415-.314 6.628 0 0 8.028 3.011 13.035.267 0 0-.531-4.38.267-7.212.8-2.832 4.977-12.698 4.977-12.698s-3.028-4.403-5.339-5.209-5.289-1.304-5.289-1.304l-4.33.16s-3.605.945-4.413 1.2c-1.442.459-2 .941-2.747 2.439-1.026 2.06-2.757 11.289-2.404 14.184zm4.553-4.853s.394.878.748 1.872c-.288.027-.562.028-.691.047-1.14.172-.283-1.286-.057-1.919z" fill="#ffbe55"/><path d="M76.512 129.377c-2.661-.375-3.034-1.782-3.047-1.822l2.845.98c0 .013.007.019.007.033.058.269.124.54.195.809z" fill="#a77860"/><path d="M67.735 144.149s.195.414.73 2.041c.543-4.572.26-6.953.26-6.953-.06 2.444-.99 4.912-.99 4.912zm1.648 5.036l.17.712c.047.194.09.4.128.615 1.793-.981 3.082-1.748 3.082-1.748-.482.108-3.38.421-3.38.421z" fill="#cfbeb8"/><path d="M72.444 131.207l5.1 4.181-.526-4.405s-2.973-.644-4.574.224z" fill="#a77860"/><path d="M76.07 134.679l1.474.709-5.008-4.993z" fill="#fcd2b1"/><path d="M76.512 143.405a36.966 36.966 0 01-.208 2.52c-.086.751-.19 1.546-.309 2.362-.013.072-.019.146-.032.217-.06.375-.111.751-.17 1.133-.007.006-.007.013-.007.019-.02.105-.04.217-.052.329-.02.098-.034.204-.053.31-.013.091-.032.19-.045.283a200.43 200.43 0 01-.713 3.941 187.847 187.847 0 01-.778 3.809c-.046.23-.092.44-.13.638a1.317 1.317 0 01-1.681.987l-4.33-1.362-.392-.124-.425-.132s2.387-6.053 1.962-9.125c.006-.014 0-.027 0-.034a4.802 4.802 0 00-.066-.348c-.242-1-.51-1.942-.752-2.756-.006-.027-.02-.053-.026-.08 0-.013-.007-.025-.013-.04-.086-.276-.17-.526-.242-.77l-.118-.361c-.072-.205-.138-.388-.19-.553a.21.21 0 00-.026-.067s-.007-.006 0-.006c-.17-.5-.281-.789-.281-.789s-1.289-7.145 1.988-10.574a5.607 5.607 0 011.976-1.329c.058-.019.117-.046.176-.065.02-.007.026-.007.026-.007a4.59 4.59 0 01.452-.139c.13-.04.255-.072.392-.099.013 0 .026-.006.04-.006.065-.013.123-.026.189-.032.007-.008.007-.008.013-.008 0 0 .112.178.295.501.17.309.418.755.699 1.316.373.749.817 1.69 1.237 2.75.902 2.276 1.713 5.093 1.594 7.691zm12.008-5.074l-2.714 3.606-.621.823-1.38 1.836c0 .69.014 1.453.04 2.263v.006c.007.236.02.468.026.704.033.829.078 1.685.124 2.539l.098 1.567c.007.052.007.105.013.158v.071c.046.658.092 1.291.138 1.888 0 .046 0 .093.006.139a246 246 0 00.327 4.034l-.386.224-.091.052-1.681.973a.882.882 0 01-1.322-.749c0-.151-.006-.316-.006-.487-.013-.704-.026-1.567-.045-2.513-.014-.513-.02-1.059-.034-1.62 0-.276-.006-.559-.013-.848-.006-.191-.006-.388-.014-.586v-.019l-.019-1.067c-.007-.156-.007-.315-.013-.466-.007-.507-.013-1.006-.026-1.507-.007-.486-.02-.967-.027-1.435-.013-.618-.026-1.217-.032-1.782-.02-.896-.04-1.711-.053-2.396-.052-2.651-1.118-6.21-2.059-8.869-.772-2.157-1.453-3.724-1.453-3.724a.393.393 0 01.072.027c.053.013.105.032.157.053l-.059-.158-.033-.087s.105.014.288.047c.909.157 3.734.678 5.304 1.467.438.217.967.651 1.523 1.191.877.836 1.812 1.928 2.564 2.843a62.495 62.495 0 011.401 1.802z" fill="#0b4870"/><path d="M84.248 153.792s-3.555.139-4.108 0c-.552-.139-4.241-1.749-4.464-3.338-.22-1.59 8.572 1.424 8.572 1.424z" fill="#a77860"/><path d="M73.217 148.824l14.43-1.699-6.518 5.336z" fill="#d3d3d3"/><path d="M81.129 152.461l-7.912-2.713v-.924l8.178 2.64z" fill="#f2f2f2"/><path d="M77.409 146.159s1.193 0 1.862-.136c.517-.107 1.802.04 2.131.332.326.291 1.369 2.325 1.566 2.45.197.124-.1.413-.447.268 0 0-.317.889-1.102.558-.784-.335-1.317-1.063-1.727-1.191-.41-.128-2.8-.775-2.8-.775s-.1-1.723.517-1.506z" fill="#a77860"/><path d="M80.815 135.391l-1.32-.843-2.119-3.374-.092-.145-.536-.855.981.855.065.099z" fill="#ffbe55"/><path d="M79.492 134.547l-1.949.842-.525-4.405-.272-.812z" fill="#fcd2b1"/><path d="M94.34 149.063s.007.395-.097.955c-.092.526-.295 1.204-.7 1.816-.72 1.084-7.488 1.901-9.293 2.098-.282.034-.439.046-.439.046.02-.04.027-.098.04-.171.06-.447.007-1.421-.026-1.849-.007-.131-.014-.211-.014-.211l.027-.006.255-.066z" fill="#0b4870"/><path d="M101.331 135.023l-3.727 12.323-.654 2.164-2.707.508-9.994 1.862-.143.026-.281.053-1.512.276-1.183.224.268-.994.118-.447.353-1.329.49-1.836.033-.112 2.198-8.224.745-2.797 1.615-.171.17-.019z" fill="#f2f2f2"/><path d="M72.536 130.395l3.534 4.284-1.935 1.734-2.085-5.128z" fill="#ffbe55"/><path d="M77.44 145.991l-.032.171-.294 1.56-.079.401s-.398.066-1.04.164c-.79.125-1.962.296-3.23.475-.007 0-.007 0-.013.006-.06.007-.124.013-.183.026-.74.099-1.505.198-2.244.29-.163.013-.32.032-.477.051l-.19.021c-.091.006-.182.019-.274.032-.078.008-.157.014-.235.02-.504.053-.981.099-1.413.125 0 0-1.609.191-2.936.191-.857 0-1.596-.079-1.72-.337-.327-.65.104-4.829.81-8.592.707-3.764 1.433-5.928 2.29-7.093v-.007c.209-.283.634-.546 1.164-.789.071-.033.137-.059.208-.093a5.68 5.68 0 01.465-.183c1.348-.514 2.969-.875 3.447-.968.052-.013.091-.026.111-.026.02-.006.026-.006.026-.006l-2.805 9.23v.007l-.576 1.881-.014.059-.45 1.474-.02.067s-.006.019-.02.045c-.006 0 0 .006 0 .006-.11.232-.53 1.152-.509 1.573.013.152.118.218.255.245.098-.008.307-.027.602-.046l.209-.021h.02c.032-.006.058-.006.091-.006.013 0 .02 0 .033-.007h.078a56.553 56.553 0 013.565-.165c.824 0 1.89.034 2.858.08.51.019.987.045 1.386.072.68.035 1.137.067 1.137.067z" fill="#0b4870"/><path d="M262.391 116.253s-1.384 2.582-.698 2.983c.566.333-.665 2.868-.825 3.282-.162.412 1.026.714 1.278.98.253.267 1.001 3.546 1.98 3.644.978.099 5.387-1.444 6.588-2.7s2.186-6.928 1.384-9.322c-.8-2.392-7.263-3.379-9.707 1.133z" fill="#eea987"/><path d="M262.115 116.812s-2.814-2.865-.388-4.23c6.922-3.896 8.842.935 9.376 1.072.533.139 3.559.348 2.032 5.696-1.313 4.592-2.421 5.092-2.421 5.092s-.055-2.967-.61-3.375c-.867-.632-2.767-.479-2.767-.479s.906-2.419-.51-2.763c-1.414-.341-3.279-1.547-4.712-1.013z" fill="#0b4870"/><path d="M268.568 119.923c.126-.333.531-1.756 1.745-.92 1.217.838-.756 3.525-.968 3.56-.213.035-1.826.154-.777-2.64zm-56.147 12.211c-1.204 1.256-5.612 2.804-6.593 2.705-.974-.099-1.727-3.383-1.981-3.646-.249-.27-1.439-.572-1.276-.981.157-.413 1.393-2.954.824-3.283-.483-.283.06-1.645.425-2.427.151-.336.275-.559.275-.559 2.446-4.507 8.908-3.52 9.705-1.133.805 2.396-.183 8.067-1.379 9.324z" fill="#eea987"/><path d="M214.84 127.042c-1.315 4.592-2.42 5.092-2.42 5.092s-.045-2.363-.451-3.158a.656.656 0 00-.163-.217c-.445-.323-1.158-.441-1.753-.475-.562-.04-1.014-.006-1.014-.006s.909-2.415-.51-2.756c-1.412-.342-3.276-1.554-4.709-1.021 0 0-2.818-2.862-.392-4.224 6.926-3.895 8.842.934 9.378 1.073.537.138 3.557.342 2.034 5.692z" fill="#0b4870"/><path d="M210.271 127.617c.126-.333.531-1.758 1.745-.92 1.217.837-.756 3.525-.968 3.559-.213.035-1.827.153-.777-2.639z" fill="#eea987"/></svg>