<svg fill="none" height="230" width="344" xmlns="http://www.w3.org/2000/svg"><path d="M300.117 205.367l-109.208.023-23.908.012H159.1l-23.862.011-89.509.426-.172-.564c-9.69-32.303 19.723-31.901 27.841-41.94 2.89-3.577 3.085-8.476-2.133-16.641-.023-.034-.045-.08-.08-.115-3.119-4.887-5.39-9.694-6.88-14.386-3.142-9.821-2.924-19.159-.092-27.796 2.145-6.543 5.791-12.673 10.607-18.308a74.228 74.228 0 016.146-6.348c44.445-40.87 152.828-48.622 167.826 22.805 8.509 40.503 21.959 17.066 49.617 45.839 9.127 9.499 12.212 19.17 12.315 27.784.195 16.56-10.607 29.198-10.607 29.198z" fill="#cce9ff"/><path d="M123.897 150.167s-12.957-2.139-21.763 5.106c-8.795 7.245-3.6 19.631-10.87 21.241-10.47 2.311-34.561 5.623-32.05 28.336.252 2.3 73.524 0 73.524 0l-3.142-48.933zm105.757 16.445s15.48-2.841 26.225 5.991c10.744 8.821 5.848 16.077 11.604 17.963s13.898 5.59 12.074 14.927h-52.012zm63.881 38.157h-6.995c-.378-.322.264-1.047.918-1.093.286-.023.653.035 1.066.127.092-1.277.642-7.05 2.718-6.808 2.328.264 0 2.541-.654 3.887-.493 1-.997 2.438-1.238 3.105.183.046.39.08.585.115.309-.955 1.456-4.152 2.912-3.968 1.72.219 1.021 1.495-.195 2.266-.894.563-1.983 1.357-2.511 1.736.436.069.906.127 1.365.115 1.215-.034 1.8.322 2.029.518z" fill="#2795f6"/><path d="M247.175 28.29H123.897v170.281h123.278z" fill="#ffbe55"/><path d="M248.792 105.627H122.269v5.463h126.523z" fill="#e5a13e"/><path d="M229.849 52.05h-33.677v44.895h33.677z" fill="#fff" opacity=".5"/><path d="M229.012 52.865h-32.026v43.24h32.026z" fill="#cce9ff"/><path d="M204.611 52.429v12.638c-.023.966-.137 1.702-.264 1.702h-.034c-.126 0-.229-.632-.264-1.495 0-.069 0-.138-.011-.218V52.371c.183.023.378.035.573.058z" fill="#afcdfb"/><path d="M204.164 65.205c-2.121 0-3.853 1.829-3.853 4.083h7.706c0-2.254-1.732-4.083-3.853-4.083z" fill="#afcdfb"/><path d="M204.474 65.251a1.637 1.637 0 00-.333-.034c-1.387 0-2.511 1.817-2.511 4.07h.676c-.011-2.058.941-3.76 2.168-4.036z" fill="#cde0fb"/><path d="M203.51 82.846s-1.892-2.22-.114-3.623c0 0 1.295-.793 2.362-.724 0 0-1.502 2.53-1.021 2.772.482.252 1.468-2.933 1.468-2.933s2.958-.287 3.91.172c0 0-2.522 2.07-1.995 2.197s3.268-1.909 3.268-1.909 2.752.471 2.603 2.15-1.101 2.208-1.514 2.162c-.412-.046-2.855-.977-2.912-.632-.058.345 1.41 1.46 2.442 1.518 0 0-1.938 2.15-3.233 1.53-1.285-.622-1.399-1.599-2.202-1.967s-1.491-.368-1.158.011c.332.38 1.789.737 2.247 1.553.459.816.872 1.368-.458 1.161s-3.509-1.184-3.601-2.3l-.092-1.138z" fill="#10538c"/><path d="M212.638 80.995s-7.476-.288-9.128 1.851c0 0-.367 1.093-1.49 2.093l-.172.483s1.295-1.368 1.754-1.449c.012-.011-.722-2.668 9.036-2.978z" fill="#10538c"/><path d="M202.031 84.94s-1.605 1.195-1.72 3.311l.287.023s.516-2.196 1.433-3.059c.94-.85 0-.276 0-.276zm-3.382-1.83l-.413.886c-.023.046-.035.08-.058.126-.172.38-.63.644-1.181.805V77.66c.402.173.677.31.677.31s-.172 3.313.367 3.244 0-2.944 0-2.944c1.009.299 1.961 1.483 1.961 1.483 1.169 1.944-1.353 3.358-1.353 3.358z" fill="#10538c"/><path d="M199.325 85.583v.506s-.011-.023-.023-.058c-.023-.057-.046-.103-.069-.15 0-.01-.011-.022-.011-.034s-.012-.023-.012-.023a13.218 13.218 0 01-.16-.345c-.252-.517-.619-1.196-.86-1.334 0-.011.034-.057.057-.126.103-.3.172-1.116-1.238-2.346v-.437c.814.598 1.445 1.242 1.651 1.909-.011-.035-.046 1.115.665 2.438z" fill="#10538c"/><path d="M199.325 85.583s1.089 1.667.47 3.691l-.286-.08s.275-2.231-.299-3.358c-.573-1.116.115-.253.115-.253zm2.351-6.095s-3.337-1.875-1.778-4.416c0 0 1.25-1.564 2.58-1.967 0 0-.711 3.795 0 3.876.711.092.493-4.278.493-4.278s3.509-1.69 4.897-1.564c0 0-2.179 3.703-1.468 3.61s3.153-3.829 3.153-3.829 3.601-.667 4.174 1.472c.574 2.14-.355 3.209-.894 3.347s-3.956.092-3.864.54c.091.449 2.396 1.162 3.692.76 0 0-1.422 3.518-3.291 3.346-1.869-.184-2.443-1.334-3.601-1.426s-1.995.218-1.422.54c.574.31 2.535.104 3.463.897.929.794 1.686 1.288-.045 1.645-1.732.356-4.851.138-5.47-1.208l-.619-1.345z" fill="#10538c"/><path d="M212.076 73.071s-9.334 3.036-10.4 6.417c0 0 .046 1.518-.895 3.255v.667s.975-2.277 1.514-2.588c0 .011-2.087-2.933 9.781-7.751z" fill="#10538c"/><path d="M200.781 82.754s-1.444 2.197-.619 4.865l.367-.104s-.355-2.944.39-4.416c.768-1.483-.138-.345-.138-.345z" fill="#10538c"/><path d="M221.823 89.252s4.93-20.171 5.297-21.862c.161-.759.642-1.023 1.135-1.104-.871-.092-1.502-.092-1.502-.092-1.708 0-3.222 1.23-3.772 3.048-1.193 3.979-5.825 10.626-8.061 18.09.114 0 6.903 1.92 6.903 1.92zm-24.837 6.865v-3.784c.894-1.736 1.8-3.3 2.58-4.53.115-.185.241-.369.355-.541.035-.058.069-.115.115-.161.149-.23.298-.437.424-.621.207-.288.402-.54.562-.748.229-.287.539-.517.895-.69.034-.011.057-.034.091-.046.138-.057.275-.115.425-.172.011 0 .034-.012.045-.012a6.01 6.01 0 011.353-.264c1.067-.104 2.282-.023 3.486.15l.459.068c.665.104 1.319.242 1.938.38h.011c.23.057.448.103.665.16.012 0 .035.012.046.012.08.023.149.035.218.058.333.08.642.172.94.253a45.73 45.73 0 012.007.62v.162l.012.61.011.298.023.874v.161l.023.76v.057l.172 6.934h-16.856z" fill="#1d8cdd"/><path d="M220.263 88.93c-.103-.047-.252-.127-.458-.219-.035-.023-.081-.035-.115-.058a5.081 5.081 0 01-.356-.172c-.16-.069-.332-.15-.516-.241-.252-.116-.539-.242-.837-.38-.091-.035-.172-.08-.275-.115-.092-.035-.172-.08-.264-.115-.355-.15-.722-.31-1.123-.46a40.82 40.82 0 00-1.147-.448l-.057-.023a37.99 37.99 0 00-3.452-1.116 19.254 19.254 0 00-1.101-.276l-.149-.034h-.011l-.688-.138h-.012a14.65 14.65 0 00-1.777-.219c-.138-.011-.275-.011-.401-.011-1.044-.023-1.984.115-2.706.483a2.809 2.809 0 00-1.181 1.104c-.287.506-.677 1.31-1.113 2.334a73.015 73.015 0 00-2.637 7.28h19.895l.045-.564.104-1.115.493-5.417v-.011c-.012 0-.058-.023-.161-.07z" fill="#137cbc"/><path d="M229.024 66.263v29.842h-1.158a71.752 71.752 0 01-2.431-.38 46.618 46.618 0 01-3.761-.781 15.5 15.5 0 01-.941-.265c-.183-.057-.355-.103-.516-.16-.091-.035-.183-.058-.275-.093-1.25-.437-2.064-.92-2.167-1.437-.092-.472.137-1.587.562-3.094.08-.276.16-.563.252-.862.046-.138.08-.276.126-.426.012-.057.035-.103.058-.16l.022-.07c.012-.046.035-.103.046-.15 0-.01.012-.022.012-.034.103-.322.206-.644.321-.989.16-.483.321-.977.504-1.495.23-.667.47-1.368.723-2.07.069-.207.149-.414.218-.62.263-.737.539-1.484.814-2.232.711-1.92 1.445-3.852 2.133-5.623.206-.53.401-1.047.607-1.541.138-.345.264-.679.39-1.012.379-.955.642-1.863.883-2.691.367-1.23.7-2.266 1.307-2.91.356-.38.791-.632 1.399-.713.035 0 .069-.011.103-.011a3.56 3.56 0 01.367-.023z" fill="#2b94f4"/><path d="M225.435 95.737l-2.007-6.623-.034-.104s-.23-.023-.631-.058a28.47 28.47 0 00-.849-.068c-.527-.047-1.192-.104-1.937-.162h-.069c-.035 0-.069 0-.103-.011l-.436-.035c-.069 0-.138-.011-.207-.011l-.47-.035a202.51 202.51 0 00-3.726-.218c-.321-.011-.654-.035-.987-.046-.114 0-.229-.011-.344-.011a82.074 82.074 0 00-2.396-.07 147.273 147.273 0 00-3.188 0c-.08 0-.16 0-.241.012a57.7 57.7 0 00-1.49.058c-.918.045-1.766.126-2.523.23a21.39 21.39 0 00-1.273.23c-.871.207-1.525.483-1.857.839-.723.782-1.25 3.278-1.629 6.44h26.511z" fill="#2b94f4"/><path d="M218.027 76.073s-1.135.402-2.029 2.23c-.895 1.818-1.262 6.728-1.709 6.774s-3.807-.61-3.807-.61l.08.84s3.498 2.334 4.232 1.92c.734-.425 2.752-6.083 2.878-6.945s.355-4.21.355-4.21z" fill="#ffb27d"/><path d="M225.847 75.44s-4.552-.966-7.82.632c0 0-2.098 4.52-2.029 5.29.068.77.791 3.968.137 5.164-.665 1.207 6.055 3.346 7.27 2.599 1.204-.736 2.637-12.857 2.442-13.685z" fill="#fff"/><path d="M209.507 93.725c-.309.713-.71 1.53-1.169 2.392h-6.192c.711-3.714 1.341-6.302 1.663-7.52.137-.518.206-.794.206-.794.298-.53.665-.828 1.055-.943.837-.242 1.812.322 2.683 1.138.103.092.206.196.298.3.333.344.642.712.906 1.08.619.84 1.055 1.668 1.112 2.082.081.506-.149 1.3-.562 2.265z" fill="#0c476f"/><path d="M205.035 86.882s1.388-.805 4.564-.115c3.165.69 5.756 2.335 5.756 2.335l-8.072.334z" fill="#0c476f"/><path d="M224.586 75.428s2.018-.367 2.305 1.277c.275 1.645.034 11.604-1.514 12.11s-7.889-2.3-7.889-2.3l.195-1.059s6.066.828 6.295.736c.195-.091.608-10.763.608-10.763z" fill="#ffb27d"/><path d="M208.969 82.938l-.287-2.656 3.749 4.945s-1.57.782-1.662.632l-1.8-2.921z" fill="#0c476f"/><path d="M214.576 82.938l3.451 5.29h-5.802l-3.256-5.29z" fill="#ffbe55"/><path d="M208.969 82.938l-.276-2.634 1.961 2.45zm8.886 5.025l.264-.195-3.44-5.118-.103.288z" fill="#fff"/><path d="M214.679 82.65l-5.47.15-.24.138h5.607z" fill="#fff"/><path d="M216.514 96.117h-6.192a156.08 156.08 0 01-2.179-6.704c-.149-.518-.264-.898-.321-1.105a1.351 1.351 0 01-.057-.218v-.092c.011-.69.24-1.15.63-1.426.023-.012.046-.035.058-.046.63-.414 1.605-.403 2.625-.173.906.207 1.835.575 2.557.966.585.31 1.032.633 1.216.863.011.011.023.034.046.057l.103.173c.092.172.183.39.275.644 0 .011.012.023.012.034s0 .012.011.023c.344 1.047.665 2.703.929 4.6.092.77.195 1.576.287 2.404z" fill="#10538c"/><path d="M208.441 86.526s2.397-2.162 12.178 2.484l-8.027.127z" fill="#10538c"/><path d="M217.672 85.456s-.895-.598-1.216-.644c-.39-.057-.802-.54-.757-.264.046.276.471.632.585.747.115.115-.665.092-.986-.057-.149-.07-.94-.276-.929.011 0 .173.31.99 1.09 1.162.355.08 2.087.126 2.087.126z" fill="#ffb27d"/><path d="M221.731 70.805s1.697.932.39 2.795c0 0 1.479.218 1.857-.207 0 0-.057.184-.126.276 0 0 1.434-.15 1.973-.679.527-.529-.872-7.82-4.725-6.451 0 0-3.405.218-2.545 4.082s-.413 4.037-.413 4.037.378.126.55.103c0 0 .241-.126.264-.276 0 0-.023.219-.069.3 0 0 1.388-.058 2.007-.68.585-.597 1.147-2.518.837-3.3z" fill="#0c476f"/><path d="M222.327 72.75s.929-1.312 1.193-2.45c.195-.817 1.215-4.175-1.869-3.899 0 0-2.179.322-3.05.84-.688.414-1.698 1.334-.769 4.06l.23.92z" fill="#0c476f"/><path d="M220.344 76.67c.229.173 1.238.38 2.041-.022.756-.38 1.1-1.196.986-1.518-.115-.334-.47-.449-.849-2.461l-.149.057-2.477 1.012s.218.805.367 1.564c.126.656-.057 1.277.081 1.369z" fill="#ffb27d"/><path d="M219.896 73.738s.218.805.367 1.564c1.434-.322 1.938-1.794 2.11-2.587z" fill="#ed975d"/><path d="M219.552 74.566s3.429-.61 3.016-2.749-.252-3.645-2.454-3.346c-2.201.299-2.465 1.196-2.511 1.943-.023.748 1.055 4.255 1.949 4.152z" fill="#ffb27d"/><path d="M218.635 67.965s1.686 2.852 3.348 3.036c1.663.195 2.041-.54 2.041-.54s-1.364-.806-1.857-2.485c0 .012-2.924-1.449-3.532-.011z" fill="#0c476f"/><path d="M218.922 68.16s-.7.737-.803 1.37-.023 1.897-.39 1.908c0 0-1.055-1.794-.31-2.99.78-1.288 1.503-.287 1.503-.287z" fill="#0c476f"/><path d="M218.795 68.276s1.147 2.829 3.303 3.484c0 0-2.271-1.518-2.718-3.427-.435-1.92-.585-.057-.585-.057z" fill="#0c476f"/><path d="M225.813 72.99c-.527.53-1.972.679-1.972.679.069-.092.126-.276.126-.276-.757.575-2.546.092-2.546.092 1.457-.276 1.044-2.38.551-2.484-.241-1.587-.757-3.565-.998-4.45.069-.012.103-.012.103-.012 3.865-1.369 5.264 5.922 4.736 6.451z" fill="#0c476f"/><path d="M223.921 75.256s2.225.035 2.809.518c.585.483.86 7.371.86 7.371s-1.055-.287-2.006-.069c-.952.219-2.19 0-2.19 0zm-3.761.127s-2.809.563-3.451 1.31c-.643.748-1.927 4.509-1.927 4.509s.493.08.757.425c.252.345 1.089.184 1.089.184z" fill="#fff"/><path d="M215.046 96.117c.378-.84.78-1.645 1.158-2.404.768-1.506 1.502-2.828 2.121-3.806.207-.333.402-.621.574-.862.08-.115.149-.219.218-.311.022-.023.034-.046.057-.08.011-.012.023-.023.034-.046a.265.265 0 01.081-.081c.011-.023.034-.035.045-.058l.035-.034a3.337 3.337 0 011.181-.69c.504-.172 1.089-.276 1.708-.322a12.955 12.955 0 011.881.035c.654.057 1.307.149 1.938.264.218.035.436.08.642.127h.011c.86.172 1.652.379 2.282.551v7.705h-13.966z" fill="#137cbc"/><path d="M219.621 96.117c.069-.184.138-.38.195-.564a70.17 70.17 0 011.399-3.576c.47-1.116.894-2.001 1.192-2.542.035-.046.058-.103.092-.15a2.68 2.68 0 01.264-.344 2.42 2.42 0 01.401-.357c.23-.172.482-.31.769-.414.607-.241 1.33-.345 2.121-.345.218 0 .447.012.676.023h.012a14.483 14.483 0 011.376.161c.011 0 .034 0 .046.012.286.046.573.103.86.16v7.936z" fill="#137cbc"/><path d="M231.409 96.106h-.723V51.21h-35.317v44.896h-.722a3.27 3.27 0 00-3.268 3.277v.115h43.286v-.115a3.261 3.261 0 00-3.256-3.277zm-34.4-43.252h32.026v7.935h-32.026zm0 9.798h32.026v33.454h-32.026z" fill="#e5a13e"/><path d="M228.565 53.567h-30.971v1.564h30.971zm0 2.45h-30.971v1.564h30.971zm0 2.449h-30.971v1.564h30.971zm0 2.3h-30.971v1.564h30.971zm0 2.588h-30.971v1.564h30.971z" fill="#fff"/><path d="M199.325 52.831h-.298v13.352h.298zm27.979 0h-.298v13.352h.298z" fill="#fff"/><path d="M230.583 130.1h-33.677v44.896h33.677z" fill="#cce9ff"/><path d="M214.404 130.916s.08 13.271-13.336 24.484c0 0 2.798 14.616 2.397 18.768h-6.445v-43.24h17.384z" fill="#fff"/><path d="M215.573 153.513s-1.399.15-2.213 1.541c-.814 1.38-2.408 7.383-3.566 8.602s-5.24 3.669-5.24 3.669l1.032.678s6.226-1.897 7.132-3.001 2.202-7.004 2.202-7.004z" fill="#ffb27d"/><path d="M216.949 145.072s.081-1.978 2.913-2.093c2.832-.126 4.873 2.277 4.965 3.588s-.482 3.347 1.376 4.704.94 7.647-3.452 7.647c-4.391 0-7.006-.253-7.029-2.53-.011-2.277-.091-4.335 1.652-4.968 1.754-.644-.425-6.348-.425-6.348z" fill="#0c476f"/><path d="M221.742 170.361s-.011.023-.011.057c0 .012-.012.035-.012.046-.011.035-.022.092-.045.15 0 .011-.012.034-.012.046-.011.046-.034.103-.046.172l-.034.115c-.103.334-.229.782-.401 1.334-.035.138-.081.288-.127.449l-.068.23c-.012.023-.012.057-.023.08-.012.058-.035.104-.046.161-.023.058-.035.127-.058.196-.045.149-.091.299-.126.46-.103.368-.206.747-.321 1.15h-6.639c.012-.414.034-.817.057-1.185 0-.092.012-.172.012-.253.034-.414.057-.805.092-1.15.011-.092.011-.184.023-.264.022-.173.034-.345.057-.495 0-.034.011-.057.011-.08 0-.035.012-.058.012-.081.023-.161.034-.322.057-.46.012-.046.012-.092.023-.138.012-.046.012-.08.023-.126.011-.035.011-.081.023-.115.011-.035.011-.069.023-.104 0-.023 0-.034.011-.046.012-.046.012-.092.023-.138 0-.023.012-.057.012-.08s.011-.046.011-.069a.774.774 0 01.08-.242c.012-.023.023-.034.035-.057a.152.152 0 01.034-.046.299.299 0 01.081-.092l.045-.046.046-.046.035-.035c.023-.023.046-.034.068-.046.012-.011.035-.023.046-.034.035-.023.069-.035.104-.058.022-.011.034-.023.057-.023l.069-.034c.023-.012.046-.012.068-.023.023-.012.046-.012.069-.023.081-.023.161-.046.241-.058.023 0 .034-.011.057-.011.035-.012.058-.012.092-.023.046 0 .08-.012.126-.023.035 0 .058-.012.092-.012.023 0 .046 0 .069-.011.034 0 .08-.012.126-.012s.103 0 .149-.011c.229-.012.482 0 .734.011.057 0 .115.012.172.012.092.011.195.011.298.023.138.011.287.034.436.057h.046l.206.035.608.103c.08.012.16.035.241.046l.217.046c.207.046.413.092.608.138.069.023.149.035.218.058.023 0 .034.011.057.011.035.012.069.012.104.023.057.012.103.023.149.035.08.023.16.046.24.057.035.012.058.012.092.023.046.012.103.023.149.035.126.034.252.069.367.103.057.012.103.035.149.046.046.012.08.023.115.035h.023c.034.011.069.023.092.023.034.011.057.023.08.023a.836.836 0 01.092.034c.022.012.034.012.057.023.023 0 .034.012.057.023.046.069.103.081.103.081z" fill="#1c468a"/><path d="M221.742 170.361s-.011.023-.011.057c0 .012-.012.035-.012.046-.011.035-.022.092-.045.15 0 .011-.012.034-.012.046-.011.046-.034.103-.046.172l-.034.115c-.103.334-.229.782-.401 1.334-.035.138-.081.288-.127.449l-.068.23c-.012.023-.012.057-.023.08-.012.058-.035.104-.046.161-.023.058-.035.127-.058.196-.045.149-.091.299-.126.46-.103.368-.206.747-.321 1.15h-6.639c.012-.414.034-.817.057-1.185 0-.092.012-.172.012-.253.034-.414.057-.805.092-1.15.011-.092.011-.184.023-.264.022-.173.034-.345.057-.495 0-.034.011-.057.011-.08 0-.035.012-.058.012-.081.023-.161.034-.322.057-.46.012-.046.012-.092.023-.138.012-.046.012-.08.023-.126.011-.035.011-.081.023-.115.011-.035.011-.069.023-.104 0-.023 0-.034.011-.046.012-.046.012-.092.023-.138 0-.023.012-.057.012-.08s.011-.046.011-.069a.774.774 0 01.08-.242c.012-.023.023-.034.035-.057a.152.152 0 01.034-.046.299.299 0 01.081-.092l.045-.046.046-.046.035-.035c.023-.023.046-.034.068-.046.012-.011.035-.023.046-.034.035-.023.069-.035.104-.058.022-.011.034-.023.057-.023l.069-.034c.023-.012.046-.012.068-.023.023-.012.046-.012.069-.023.081-.023.161-.046.241-.058.023 0 .034-.011.057-.011.035-.012.058-.012.092-.023.046 0 .08-.012.126-.023.035 0 .058-.012.092-.012.023 0 .046 0 .069-.011.034 0 .08-.012.126-.012s.103 0 .149-.011c.229-.012.482 0 .734.011.057 0 .115.012.172.012.092.011.195.011.298.023.138.011.287.034.436.057h.046l.206.035.608.103c.08.012.16.035.241.046l.217.046c.207.046.413.092.608.138.069.023.149.035.218.058.023 0 .034.011.057.011.035.012.069.012.104.023.057.012.103.023.149.035.08.023.16.046.24.057.035.012.058.012.092.023.046.012.103.023.149.035.126.034.252.069.367.103.057.012.103.035.149.046.046.012.08.023.115.035h.023c.034.011.069.023.092.023.034.011.057.023.08.023a.836.836 0 01.092.034c.022.012.034.012.057.023.023 0 .034.012.057.023.046.069.103.081.103.081z" fill="#163560"/><path d="M225.01 174.995h-6.559c-.16-.92-.321-1.782-.458-2.518-.23-1.265-.424-2.22-.505-2.645a3.65 3.65 0 01-.046-.253s.058-.069.172-.196c.677-.77 3.245-3.496 4.484-2.242.206.207.413.425.631.655.733.805 1.502 1.817 1.96 3.255.333 1.069.482 2.357.321 3.944z" fill="#1c468a"/><path d="M216.949 154.445l1.113 1.667 2.236-.115 1.032-2.679s-.321-.058-.471-3.393l-2.786.851s.149.874-.046 1.817c-.149.667-.447 1.369-1.078 1.852z" fill="#ffb27d"/><path d="M216.64 153.261c.149 0 2.775-.886 6.524.655 0 0-1.777 10.224-1.02 12.167.768 1.955 1.055 3.68 1.055 3.68l-8.302.104s.114-6.693-.264-9.062c-.39-2.369 2.007-7.544 2.007-7.544z" fill="#ffb27d"/><path d="M224.827 170.844c-.138.299-.447.529-.837.713-.505.241-1.112.402-1.594.517-.378.092-.963.184-1.628.265-.356.046-.734.069-1.124.092-.057 0-.115.011-.161.011-2.499.127-5.297.069-5.664-1.127-.034-.115-.034-.345-.012-.644.046-.621.195-1.541.333-2.392.138-.828.264-1.598.298-1.989.195-2.116-.206-5.152-.275-7.119-.046-1.633 1.41-5.646 1.41-5.646s.276-.161 1.365-.311c0 0 .16 1.967 1.158 2.128 1.743.287 3.142-1.311 3.555-1.955 0 0 1.995.506 2.591 1.173.424.483.367 1.633.241 2.357-.034.23-.092.414-.126.529-.126.334-.596 2.737-.803 3.703 0 .023-.011.046-.011.069a2.257 2.257 0 01-.035.173.722.722 0 01-.034.115c0 .011-.012.034-.012.046-.309.989-.493 1.989-.389 3.231.011.15.045.322.091.518.264 1.426 1.422 4.243 1.663 5.543z" fill="#1d8cdd"/><path d="M218.016 152.593c1.158-.092 2.843-2.668 2.843-2.668l-2.786.851c-.011 0 .138.874-.057 1.817z" fill="#ed975d"/><path d="M216.926 153.203s-2.671.287-3.577 1.552c-.895 1.265-1.468 3.151-1.468 3.151s.642 1.921 2.511 1.679c1.869-.241 2.534-6.382 2.534-6.382z" fill="#1d8cdd"/><path d="M217.603 151.535s3.406-.103 3.314-2.231c-.092-2.127.275-3.576-1.904-3.599-2.178-.023-2.568.805-2.706 1.529-.149.725.402 4.278 1.296 4.301z" fill="#ffb27d"/><path d="M217.855 145.44s.103.702 1.445 1.633c1.342.932 1.571 3.071 1.571 3.071s1.02-3.818-.195-4.681c-1.215-.862-2.821-.023-2.821-.023z" fill="#0c476f"/><path d="M218.956 144.233s-1.743-.161-2.981 1.794c-.528.839-.115 2.162.435 2.852 0 0 .184-1.806 1.136-2.404.951-.598 1.41-2.242 1.41-2.242z" fill="#0c476f"/><path d="M218.383 150.293s-.035.265-.665.299c0 0-.539.024-.551-.252-.011 0 .482-.265 1.216-.047z" fill="#fff"/><path d="M207.317 164.462s-.894-1.047-.057-1.714c0 0 .619-.379 1.112-.345 0 0-.711 1.196-.481 1.311.229.115.699-1.391.699-1.391s1.399-.138 1.846.08c0 0-1.192.978-.94 1.047.252.057 1.548-.909 1.548-.909s1.307.219 1.238 1.024c-.068.805-.516 1.046-.711 1.023-.194-.023-1.353-.46-1.376-.299-.022.161.666.69 1.159.713 0 0-.918 1.012-1.525.725-.608-.299-.666-.759-1.044-.932-.378-.172-.711-.172-.55 0 .16.173.848.345 1.066.736s.413.644-.218.552c-.63-.092-1.662-.563-1.708-1.092l-.058-.529z" fill="#10538c"/><path d="M211.64 163.576s-3.543-.138-4.323.874c0 0-.172.518-.699.989l-.08.23s.619-.644.837-.69c-.012.012-.356-1.253 4.265-1.403z" fill="#10538c"/><path d="M206.606 165.451s-.756.563-.814 1.575l.138.012s.241-1.047.676-1.449c.448-.414 0-.138 0-.138zm-2.431-2.312s1.434-.805.757-1.886c0 0-.539-.667-1.101-.84 0 0 .31 1.622 0 1.668-.309.034-.206-1.829-.206-1.829s-1.502-.724-2.098-.667c0 0 .928 1.587.63 1.553-.309-.035-1.353-1.645-1.353-1.645s-1.548-.287-1.789.633c-.252.92.15 1.38.379 1.437.229.058 1.697.035 1.663.23-.035.196-1.032.495-1.583.322 0 0 .608 1.507 1.411 1.438.802-.081 1.043-.575 1.548-.61.493-.034.86.092.607.23-.252.138-1.089.046-1.49.38-.402.345-.723.552.023.701.745.15 2.075.058 2.339-.517l.263-.598z" fill="#10538c"/><path d="M199.715 160.379s4.002 1.299 4.46 2.748c0 0-.022.644.379 1.392v.287s-.424-.977-.642-1.104c0 .012.894-1.253-4.197-3.323z" fill="#10538c"/><path d="M204.554 164.531s.619.943.264 2.081l-.161-.046s.149-1.265-.172-1.897c-.31-.621.069-.138.069-.138zm1.892-2.507s-1.881-1.058-1.009-2.496c0 0 .699-.885 1.456-1.104 0 0-.401 2.139 0 2.185s.275-2.415.275-2.415 1.984-.954 2.764-.885c0 0-1.227 2.093-.826 2.035.401-.046 1.777-2.162 1.777-2.162s2.03-.379 2.363.828c.321 1.208-.207 1.817-.505 1.886-.298.081-2.236.046-2.179.299.046.253 1.353.656 2.087.426 0 0-.802 1.989-1.857 1.886-1.055-.104-1.376-.759-2.03-.805-.653-.046-1.135.126-.803.299.322.172 1.434.057 1.961.506.528.448.952.724-.023.931-.974.207-2.74.081-3.084-.678l-.367-.736z" fill="#10538c"/><path d="M212.328 158.401s-5.274 1.714-5.871 3.623c0 0 .023.851-.504 1.84v.379s.55-1.288.848-1.46c0 0-1.181-1.656 5.527-4.382z" fill="#10538c"/><path d="M205.941 163.864s-.814 1.242-.344 2.748l.207-.057s-.207-1.656.218-2.496c.435-.828-.081-.195-.081-.195z" fill="#10538c"/><path d="M210.069 166.187a3.695 3.695 0 01-4.907 3.496 3.697 3.697 0 01-2.477-3.496z" fill="#10538c"/><path d="M206.389 169.878c-.15.023.607 0 .447 0a3.696 3.696 0 01-3.693-3.703h.918c0 1.898.504 3.485 2.328 3.703z" fill="#10538c"/><path d="M210.127 170.074h-7.477c0-.127.046-.242.138-.322a.457.457 0 01.321-.138h6.57c.241 0 .448.207.448.46zm.023-3.887h-7.58v.115h7.58z" fill="#10538c"/><path d="M210.31 167.566c-.08-.195-.883-.391-1.204-.529 0 0-.206.15.069.391.069.069.206.161.332.253l-.114-.034c-.287-.081-2.133.552-2.351.966s1.055 1.437 2.018 1.115c.493-.161 2.087-.46 2.087-.46l-.264-1.299s-.493-.207-.573-.403zm14.23-12.178s.379 2.645-2.362 6.555c-2.74 3.91-2.58 4.163-4.162 5.198-1.571 1.035-6.869 2.127-6.869 2.127l-.264-1.299s5.138-3.312 5.619-3.968c.482-.655 3.784-8.004 3.784-8.004z" fill="#ffb27d"/><path d="M221.903 154.411s-2.19 1.725-2.775 2.564c-.585.84-1.112 2.726-1.112 2.726s2.293 1.437 6.249.402c0 0 1.055-4.899-.023-5.543-1.078-.632-2.075-.149-2.075-.149z" fill="#1d8cdd"/><path d="M215.275 130.916s2.454 10.868 13.76 14.709c0 0-.103 16.744-1.387 21.148-1.285 4.405-1.594 7.395-1.594 7.395h2.981v-43.24h-13.76z" fill="#fff"/><path d="M231.409 174.156h-.723V129.26h-35.317v44.896h-.722a3.271 3.271 0 00-3.268 3.278v.115h43.286v-.115c0-1.806-1.456-3.278-3.256-3.278zm-34.4-43.24h32.026v7.935h-32.026zm0 9.787h32.026v33.453h-32.026z" fill="#e5a13e"/><path d="M248.792 188.025H122.269v17.365h126.523z" fill="#ffcc83"/><path d="M152.323 205.493s-2.339-8.452-12.086-11.281c-9.746-2.829-9.116-1.415-17.911-6.463-8.795-5.037-22.623-1.886-25.456 2.208s-9.425 6.302-18.541 6.141-9.575 8.74-9.575 8.74z" fill="#0d4871"/><path d="M315.23 205.655H28.77a.358.358 0 01-.356-.357v-.184c0-.195.16-.356.356-.356h286.449c.195 0 .355.161.355.356v.184c0 .196-.16.357-.344.357z" fill="#2995f5"/><path d="M176.231 130.1h-33.677v44.896h33.677z" fill="#fff" opacity=".5"/><path d="M175.406 130.927h-32.027v43.24h32.027z" fill="#cce9ff"/><path d="M156.44 169.004s-1.846 2.53-1.846 5.163h12.533s-.677-4.094-3.532-5.163c-2.855-1.058-7.155 0-7.155 0z" fill="#0c476f"/><path d="M171.782 155.399s-1.972 5.026-2.19 5.21c-.596.483-4.231-5.095-4.793-6.072-.562-.978-4.013-.138-4.312-1.955-.091-.552-.275-1.162-.275-1.553v-.138c0-.356.023-.736.081-1.138l-.172.011-2.902.23s.287.702.195 1.553c-.034.276-.045.793-.08 1.299a1.352 1.352 0 01-.963 1.208c-1.238.368-2.786.92-3.05 1.61-.528 1.345-1.697 7.44-1.927 9.51-.229 2.07-2.316 8.119-2.316 8.119h1.044s3.921-6.612 4.254-7.636c.103-.322.481-1.575.94-3.185.436 1.736 1.055 3.473 1.193 4.186.24 1.23-2.03 5.221-1.801 6.325.23 1.104 12.201 1.702 12.04 0-.16-1.702-1.846-4.589-2.19-5.934-.252-1.012.333-4.405.516-6.417 1.835 2.093 4.323 4.048 5.08 3.645 1.961-1.023 2.58-8.625 2.58-8.625z" fill="#ffb27d"/><path d="M158.148 148.166s-1.559 1.242-.241 3.048c0 0-1.525-.058-1.914-.46 0 0 .068.184.137.264 0 0-1.41-.115-1.938-.632-.527-.506.7-7.682 4.518-6.417 0 0 3.337.149 2.58 3.956-.768 3.806.482 3.956.482 3.956s-.367.126-.539.115c0 0-.23-.127-.264-.265 0 0 .023.219.08.299 0 0-1.364-.034-1.972-.621-.642-.598-1.215-2.472-.929-3.243z" fill="#0c476f"/><path d="M156.772 149.741s-.676-1.414-.745-2.564c-.046-.817.711-3.749 3.658-2.967 0 0 .86.184 1.605.839.596.518 1.422 1.576.069 4.048l-.378.851z" fill="#0c476f"/><path d="M160.476 152.582c-2.098-.31-3.279-2.518-3.279-2.518.86-.092 2.041.345 3.004.816v.138c0 .391.137 1.012.275 1.564z" fill="#ed975d"/><path d="M160.499 151.742s-3.761-.391-3.486-2.737-.023-3.979 2.385-3.829c2.408.149 2.775 1.092 2.867 1.909.114.805-.78 4.692-1.766 4.657z" fill="#ffb27d"/><path d="M161.13 145.326s-1.353 2.633-2.982 2.84c-1.628.219-2.259-.287-2.259-.287s1.33-.817 1.778-2.473c0 .012 2.843-1.483 3.463-.08z" fill="#0c476f"/><path d="M160.843 145.521s.699.701.814 1.322.057 1.863.413 1.863c0 0 .997-1.782.252-2.944-.791-1.23-1.479-.241-1.479-.241z" fill="#0c476f"/><path d="M160.981 145.625s-1.078 2.794-3.177 3.473c0 0 2.202-1.53 2.592-3.416.401-1.874.585-.057.585-.057z" fill="#0c476f"/><path d="M159.731 150.363s.091.333.321.391c.229.057.837.115.883.069.057-.046.229-.345.229-.345s-.952-.219-1.433-.115z" fill="#fff"/><path d="M171.736 155.676s-.069-1.794.126-2.404c.195-.609.608-1.61.7-1.564s.275 1.38.195 1.679.08 1.012.195.874c.114-.138.309-1.092.458-1.035.161.058.012.633.081.782.068.15.068.529-.23 1.024-.298.494-.596 1.058-.596 1.058zm-22.44 17.595s-1.514-.368-2.007-.196c-.493.173-1.399 1.058-1.169 1.07.229.011 1.273-.265 1.422-.23.149.034.573.092.573.092s-.619.034-.585.149c.035.115 1.594.127 1.777 0 .184-.126.815-.897.815-.897h-.826z" fill="#ffb27d"/><path d="M154.743 154.595s1.903 1.633 4.311 1.506c2.42-.126 4.323-2.116 4.323-2.116s1.101.012 1.674.621c.574.621 2.775 3.381 2.775 3.381s.195 2.082-2.282 3.531l-.252-.449s-.413 5.175-.161 5.658c.264.483 2.317 5.578 1.973 6.36-.333.782-11.57 2.702-12.419-.127-.848-2.829 1.273-5.278 1.181-6.29-.091-1.012-.573-4.221-.573-4.221s-3.245-.494-3.36-2.449c.023.011.597-5.44 2.81-5.405z" fill="#fff"/><path d="M177.791 174.156h-.723V129.26h-35.317v44.896h-.722a3.271 3.271 0 00-3.268 3.278v.115h43.298v-.115a3.279 3.279 0 00-3.268-3.278zm-34.389-43.24h32.027v7.935h-32.027zm0 9.787h32.027v33.453h-32.027z" fill="#e5a13e"/><path d="M174.947 131.629h-30.972v1.564h30.972zm0 2.45h-30.972v1.564h30.972zm0 2.449h-30.972v1.564h30.972zm0 2.3h-30.972v1.564h30.972zm0 2.588h-30.972v1.564h30.972z" fill="#fff"/><path d="M145.718 130.893h-.298v13.352h.298zm27.968 0h-.299v13.352h.299z" fill="#fff"/><path d="M166.817 172.902h-4.564v-1.61h4.576c.355 0 .642.288.642.644v.311a.64.64 0 01-.654.655z" fill="#fcecdb"/><path d="M171.369 171.959v.242a.75.75 0 01-.091.356.715.715 0 01-.608.357h-8.543a.103.103 0 01-.103-.104v-.034c0-.058.046-.104.103-.104h5.206c.023-.034.057-.069.069-.115a.688.688 0 00.08-.31v-.311a.658.658 0 00-.149-.402h-5.217a.102.102 0 01-.103-.104v-.034c0-.058.045-.104.103-.104h8.588c.298 0 .562.207.642.483a.865.865 0 01.023.184z" fill="#699dee"/><path d="M171.346 171.775h-3.887a.612.612 0 00-.126-.241h-5.217a.102.102 0 01-.103-.104v-.034c0-.058.045-.104.103-.104h8.588c.298 0 .562.207.642.483z" fill="#548ee2"/><path d="M162.265 172.097l.63.035-.63.011zm0 .254l1.502.034-1.502.012z" fill="#f4d2b8"/><path d="M163.239 174.156h4.851v-1.253h-4.896a.612.612 0 00-.608.609c0 .357.287.644.653.644z" fill="#0c476f"/><path d="M167.815 174.156h5.527v-1.253h-5.539a.617.617 0 00-.619.621c0 .356.275.632.631.632z" fill="#fcecdb"/><path d="M166.806 174.156h6.719a.091.091 0 00.092-.092.091.091 0 00-.092-.092h-6.719a.09.09 0 00-.092.092.09.09 0 00.092.092zm0-1.069h6.719a.091.091 0 00.092-.092.09.09 0 00-.092-.092h-6.719a.09.09 0 00-.092.092c0 .057.046.092.092.092z" fill="#0c476f"/><path d="M173.33 173.535l-.745.012.745.023zm0-.287l-1.777.011 1.777.012z" fill="#f4d2b8"/><path d="M171.576 173.259s.08.058.103.138c0 .012.011.035.011.046v.38l.23-.138.229.138v-.357a.322.322 0 00-.057-.184c-.023-.023-.035-.034-.058-.034h-.458z" fill="#699dee"/><path d="M171.576 173.259s.08.058.103.138h.447s-.023-.126-.115-.149h-.435z" fill="#568cdb"/><path d="M175.532 52.05h-33.678v44.895h33.678z" fill="#cce9ff"/><path d="M158.045 52.854s-.08 13.271 13.336 24.483c0 0-2.798 14.617-2.397 18.769h6.445v-43.24h-17.384z" fill="#fff"/><path d="M146.028 78.028s-2.809.402-3.532 1.035c-1.227 1.07-.321 17.4-.321 17.4s4.22.344 4.22 0c0-.357-.367-18.435-.367-18.435z" fill="#d39e7a"/><path d="M157.036 96.485l-6.031.449-4.209.31-.883.069-.057-.38-.046-.333-.011-.069-.207-1.472-.08-.586-.264-1.794-1.318-9.177-.367-2.565s-.276-2.415 1.96-2.806c.161-.034.333-.057.516-.092h.012a56.01 56.01 0 012.477-.402c.699-.092 1.399-.15 2.018-.138.264 0 .516.023.745.057.298.046.562.115.78.219l.069.034c.091.046.16.092.241.15a.273.273 0 01.08.08c.08.08.16.242.264.472.103.253.229.598.355 1.012.183.575.378 1.276.596 2.081.597 2.243 1.273 5.187 1.869 7.878.023.08.035.16.058.241.08.345.149.69.229 1.024 0 .011.011.034.011.046.012.057.023.126.035.184l.103.494c.069.322.138.633.206.932.436 2.035.757 3.588.838 3.99.011.058.011.092.011.092z" fill="#efcbab"/><path d="M153.218 79.454s.951 1.414 1.502 4.393c.481 2.61.894 3.565 1.582 4.105.688.53 4.518 2.116 4.518 2.116l-.287.679s-5.618-.77-6.249-1.714-3.039-6.509-2.855-7.785c.195-1.288 1.789-1.794 1.789-1.794z" fill="#f4a269"/><path d="M166.095 96.933h-4.644c-.115-.46-.287-.759-.62-.77-.298-.012-1.892.15-3.829.218-3.073.104-6.984-.046-7.855-1.598a5.328 5.328 0 01-.47-1.104.812.812 0 01-.046-.161 5.367 5.367 0 01-.172-1.863c.023-.322.069-.621.126-.874.138-.644.321-1.047.321-1.047l1.514 1.116.172.126s1.295-.092 3.096-.172c.401-.012.814-.035 1.25-.046.217-.012.435-.012.665-.012h.218c.538-.011 1.1-.011 1.651-.011h.55c2.133.023 4.174.16 5.195.552.149.057.275.115.378.184 0 0 .011 0 .011.011.734.46 1.64 2.737 2.489 5.451z" fill="#10538c"/><path d="M161.841 96.933h-10.836l-4.209.311a3.123 3.123 0 01-.55-.31 2.85 2.85 0 01-.39-.334c-.023-.023-.046-.046-.057-.069a1.303 1.303 0 01-.172-.265c-.207-.414-.287-.805-.264-1.184a1.92 1.92 0 01.138-.621c.172-.471.481-.897.837-1.276.905-.944 2.121-1.53 2.121-1.53h.011c.127.011 1.388.069 3.051.207.16.011.321.023.493.046 1.307.115 2.797.276 4.162.494 1.766.277 3.325.633 4.002 1.105.527.356 1.101 1.678 1.663 3.426z" fill="#1d8cdd"/><path d="M153 74.302v-.024c0-.183-.012-.367-.023-.551a12.368 12.368 0 00-.207-1.565 8.864 8.864 0 00-.195-.759l-.034-.103c-.172-.529-.39-.92-.631-1.07-.435-.287-.963-.345-1.341-.356.103-.092.298-.115.298-.115-.229-.046-.768.15-.768.15-3.154-1.473-3.979 3.277-3.991 4.392-.011 1.116-.08 2.393-1.766 3.29-.642.345-1.077.747-1.341 1.196-1.112 1.828.481 4.162.481 4.162.012 0 .184.23.425.564l1.777 2.357c0-.206.172-.597.47-1.103.218-.38.505-.805.837-1.265.161-.219.321-.449.505-.667.229-.3.481-.61.734-.909.103-.115.195-.23.298-.345.447-.517.917-1.012 1.387-1.449.103-.103.218-.196.321-.287a7.753 7.753 0 011.113-.851c.011-.012.022-.012.034-.023.034-.023.057-.035.092-.058a2.49 2.49 0 00.263-.414c.035-.057.058-.115.092-.172.08-.173.149-.345.218-.518.183-.529.287-1 .31-1.081-.069.449-.149.817-.23 1.116a4.87 4.87 0 01-.172.506c-.046.103-.08.195-.126.264-.023.035-.034.069-.057.103.023-.022.046-.045.069-.057a2.509 2.509 0 00.504-.667c.505-.966.688-2.346.654-3.692z" fill="#0c476f"/><path d="M151.417 78.223c-.057-.023-.114-.046-.183-.069 0-.15.011-.299.023-.448.046-.713.149-1.46.149-1.46l-2.362-.633-.138-.035c-.069 1.047-.275 1.76-.459 2.243-.24.011-.401.023-.401.023-.034.138 0 .368.126.61a.256.256 0 00-.034.114c-.149.667 1.513 1.599 2.293 1.633.447.023.688-.16.814-.39.941-.254.872-1.3.172-1.588z" fill="#ffb27d"/><path d="M151.406 76.234s-.103.747-.149 1.46c-1.342-.126-1.961-1.403-2.213-2.104z" fill="#f4a269"/><path d="M148.814 75.314s-.63-1.162-.733-2.128c-.081-.69.435-3.185 2.935-2.656 0 0 .734.126 1.387.632.528.403 1.262 1.265.23 3.404l-.275.725z" fill="#0c476f"/><path d="M151.819 76.935s-3.177-.161-3.05-2.139c.126-1.978-.195-3.335 1.834-3.324 2.03.024 2.374.806 2.488 1.473.127.678-.447 3.979-1.272 3.99z" fill="#ffb27d"/><path d="M152.059 71.518s-1.02 2.266-2.373 2.519-1.915-.138-1.915-.138 1.078-.748 1.387-2.15c-.011 0 2.317-1.38 2.901-.23z" fill="#0c476f"/><path d="M151.83 71.702s.619.564.734 1.081c.126.518.126 1.564.436 1.541 0 0 .757-1.54.08-2.484-.711-1-1.25-.138-1.25-.138z" fill="#0c476f"/><path d="M154.995 91.138c-.252.31-1.055.402-1.915.54-.677.115-1.387.253-1.892.552-1.147.679-4.885 2.956-5.974 2.852-.424-.034-.344-.85-.092-1.932.401-1.702 1.25-4.07 1.25-5.106 0-.563.183-1.886.436-3.415.023-.127.046-.242.057-.368.493-2.956 1.17-6.44 1.17-6.44s.756 1.667 2.247 1.667c1.479 0 1.135-1.265 1.135-1.265s1.353.161 1.674.506c.322.345 1.136 1.84 1.296 2.243 0 0 .035.517-1.25.759 0 0 .31 1.403.344 2.346.023.69-.47 2.852-.619 4.209-.046.471-.057.85.023 1.023.103.219.424.437.78.644.734.414 1.628.817 1.33 1.185z" fill="#2b94f4"/><path d="M153.676 89.953c.826 1.403-2.224 1.829-2.729 2.116-1.146.678-4.644 3.116-5.745 3.013-.424-.034-.344-.851-.091-1.932.401-1.702 1.25-4.071 1.25-5.106 0-.563.183-1.886.435-3.415l1.319-1.265s1.41 3.668 2.763 4.266c.711.31 1.445.518 1.984.644-.046.472-.057.851.023 1.024.103.218.424.437.791.655z" fill="#1d8cdd"/><path d="M158.114 90.965h-4.151v.494h4.151z" fill="#0c476f"/><path d="M157.231 91.39c.046-.16 3.818-6.106 3.818-6.106h8.394l-4.208 5.945z" fill="#0c476f"/><path d="M157.586 91.46c.046-.162 3.83-6.176 3.83-6.176h8.038l-4.013 6.175z" fill="#2b478b"/><path d="M164.226 88.585c-.081.241-.344.437-.585.437s-.367-.196-.287-.438.344-.436.585-.436c.252 0 .378.195.287.437z" fill="#afcdfb"/><path d="M156.245 89.424c-.172-.069-1.514.173-1.892.242-1.216-.242-5.206-1.035-5.401-1.288-.229-.3-.734-9.304-1.307-9.453 0 0-1.124-.69-2.213.62-1.09 1.3.779 10.615 2.396 11.098 1.801.53 6.983-.08 6.983-.08.425.15 1.17.23 1.571.356.528.173.987.035 1.101-.172.092-.207-1.043-1.23-1.238-1.323z" fill="#ffb27d"/><path d="M148.046 77.832s-2.316.207-2.993.978c-.676.758-.871 2.828-.871 2.828s2.041 1.656 4.495 1.012z" fill="#2b94f4"/><path d="M157.162 52.854s-2.454 10.867-13.76 14.709c0 0 .103 16.743 1.388 21.148 1.272 4.404 1.593 7.394 1.593 7.394h-2.981v-43.24h13.76z" fill="#fff"/><path d="M137.772 99.371v.116h43.287v-.116a3.272 3.272 0 00-3.268-3.277h-.723V51.21h-35.317v44.895h-.722a3.259 3.259 0 00-3.257 3.266zm37.657-38.582h-32.027v-7.935h32.027zm0 35.316h-32.027V62.652h32.027z" fill="#e5a13e"/><path d="M169.982 92.84s1.135.46 1.949-.702c0 0-1.307-.218-1.949.702zm-.08-.483s-.081-.403-.562-.426c.011.012.183.426.562.426zm.24-2.381s.551.058.757-.552c0 0-.596.07-.757.552zm1.308-8.016c-1.113-.241-1.136-1.15-1.136-1.15 1.319.414 1.136 1.15 1.136 1.15zm.08-.206s.699.287 1.192-.426c0 0-.802-.138-1.192.426z" fill="#6bb7bf"/><path d="M170.005 95.52l-.149.16c-.023.023-.069.012-.069-.023.011-4.703.608-8.866 1.101-11.339.55-2.69 1.101-4.278 1.101-4.29 0 .012-.505 1.634-1.044 4.313-.504 2.461-1.078 5.693-.929 11.11.012.022 0 .045-.011.068z" fill="#6bb7bf"/><path d="M172 79.396c-.172.138-.86.748-.195 1.22 0 0 .505.16.677-.23a2.66 2.66 0 00.172-.771c0-.035-.023-.07-.058-.07a.344.344 0 01-.137-.034c-.058-.023-.092-.115-.184-.138-.057-.011-.103-.023-.172-.023a.145.145 0 00-.103.046z" fill="#1d8cdd"/><path d="M171.622 80.443s.206.16.126.425v.092s.057-.241.298-.31c0 0-.229.023-.424-.207z" fill="#6bb7bf"/><path d="M171.45 81.96c-1.113-.241-1.136-1.15-1.136-1.15s.883.483 1.136 1.15z" fill="#8ad8db"/><path d="M170.383 81.34s-.699.264-1.181-.449c0 0 .803-.126 1.181.449z" fill="#6bb7bf"/><path d="M171.633 95.128l.138.173c.023.023.057.011.068-.023.081-4.692-.424-8.878-.871-11.35-.493-2.703-1.009-4.302-1.021-4.313 0 .011.471 1.644.964 4.335.447 2.473.963 5.716.711 11.132-.012 0 0 .023.011.046z" fill="#6bb7bf"/><path d="M169.97 78.97c.172.15.837.771.172 1.231 0 0-.504.15-.665-.241-.126-.3-.149-.633-.16-.77 0-.035.023-.07.057-.07a.443.443 0 00.149-.034c.058-.023.092-.115.184-.138.057-.012.103-.023.172-.012.023-.011.057.012.091.035z" fill="#1d8cdd"/><path d="M170.326 80.029s-.207.16-.138.414v.092s-.046-.242-.298-.322c0 .011.229.034.436-.184zm.355.482s.734.127 1.067-.678c0 .011-.814.046-1.067.678z" fill="#6bb7bf"/><path d="M172.183 94.277l-.103.196c-.011.034-.057.022-.069-.012-1.009-4.588-1.341-8.786-1.387-11.305-.057-2.737.138-4.416.149-4.427 0 .011-.138 1.702-.08 4.439.046 2.518.195 5.785 1.513 11.052a.181.181 0 01-.023.057z" fill="#6bb7bf"/><path d="M170.624 78.108c-.138.184-.677.92.069 1.242 0 0 .527.046.608-.368a2.592 2.592 0 000-.793c0-.035-.035-.058-.081-.058-.034 0-.091.012-.149 0-.069-.011-.114-.092-.206-.092-.058 0-.115 0-.172.023-.023 0-.046.012-.069.046z" fill="#1d8cdd"/><path d="M170.486 79.212s.23.115.218.38l.023.092s0-.242.23-.368c-.012 0-.23.08-.471-.104zm.803.483s0-.586.505-.77c0 0 .114.483-.505.77z" fill="#6bb7bf"/><path d="M170.108 78.752s.011-.449-.401-.575c0 0-.104.414.401.575zm1.353 2.691c.012.012.218-.437-.195-.793 0 0-.172.471.195.793z" fill="#ed9f4a"/><path d="M171.748 81.409c-.012 0 0-.219.206-.254 0 0 .035.185-.206.254zm-2.11-.759s-.184-.368-.745-.31c-.012 0 .08.402.745.31z" fill="#6bb7bf"/><path d="M172.803 96.071h-3.67a.408.408 0 01-.401-.46l1.709-11.799a.22.22 0 01.217-.195h.551c.115 0 .218.092.241.207l1.743 11.799a.403.403 0 01-.39.448z" fill="#1d8cdd"/><path d="M169.947 95.715l.906-12.099c-.103.012-.172.093-.195.185l-1.708 11.798a.401.401 0 00.401.46h.734a.415.415 0 01-.138-.344z" fill="#ffb278"/><g fill="#2795f6"><path d="M270.212 122.9h-.768l.011-.057.23-2.059a.133.133 0 01.126-.115h.023c.045 0 .08.023.114.058.035.034.058.08.069.138z"/><path d="M269.513 122.44h-.023l.195-1.656a.133.133 0 01.126-.115h.023a.25.25 0 00.023.023.194.194 0 01.057.138l.011 1.185a.436.436 0 01-.412.425zm1.192 9.637h-1.491v65.78h1.491z"/><path d="M269.902 132.077h-.688v65.78h.688z"/><path d="M272.322 187.358h-4.736v17.399h4.736z"/><path d="M270.407 187.358h-2.821v17.399h2.821zm2.133-63.457c0 .816-1.216 1.472-2.718 1.472-.115 0-.229 0-.332-.012-1.342-.092-2.386-.713-2.386-1.46 0-.748 1.044-1.369 2.386-1.461.114-.011.217-.011.332-.011 1.502 0 2.718.655 2.718 1.472z"/><path d="M271.129 123.901c0 .655-.676 1.219-1.651 1.46-1.341-.092-2.385-.713-2.385-1.46 0-.748 1.044-1.369 2.385-1.461.975.242 1.651.805 1.651 1.461z"/><path d="M272.31 133.377h-4.724l-1.674-8.062h7.82z"/><path d="M274.157 124.706h-8.658v.77h8.658z"/><path d="M270.934 124.706h-5.435v.77h5.435zm-2.568 62.652h3.027l-.447-1.346a.286.286 0 00-.275-.195h-1.422a.406.406 0 00-.356.23zm-1.892-61.651h6.674l-1.308 7.245h-3.83zm.814-1.726s.505-1.115 1.514-1.081c0 0-.642.575-.585 1.081.057.518-.929 0-.929 0z"/><path d="M273.595 124.706h-7.545l.619-.874h6.341z"/><path d="M271.737 124.706h-5.687l.619-.874h4.483zm-4.816 1.253h1.525l.447 6.762h-.447z"/></g><path d="M254.186 21.081l-137.632 4.973.339 9.448 137.632-4.973zM179.751 40.71h-40.58v8.706h40.58zm53.55 0H192.72v8.706h40.581zm-53.55 76.509h-40.58v8.706h40.58zm53.55 0H192.72v8.706h40.581z" fill="#e5a13e"/></svg>