<svg fill="none" height="164" width="194" xmlns="http://www.w3.org/2000/svg"><path d="M32.796 55.509s3.079-.72 4.975-2.483c2.158-2.004 2.153-3.364 2.153-3.364l5.792 3.29s-.076 1.106-1.842 3.434c-1.85 2.44-3.77 3.228-4.968 3.604-.31.097-.493.14-.493.14zm95.654-16.334s3.157.168 5.466-.994c2.628-1.323 3.001-2.63 3.001-2.63l4.651 4.777s-.379 1.042-2.721 2.784c-2.453 1.827-4.515 2.049-5.771 2.074a8.846 8.846 0 01-.512-.002zm13.641 9.317s.889 3.046 2.747 4.848c2.114 2.05 3.467 1.97 3.467 1.97l-2.947 5.99s-1.105-.014-3.518-1.653c-2.53-1.718-3.423-3.597-3.863-4.778-.114-.305-.168-.486-.168-.486z" fill="#f2f2f2"/><g fill="#ffbe55"><g opacity=".3"><path d="M118.977 94.214c-.031.728-.081 2.178-.124 3.455H84.049v2.739h1.75v13.984c-8.372-4.83-13.316-7.413-24.618-5.671-3.046.471-5.975.849-8.785 1.036a338.75 338.75 0 00-.321-3.043c.1-.051.198-.101.29-.156 0 0-1.629-9.98-2.417-12.901l.23-.133s-.094-1.013-.195-2.388c1.071-.117 5.087-.6 5.514-1.242a2.87 2.87 0 00.415-1.076l1.606-.3.388-1.281 31.28-.164v7.176c0 .643.52 1.165 1.161 1.165h3.554l-.959 2.185h9.577v-.624h-5.564l.655-1.562h6.511c.639 0 1.16-.522 1.16-1.165v-7.257l4.415-.023 2.693 3.431c.465.593 1.3.733 1.932.327 1.164-.747 3.026-1.959 4.52-3.026.097 2.314.206 4.909.136 6.514zm-78.865-.393c-.912 2.586-1.89 7.253-.939 14.153 0 0 .28.038.768.089.02.226.039.46.058.697-4.109-1.18-7.86-3.393-11.24-7.156-7.667-8.535-5.86-23.848 11.403-30.034-.132 2.435.055 3.518-.229 4.951-.062.25-.108.448-.14.58-.007.036-.015.07-.026.11 0 .007-.004.02-.004.027-.093.327-.21.678-.357 1.071-.124.327-.167.565-.144.728v.004c-.508.69-.939 1.972-1.358 4.2-.419 2.228-.675 4.702-.481 5.087.074.152.512.2 1.02.2.788 0 1.743-.114 1.743-.114.256-.015.54-.043.838-.074.252 1.82-1.164 5.403-1.164 5.403zM148.554 72.77c-9.867-3.872-16.563-5.473-22.244-18.426-5.68-12.952-9.704-21.344-24.374-23.716-11.842-1.916-23.38.928-29.876 8.333l3.838-.02 16.653-.086 21.231-.109c2.468-.015 4.482 1.987 4.493 4.465l.202 39.223v.117a3.85 3.85 0 01.733-.284c.734-.67 2.247-1.419 3.519-1.648 0 0 0 .004-.003.011.035-.011.054-.019.054-.019l3.527.199s3.55 1.994 4.365 2.5c.528.328.011 3.05-.442 5.31 4.446.207 4.78 1.067 4.78 1.067s-.521 3.814-1.141 7.982h8.086v2.739h-1.878v3.595a56.408 56.408 0 018.714-4.055c22.108-8.102 11.849-22.438-.237-27.178zm-21.096 2.446c-.779 2.719-1.435 3.015-1.435 3.015-.714.744-3.329 1.66-3.911 1.601-.578-.058-1.025-2.003-1.175-2.158-.148-.16-.854-.339-.757-.58.093-.246.826-1.75.489-1.945-.287-.167.035-.974.252-1.437 0 0-1.672-1.694-.233-2.5 4.109-2.307 5.246.552 5.564.635.318.081 2.11.202 1.206 3.37z"/><path d="M127.458 75.216c-.779 2.719-1.435 3.015-1.435 3.015-.714.744-3.329 1.66-3.911 1.601-.578-.058-1.025-2.003-1.176-2.158-.147-.16-.853-.339-.756-.58.093-.246.826-1.75.489-1.945-.287-.167.035-.974.252-1.437 0 0-1.672-1.694-.233-2.5 4.109-2.307 5.246.552 5.564.635.318.081 2.11.202 1.206 3.37zM50.165 79.15c-.33-.319-.644-.576-.904-.705-.93-.467-2.607-.775-3.146-.868l-.582-.506c-.047-.153-.097-.308-.14-.472-.042-.16-.082-.32-.116-.48.182.032.33.044.434.048.629.011 1.195-1.796 1.195-1.796s.54-.109.671-.19c.128-.083-.384-1.734-.217-2.295.17-.56.244-1.274.244-1.274a2.684 2.684 0 00-.066-.955c.904-.186 1.762-.39 2.577-.6z"/><path d="M57.906 87.237l-.388 1.282-1.607.3a2.862 2.862 0 01-.415 1.075c-.427.642-4.442 1.125-5.513 1.242.1 1.375.194 2.389.194 2.389l-.23.132c.788 2.922 2.418 12.902 2.418 12.902a4.97 4.97 0 01-.291.155c.124 1.122.236 2.198.322 3.043a55.104 55.104 0 01-4.187.117 36.035 36.035 0 01-4.4-.324 27.938 27.938 0 01-3.81-.79l-.058-.698c-.489-.05-.768-.089-.768-.089-.95-6.899.027-11.566.94-14.152l-.253-.079s1.416-3.583 1.164-5.402c-.299.03-.582.058-.838.073 0 0-.954.114-1.742.114-.508 0-.946-.047-1.02-.2-.195-.385.062-2.859.48-5.087.42-2.228.85-3.51 1.359-4.2v-.003c-.024-.164.019-.401.143-.728.148-.394.264-.745.357-1.072 0-.008.004-.02.004-.027a39.766 39.766 0 01.167-.689c.283-1.434.097-2.517.229-4.952.151-.054.306-.108.465-.163.07-.024.14-.047.21-.074 1.04-.35 2.138-.666 3.29-.95a43.31 43.31 0 012.378-.518c.295-.055.586-.113.87-.176.054-.008.108-.019.162-.031.078.3.101.62.066.955 0 0-.074.713-.244 1.274-.167.56.345 2.212.217 2.294-.132.082-.67.19-.67.19s-.567 1.808-1.196 1.797a3.324 3.324 0 01-.434-.047c.034.16.073.319.116.479.043.163.093.32.14.472l.582.506c.539.093 2.215.401 3.146.868.26.129.574.386.904.706v.093l.02 3.358v.183c.004.616.128 1.204.352 1.737.031.066.063.133.09.195a4.48 4.48 0 004.05 2.536zm7.414-30.154v3.435c0 .624-.5 1.13-1.124 1.13h-1.257c1.097-1.512 1.816-3.132 2.351-4.82.019.083.03.168.03.255zm0 8.963v3.436c0 .627-.5 1.133-1.125 1.133h-3.421a1.13 1.13 0 01-1.126-1.133v-3.436c0-.623.505-1.13 1.126-1.13h3.421c.625 0 1.126.507 1.126 1.13zm0 8.967v3.436c0 .623-.5 1.13-1.125 1.13h-3.421a1.128 1.128 0 01-1.126-1.13v-3.436a1.13 1.13 0 011.126-1.134h3.421c.625 0 1.126.507 1.126 1.134zm39.961 11.979v7.257c0 .643-.521 1.165-1.16 1.165H97.61l-.655 1.562h5.564v.623h-9.577l.96-2.185h-3.555c-.64 0-1.16-.522-1.16-1.164v-7.176zm3.53-38.737h-39.99v1.399h39.99zm0 8.952h-39.99v1.399h39.99zm0 9.676h-39.99v1.403h39.99zm0 8.957h-39.99v1.398h39.99z"/><path d="M141.954 97.67v2.738h-1.878v3.595a52.393 52.393 0 00-2.374 1.439c-5.851 3.747-10.057 7.911-14.03 11.277-1.161.981-2.297 1.896-3.453 2.715-2.026 1.434-4.098 2.564-6.407 3.225a16.678 16.678 0 01-3.996.643c-4.986.206-11.197-1.605-19.95-6.568-.66-.374-1.297-.736-1.91-1.094-.29-.164-.574-.331-.857-.495-.443-.253-.877-.507-1.3-.753v-13.984h-1.75v-2.739h34.803c.043-1.277.093-2.726.124-3.455.07-1.605-.039-4.2-.136-6.513-1.494 1.067-3.356 2.279-4.52 3.027a1.454 1.454 0 01-1.932-.328l-2.692-3.431 4.334-.024a4.478 4.478 0 004.446-4.394 3.86 3.86 0 01.734-.284c.733-.67 2.246-1.419 3.519-1.648 0 0 0 .004-.004.011.035-.011.054-.019.054-.019l3.527.199s3.55 1.994 4.365 2.5c.528.328.012 3.05-.442 5.31 4.446.207 4.78 1.067 4.78 1.067s-.52 3.814-1.141 7.982h8.086z"/></g><path d="M65.32 57.083v3.435c0 .624-.5 1.13-1.125 1.13h-3.421a1.128 1.128 0 01-1.126-1.13v-3.435c0-.624.505-1.13 1.126-1.13h3.421c.536 0 .982.374 1.095.876.019.083.03.167.03.254zm0-8.898v3.436c0 .627-.5 1.133-1.125 1.133h-3.421a1.13 1.13 0 01-1.126-1.133v-3.436c0-.623.505-1.13 1.126-1.13h3.421c.625 0 1.126.507 1.126 1.13zm0 17.861v3.436c0 .627-.5 1.133-1.125 1.133h-3.421a1.13 1.13 0 01-1.126-1.133v-3.436c0-.623.505-1.13 1.126-1.13h3.421c.625 0 1.126.507 1.126 1.13zm0 8.967v3.436c0 .623-.5 1.13-1.125 1.13h-3.421a1.128 1.128 0 01-1.126-1.13v-3.436a1.13 1.13 0 011.126-1.134h3.421c.625 0 1.126.507 1.126 1.134z" opacity=".7"/><path d="M118.274 43.211c-.011-2.478-2.025-4.48-4.493-4.465l-21.23.11-16.654.085-3.837.02-17.627.09a4.485 4.485 0 00-4.45 4.515l.131 25.492.05 10.093v.093l.02 3.358v.183c.004.616.128 1.204.353 1.737l.09.195a4.48 4.48 0 004.05 2.536l3.228-.015 31.28-.164 16.095-.082 4.415-.023 4.334-.024a4.478 4.478 0 004.446-4.394v-.117zM65.321 78.449c0 .623-.5 1.13-1.126 1.13h-3.421a1.128 1.128 0 01-1.126-1.13v-3.436a1.13 1.13 0 011.126-1.133h3.421c.625 0 1.126.507 1.126 1.133zm0-8.967c0 .627-.5 1.133-1.126 1.133h-3.421a1.13 1.13 0 01-1.126-1.133v-3.436c0-.623.505-1.13 1.126-1.13h3.421c.625 0 1.126.507 1.126 1.13zm0-8.964c0 .624-.5 1.13-1.126 1.13h-3.421a1.128 1.128 0 01-1.126-1.13v-3.436c0-.623.505-1.13 1.126-1.13h3.421c.536 0 .982.375 1.095.877.019.082.03.168.03.253zm0-8.897c0 .627-.5 1.134-1.126 1.134h-3.421a1.13 1.13 0 01-1.126-1.134v-3.435c0-.624.505-1.13 1.126-1.13h3.421c.625 0 1.126.507 1.126 1.13zm43.49 25.617H68.82v-1.399h39.991zm0-8.952H68.82v-1.403h39.991zm0-9.68H68.82v-1.399h39.991zm0-8.952H68.82v-1.399h39.991z" opacity=".6"/><path d="M108.811 48.255h-39.99v1.399h39.99zm0 8.952h-39.99v1.399h39.99zm0 9.676h-39.99v1.403h39.99zm0 8.957h-39.99v1.398h39.99z" opacity=".7"/></g><path d="M108.811 48.255H68.82v1.399h39.991zm0 8.952H68.82v1.399h39.991zm0 9.676H68.82v1.403h39.991zm0 8.957H68.82v1.398h39.991z" fill="#fff"/><path d="M65.32 48.185v3.436c0 .627-.5 1.133-1.125 1.133h-3.421a1.13 1.13 0 01-1.126-1.133v-3.436c0-.623.505-1.13 1.126-1.13h3.421c.625 0 1.126.507 1.126 1.13zm0 17.861v3.436c0 .627-.5 1.133-1.125 1.133h-3.421a1.13 1.13 0 01-1.126-1.133v-3.436c0-.623.505-1.13 1.126-1.13h3.421c.625 0 1.126.507 1.126 1.13z" fill="#ffbe55"/><path d="M62.291 69.142l-1.575-1.374a.313.313 0 01-.03-.439.31.31 0 01.436-.03l1.114.972 1.584-1.78a.308.308 0 01.437-.024.312.312 0 01.024.44z" fill="#fff"/><path d="M65.32 57.082v3.436c0 .623-.5 1.13-1.125 1.13h-3.421a1.128 1.128 0 01-1.126-1.13v-3.436c0-.623.505-1.13 1.126-1.13h3.421c.536 0 .982.375 1.095.877.019.082.03.167.03.253z" fill="#ffbe55"/><path d="M62.291 60.177l-1.575-1.373a.313.313 0 01-.03-.44.308.308 0 01.436-.03l1.114.971 1.584-1.779a.31.31 0 11.46.414z" fill="#fff"/><path d="M65.32 75.013v3.436c0 .623-.5 1.13-1.125 1.13h-3.421a1.128 1.128 0 01-1.126-1.13v-3.436a1.13 1.13 0 011.126-1.134h3.421c.625 0 1.126.507 1.126 1.134z" fill="#ffbe55"/><path d="M62.291 78.107l-1.575-1.373a.313.313 0 01-.03-.44.31.31 0 01.436-.03l1.114.972 1.584-1.779a.308.308 0 01.437-.024.31.31 0 01.024.438zm-.468-27.767c0-.074.004-.145.014-.213a.726.726 0 01.055-.195.63.63 0 01.117-.176.793.793 0 01.202-.15l.166-.089c.07-.036.137-.08.202-.127s.122-.104.17-.167a.333.333 0 00.073-.209.3.3 0 00-.115-.248.415.415 0 00-.265-.09.378.378 0 00-.17.037.573.573 0 00-.238.2l-.076.111-.495-.348a.964.964 0 01.397-.458c.18-.108.385-.163.611-.163.122 0 .244.017.364.052a.952.952 0 01.326.17.858.858 0 01.237.299c.06.121.09.27.09.443 0 .183-.038.337-.112.46s-.186.233-.334.326a1.892 1.892 0 01-.204.12 2.167 2.167 0 00-.19.112.58.58 0 00-.138.13.288.288 0 00-.054.173h-.633zm.014 1.18v-.723h.629v.723z" fill="#fff"/><path d="M141.26 85.123s.979-.171.96-.57c-.019-.4.149-.945.21-1.114.082-.225.091-1.023.361-.91.27.114.045 1.319.045 1.582.001.264.849-.474 1.106-.476.257-.003 1.352 1.59.715 2.023-.638.433-1.597.44-1.695.54-.097.1-.942.435-.942.435z" fill="#eea886"/><path d="M143.77 83.697s2.039-1.186 2.239-1.142c.201.043.256.166.07.285-.186.12-1.937 1.209-1.937 1.209s2.643-.966 2.813-.97c.101-.001.222.231.128.305s-2.66 1.192-2.66 1.192 2.47-.897 2.614-.853c.126.038.189.28.01.36-.178.08-2.424 1.051-2.424 1.051s1.839-.531 1.942-.418c.063.069.177.264-.302.385-.478.121-1.577.534-1.577.534z" fill="#eea886"/><path d="M128.994 110.571l4.003 16.758h.882l-3.395-16.795zm-4.368 0l4.004 16.758h.882l-3.395-16.795zm-4.88 0l-4.003 16.758h-.883l3.395-16.795z" fill="#858585"/><path d="M135.009 89.687s-.52 3.814-1.14 7.982l-.163 1.067v.004l-.222 1.457-.034.211a205.957 205.957 0 01-.466 2.898 114.816 114.816 0 01-.493 2.793c-.077.389-.147.737-.213 1.032-.159.701-.33 1.262-.509 1.718-.718 1.866-1.498 1.886-1.498 1.886h-17.25c-.12-1.66.342-4.449.342-4.449l.194-.253 4.318-5.625.163-.211.768-1v-.005l.632-.821.334-.433.206-.269.058-.073.314-.414 6.592-8.585a55.085 55.085 0 013.287.023c4.447.207 4.78 1.067 4.78 1.067z" fill="#e2d2ca"/><path d="M119.121 100.156l2.249-.394-1.5-3.79z" fill="#24263d"/><path d="M110.056 125.667s-1.478.882-2.146 1.21c-.671.328-3.274.428-3.531.675-.256.245-.161 1.027.27 1.105.433.079 3.599.359 4.655.107 1.055-.25 3.031.162 3.468.012s.149-2.517-.021-3.048c-.171-.531-2.695-.061-2.695-.061z" fill="#0e538c"/><path d="M110.08 124.665l-.024 1.001s1.98.367 2.695.062l-.05-1.1z" fill="#1c1e30"/><path d="M128.448 102.124s-11.301 2.409-13.065 3.161c-1.763.752-2.821 1.062-2.953 1.438-.133.377-2.888 18.37-2.888 18.37h3.747s2.91-13.589 3.263-14.43c.352-.841 14.329-.886 15.342-1.904 1.015-1.018 1.897-3.807.794-6.307-1.102-2.501-4.24-.328-4.24-.328z" fill="#282b45"/><path d="M123.836 126.377s-1.327 1.099-1.938 1.527c-.611.427-3.17.926-3.386 1.209-.216.282-.002 1.04.437 1.051s3.61-.199 4.615-.609c1.005-.409 3.021-.305 3.43-.521s-.236-2.51-.486-3.009c-.249-.499-2.672.352-2.672.352z" fill="#0e538c"/><path d="M123.706 125.384l.13.993s2.013.058 2.672-.352l-.217-1.079z" fill="#0e538c"/><path d="M129.155 100.447s-12.249 5.608-13.043 7.424c-.808 1.851 7.15 18.016 7.15 18.016l3.659-.569s-5.983-15.374-5.655-16.142c.327-.768 19.733-3.089 15.255-8.26-4.478-5.173-7.366-.469-7.366-.469z" fill="#282b45"/><path d="M129.101 83.12c.588-.307 2.549.365 3.128 1.27 1.347 2.106 3.891 4.706 3.891 4.706l5.673-4.788 1.137 2.854-6.734 5.699a1.456 1.456 0 01-1.959-.07c-1.769-1.724-5.41-5.35-5.691-6.256-.372-1.2-.568-2.828.555-3.415z" fill="#0b4870"/><path d="M130.229 88.62c-.249 1.247-.481 2.353-.504 2.836-.039.755-.78 3.736-1.424 6.213-.225.861-.439 1.663-.606 2.287l-.066.241-.054.211h-.004l-.229.853-3.861-.853-.95-.211-1.614-.358-.784-.171c.046-.168.031-.6-.016-1.196-.019-.242-.046-.514-.073-.803a78.32 78.32 0 00-.144-1.242v-.004c-.016-.121-.027-.246-.047-.375-.186-1.519-.411-3.17-.535-4.237-.109-.947-.225-2.59-.291-4.246-.089-2.342-.082-4.699.19-5.116.05-.077.132-.16.236-.245.788-.635 2.906-1.437 3.271-1.574a.85.85 0 00.055-.019l3.527.199s3.55 1.994 4.365 2.5c.528.328.012 3.05-.442 5.31z" fill="#fff"/><path d="M127.343 101.261l.353-1.306-7.577-1.481.016 1.194z" fill="#1f2136"/><path d="M123.574 99.082l-1.797-.377v1.427l1.797.421z" fill="#4f558a"/><path d="M124.38 95.365c.019.373.043.753.062 1.135l.006.005c.255 4.2.637 8.595.637 8.595.526.441 7.203-1.116 7.203-1.116s-.822-1.12-1.614-4.224c-.797-3.1-.174-6.078.652-11.122.821-5.044.14-5.016.14-5.016l-5.159-2.813c-.338 1.29-1.705 5.971-2.029 8.653-.115.98-.043 3.323.102 5.903zm-1.651-14.746s0 .004-.004.011a46.624 46.624 0 00-1.571 5.123s0 .004-.004.004a34.047 34.047 0 00-.558 2.734c-.346 2.135-.497 5.186-.668 7.616l-.023.316v.004a57.018 57.018 0 01-.128 1.51c-.121 1.232-.272 2.062-.505 2.12-.05.012-.097.023-.136.035-.539.129-.353.024-.353.024l.027-.92v-.003a451.121 451.121 0 01.171-4.978c.07-1.606-.039-4.2-.136-6.514-.105-2.411-.509-4.885-.365-5.267.062-.164-.143.023.062-.164.734-.67 2.918-1.421 4.191-1.651z" fill="#0b4870"/><path d="M122.853 80.009c0 .238-.019.457-.072.602 0 0 .396 1.552 3.526.198 0 0-.619-2.313 0-4.253l-3.526 2.197s.043.35.062.757c.01.164.015.34.01.499z" fill="#eea987"/><path d="M126.18 80.194s-1.231.597-2.472.713l.605 1.292 1.995-1.388zm-2.472.713s-.866-.287-.86-.713l-.118.426.353 1.364z" fill="#d3d3d3"/><path d="M123.708 80.907l-.453.78s.21.241.881.137z" fill="#ffbe55"/><path d="M123.352 81.756s-1.85 5.465-1.865 9.347c-.015 3.88.29 6.196.29 6.196l.408.764.595-.697s-.42-11.268 1.226-15.526c0 0-.585-.28-.654-.084z" fill="#ffbe55"/><path d="M122.843 79.51c.01.164.015.339.01.498 2.488.04 2.527-1.387 2.527-1.387-.387 1.034-2.537.888-2.537.888z" fill="#a77860"/><path d="M108.451 81.433s-.614-1.225-.713-1.409c-.099-.184-.584-.438-1.163-.678-.579-.238-1.456-.27-1.542-.2-.086.07-.202.096-.289.385-.087.288-.019.587-.019.587s-.258.298-.15.658c0 0-.231.293-.047.68 0 0-.218.294-.064.562 0 0 .485.256.641.41.155.152 1.198.607 2.257.873 0 0 1.076-.127 1.089-1.868z" fill="#eea886"/><path d="M108.451 81.433s1.172 1.173 1.146 1.454c-.044.463-.614 1.815-.643 1.788a539.75 539.75 0 00-1.834-1.438z" fill="#eea886"/><path d="M120.646 85.721s0 .004-.004.004c-.194.343-1.043 1.028-2.122 1.807-.062.047-.124.09-.186.137-1.494 1.067-3.356 2.28-4.52 3.027a1.456 1.456 0 01-1.932-.327l-2.693-3.432-2.758-3.514.151-.23 1.281-1.952.256-.385 4.594 5.839s3.015-2.034 4.757-3.822c.132-.136.302-.253.5-.354.221-.118.474-.211.734-.285.081-.023.163-.042.244-.062.765-.168 1.548-.148 1.839.09.326.265.489.615.532 1.009.096.779-.269 1.713-.673 2.45z" fill="#0b4870"/><path d="M106.457 81.014l.317-.219-2.583-3.769-.317.22z" fill="#eb4747"/><path d="M104.197 77.025l-.537-.447.219.665z" fill="#eea886"/><path d="M105.188 79.202s1.455.644 1.392.918c-.064.274-.235.332-.235.332l.493.569s.136.58-.47.574c0 0 .178.529-.407.445 0 0-.021.407-.299.422-.277.014-1.197-.444-1.197-.444s-.156-.194.064-.561c0 0-.195-.36.047-.68 0 0-.116-.315.149-.659 0 0-.209-.724.309-.972 0 0 .092.029.154.056z" fill="#d69779"/><path d="M107.695 79.997s-1.068.116-1.626.464c-.125.078-.234.18-.216.342.019.16.25.336.715.313.464-.024 1.076.184 1.076.184s.471-.18.051-1.303z" fill="#eea886"/><path d="M108.964 110.898s.793-4.964.834-5.165c.042-.201.849-.924 4.701-2.191 0 0-4.283.835-5.405 1.57-.866.566-.13 5.786-.13 5.786z" fill="#12131f"/><path d="M87.955 101.704h-.858v28.275h.858zm50.605 0h-.858v28.275h.858z" fill="#0e538c"/><path d="M140.077 100.198H85.799v25.616h54.278z" fill="#cce9ff"/><path d="M141.954 97.6H84.049v2.738h57.905zm-53.673 31.823h-1.51v.556h1.51zm50.575 0h-1.449v.556h1.449z" fill="#0e538c"/><path d="M105.281 84.931v9.318c0 .643-.521 1.165-1.16 1.165H90.347c-.64 0-1.16-.522-1.16-1.165v-9.318c0-.642.52-1.164 1.16-1.164h13.774c.639 0 1.16.522 1.16 1.164z" fill="#f7f7f7"/><path d="M99.744 96.976v.624h-6.802l.959-2.185 1.718-3.92.066-.152h3.64l-1.703 4.048-.012.024-.656 1.561z" fill="#f7f7f7"/><path d="M99.115 91.343l-.07.172-1.645 3.9-.92 2.185h-3.526l.958-2.185 1.715-3.92.066-.152z" fill="#f2f2f2"/><path d="M102.518 96.976v.624h-5.804l.24-.624zm-4.904-1.585l1.711-4.067v4.067z" fill="#d3d3d3"/><path d="M96.025 93.234c.19-.492.645-.79 1.091-.753a.745.745 0 00-.113-.055c-.516-.2-1.116.111-1.341.696-.226.585.009 1.222.524 1.422a.89.89 0 00.25.057c-.434-.244-.62-.827-.411-1.367z" fill="#fff"/><path d="M96.717 94.579c.346-.078.661-.343.811-.73.165-.43.082-.885-.177-1.177a.906.906 0 00-.234-.191c-.446-.038-.901.26-1.091.752-.208.54-.023 1.123.412 1.368a.94.94 0 00.28-.022z" fill="#d3d3d3"/><path d="M154.048 68.943s-.732.098-.725-.213c.005-.31.055-.716.055-.716zm4.113-3.37l-2.403 1.865c.307-.058.819-.132.832.029.015.229-.914.506-1.208.714-.27.192-.554.533-.629.549l-.525.452-.85-1.168s1.402-1.593 1.74-1.933c.55-.552 2.772-.877 2.893-.796.22.145.15.288.15.288z" fill="#eea987"/><path d="M155.195 69.26l-1.937-1.647-6.644 6.74c-1.04.719 2.029 3.193 2.895 3.733 2.227 1.386 4.855 4.594 7.58 2.637 2.954-2.12-1.347-3.63-2.781-3.593-1.243.032-3.949-2.422-3.949-2.422z" fill="#ffbe55"/><path d="M151.689 129.747s-1.104 1.163-2.224 1.407c-1.121.244-3.054 1.074-3.063 1.742s4.374.588 5.657-.085c1.914-1.005 2.109-.702 2.32-1.204.213-.501-.254-1.846-.241-2.005.018-.197-2.449.145-2.449.145z" fill="#0b4870"/><path d="M151.813 129.19s-.146.545-.124.557 2.526.293 2.449-.144a16.745 16.745 0 00-.148-.741z" fill="#2f6b8c"/><path d="M164.159 130.05s-.812 1.134-1.899 1.395c-1.071.258-2.656 1.265-2.708 1.914-.053.648 3.416.982 5.227-.158 1.19-.749 1.633-.705 1.873-1.182.24-.476-.125-1.81-.101-1.964.029-.191-2.392-.005-2.392-.005z" fill="#0b4870"/><path d="M164.191 129.49s-.053.547-.032.56c.02.013 2.406.436 2.392.005-.012-.344-.153-.771-.153-.771z" fill="#2f6b8c"/><path d="M154.338 96.447s-1.159 8.456-1.633 11.315c-.553 3.341-.741 6.103-.896 7.833-.194 2.176-.451 13.309-.587 13.946-.137.635 3.376.305 3.376.305s1.841-14.515 2.419-16.832c.539-2.157 2.107-11.477 2.598-10.888.492.589 1.996 11.146 2.36 12.848.365 1.701 1.339 15.096 1.339 15.096s3.315.533 3.982 0c0 0-.523-11.944-.755-15.134-.089-1.216.766-14.555-1.282-19.935-1.081-2.842-10.921 1.446-10.921 1.446z" fill="#0e538c"/><path d="M158.128 76.169s-3.067.637-3.432.96c-.395.345-1.092 3.718-1.133 4.659-.043.94.369 4.865.764 6.327s-.518 7.713-.767 9.738c0 0 6.827 1.287 12.901.493 0 0-.828-6.15-.585-8.154.312-2.566 1.06-8.48 1.06-8.48s.005-3.327-.465-3.859c-1.007-1.142-4.88-1.684-4.88-1.684z" fill="#ffbe55"/><path d="M162.347 82.34c.144 3.047 1.11 3.788 2.061 3.55a2.09 2.09 0 00.849-.469c.404-.353.721-.841.835-1.305.416-1.697.419-6.376-1.713-6.978 0 0-2.313-.75-2.032 5.203z" fill="#ffbe55"/><path d="M153.172 83.725s1.711-.285 1.815 2.207c.105 2.492 1.18 7.122 2.931 8.967l-6.888.263c-1.751-1.845-2.611-6.264-2.741-8.755-.121-2.291-1.818-2.207-1.818-2.207z" fill="#d3d3d3"/><path d="M157.19 78.016a.9.9 0 00.127.074c.155.08.353.137.601.164a2.207 2.207 0 00.442.002c1.624-.16 3.235-2.025 3.235-2.025-3.26-.496-4.658.114-4.658.114s-.522 1.147.253 1.671z" fill="#ffbe55"/><path d="M157.258 76.836s.759.504 3.639-.77c0 0-.287-1.717.156-3.601.428-1.813-3.537 2.236-3.537 2.236.047.033.055.219.028.476a5.532 5.532 0 01-.142.765c-.161.62-.144.354-.144.894z" fill="#eea886"/><path d="M160.896 75.518s-1.506.912-2.995 1.117l.792 1.27 2.51-1.736zm-3.494.424s.159.523.499.693l-.745 1.042.028-1.381z" fill="#0b4870"/><path d="M157.416 75.44c1.707.091 2.799-1.686 2.832-1.739-1.072 1.176-2.732 1.246-2.732 1.246a8.295 8.295 0 01-.1.494z" fill="#a77860"/><path d="M153.172 83.725s-2.05.19-1.617 3.063l-6.085.33s-.841-1.956 1.001-2.918z" fill="#f7f7f7"/><path d="M158.446 89.093s-.264.125-.493.062c-.396-.107-.733-.66-1.251-.376-.516.284-.082 2.183.18 2.462.263.278 1.068.115 2.075-.61 1.007-.724-.511-1.538-.511-1.538z" fill="#eea886"/><path d="M156.891 88.709s-.874.065-1.838.258c-.845.169-1.871.497-1.831.711.06.325.871-.04 1.72-.151.783-.102.645.05.645.05s.036-.045-.794.234c-.894.3-1.84.66-1.811.836.037.218.059.242.401.187-.189.074-.196.138-.173.222.121.43 1.502.197 2.049.104-.42.074-.721.174-.477.39.279.246 2.216-.173 2.925-.256.771-.09-.816-2.585-.816-2.585z" fill="#eea886"/><path d="M163.698 77.198c-.626.207-.961 1.096-.58 2.942.422 2.04.893 3.033 1.166 3.514.272.48 1.74 2.942 1.472 3.332-.269.39-3.818 1.317-4.059 1.386-.481.137-3.701.782-3.701.782l.788 2.769s9.803-1.68 10.281-2.159c.477-.479.726-1.128.198-2.802-.537-1.7-1.5-5.683-1.672-5.994-.17-.311-1.068-4.702-3.893-3.77z" fill="#ffbe55"/><path d="M163.205 80.542s.32 4.124 1.742 7.053c.433-.097.858-.322 1.231-.619 0 0-1.643-2.71-1.79-3.018s-1.017-2.698-1.183-3.416zm-4.711 10.798s3.946.71 7.344.287c-.051-.33-.005-.69.101-1.113 0 0-3.187.627-3.544.67-.358.043-3.093.182-3.901.155z" fill="#a77860" opacity=".3"/><path d="M44.47 67.156l-.044.39-.46 4.374c-1.087-.799-1.98-.105-2.655 1.02a1.81 1.81 0 00-.058.098c-.594-1.08-1.303-3.03.02-4.729.652-.837 1.613-1.2 2.595-1.2.058 0 .12 0 .179.004.027 0 .05.004.077.004l.132.011.105.013c.02.003.039.003.058.007.015.004.035.004.05.008z" fill="#e8734d"/><path d="M47.577 74.18c-.132.081-.67.19-.67.19s-.567 1.808-1.196 1.796a3.342 3.342 0 01-.435-.047 5.576 5.576 0 01-1.691-.6l.163-1.53.167-1.59c0-.003.004-.003.004-.003l.03-.328.016-.148c-1.086-.799-1.978-.105-2.654 1.02a6.836 6.836 0 01-.473-1.608c-.295-1.832.337-3.63 3.2-3.794.113-.008.246-.004.389.007.931.067 2.351.546 2.949 2.143.105.273.182.58.229.923 0 0-.074.713-.245 1.274-.167.561.345 2.213.217 2.295z" fill="#a77860"/><path d="M47.604 70.612s-1.606 1.114-3.205 1.351a2.43 2.43 0 00-.299.063h-.004c-.05.012-.1.027-.147.043l.015-.149c-1.086-.799-1.978-.105-2.654 1.02-.019.032-.039.063-.058.098a6.542 6.542 0 01-.419-.919 5.375 5.375 0 01-.205-.713c0-.004 0-.008-.004-.011-.016-.07-.027-.14-.04-.215a4 4 0 01-.063-.693c.001-.717.2-1.469.75-2.178.652-.837 1.614-1.2 2.596-1.2.058 0 .12 0 .178.004.027 0 .05.004.078.004l.132.011.105.013c.02.003.039.003.058.007.015.004.035.004.05.008 1.416.215 2.743 1.158 3.07 2.501.078.3.101.619.066.955z" fill="#0e538c"/><path d="M39.934 76.521a6.78 6.78 0 01-.14.58c.031-.132.078-.331.14-.58z" fill="#e8734d"/><path d="M56.497 130.209s1.482 2.089 1.279 2.421c-.203.331-1.762.378-2.71 0s-.97-2.828-1.399-3.88c-.18-.44.204-1.74.745-1.835.54-.095 1.128.183 1.128.183s-.561 1.482.957 3.111z" fill="#ffbe55"/><path d="M55.55 127.081s.312.89.426 1.74c.094.704 1.055 2.2 1.01 2.39-.045.19-1.264.361-1.762-.128-.496-.488-.816-1.906-.925-2.754-.103-.791-.23-1.181-.23-1.181s1.006-.587 1.481-.067z" fill="#a77860"/><path d="M43.603 130.244s1.428 2.054 1.224 2.386c-.203.331-1.76.378-2.71 0-.947-.378-.97-2.828-1.4-3.88-.18-.44.206-1.74.746-1.836.54-.094 1.174.203 1.174.203s-.553 1.497.966 3.127z" fill="#ffbe55"/><path d="M42.637 127.117s.113.97.293 1.657c.182.685 1.152 2.247 1.107 2.437-.045.189-1.265.36-1.76-.128-.498-.489-.882-1.901-.927-2.755-.045-.856.113-1.414.113-1.414s.7-.316 1.174.203z" fill="#a77860"/><path d="M55.64 127.517s-.074.062-.198.124c-.24.125-.68.253-1.133-.078-.04-.027-.113-.147-.221-.342v-.009c-.012-.015-.02-.031-.031-.05-.935-1.726-3.908-8.496-3.908-10.522 0-2.31-1.187-5.13-1.94-6.766-.282-.612-.508-1.056-.585-1.25-.082-.199-.16-.394-.233-.585-2.421-6.127-1.932-8.037-2.274-8.453-.349-.429-.38.264-.586 1.215-.136.642-.384 4.64-.613 7.456a74.39 74.39 0 01-.108 1.293c-.066.702-.128 1.22-.183 1.434-.264 1.045-.058 4.558-.202 6.334-.147 1.773-.787 9.801-.787 9.801s-.497.814-1.195.02a.261.261 0 01-.02-.055c-.011-.035-.019-.085-.034-.152-.257-1.352-1.149-8.905-1.176-10.845-.031-2.111-.062-5.021-.116-5.933-.032-.486-.063-.95-.097-1.394l-.059-.698c-.59-6.902-1.536-8.433.377-14.094.008-.023.015-.05.027-.073.341-1.005.698-1.84 1.063-2.528l.023-.047c.004-.004 0-.004 0-.004.765-1.43 1.564-2.21 2.348-2.54a2.65 2.65 0 01.706-.183c.143-.012.287-.016.43-.005a2.835 2.835 0 01.958.25c.121.047.238.11.354.171l.008.005a6.093 6.093 0 011.342 1.059l.004.004a9.629 9.629 0 01.885 1.013c.117.148.218.284.322.425v.004c.435.611.745 1.149.897 1.41.011.02.023.039.03.058.024.051.043.082.051.101.004.004.008.008.008.012s.004.008.004.012a717.555 717.555 0 011.56 7.743c.16.845.47 3.448.737 5.859.124 1.122.237 2.198.322 3.043.07.697.12 1.235.14 1.5.085 1.285 1.323 6.123 1.264 6.583-.05.401 1.374 7.409 1.75 9.24 0 .004 0 .008.005.012.003.011.003.019.007.027l.077.398z" fill="#a77860"/><path d="M52.365 106.559c-.093.055-.19.105-.29.156-1.355.709-3.016 1.11-4.684 1.324a27.925 27.925 0 01-3.472.218 38.044 38.044 0 01-3.977-.195 22.82 22.82 0 01-.768-.089c-.95-6.899.027-11.566.939-14.152.577-1.648 1.125-2.455 1.125-2.455h.193c.459 0 1.661.016 3.02.118 1.23.093 2.587.26 3.63.56.268.078.516.164.734.257.4.175.702.382.87.627.01.02.023.039.03.058a.415.415 0 01.05.102c.005.004.009.007.009.01 0 .006.003.01.003.013a7.4 7.4 0 01.171.545c.788 2.923 2.417 12.903 2.417 12.903z" fill="#0e538c"/><path d="M53.627 128.566v2.187h.271v-1.69zm-12.949 0v2.187h.271v-1.69z" fill="#ffbe55"/><path d="M43.965 71.92l-.015.149-.031.327s-.004 0-.004.004l-.167 1.59-.163 1.53-.16 1.531s-.116.094-.306.237c-.004.004-.004.009-.008.009a2.29 2.29 0 01-.089.07c-.042.03-.085.066-.132.1-.143.11-.31.23-.493.367-.004.004-.004.004-.008.004a18.487 18.487 0 01-1.203.807c-.892.549-1.746.923-1.905.478a.336.336 0 01-.02-.082v-.004c-.023-.163.02-.4.144-.728.148-.393.264-.744.357-1.07 0-.009.004-.02.004-.028.012-.04.02-.074.027-.109a6.66 6.66 0 00.14-.58c.283-1.434.097-2.517.229-4.952.016-.307.039-.634.066-.989.252-3.147 2.538-3.495 3.64-3.47-.982 0-1.944.362-2.596 1.199-.796 1.02-.858 2.139-.644 3.096.136.636.388 1.204.624 1.632l.058-.097c.676-1.126 1.569-1.82 2.655-1.02z" fill="#0e538c"/><path d="M46.006 78.352l-.214.05c-.275.063-.787.168-1.307.242-.078.011-.155.024-.233.031-.016.004-.035.004-.05.008a5.69 5.69 0 01-.49.04 2.905 2.905 0 01-.566-.016c-.322-.051-.49-.184-.342-.46a1.12 1.12 0 00.078-.183c.043-.11.074-.238.097-.378v-.012c.02-.098.03-.203.043-.308.03-.024.061-.047.088-.07.004 0 .004-.005.009-.008.19-.144.306-.237.306-.237l.159-1.531.163-1.531c.776-.125 1.719-.14 1.482.553-.132.397-.082.974.043 1.558 0 .008.003.012.003.02.035.159.074.319.117.478.043.164.093.32.14.472l.159.479.004.016c.171.467.31.787.31.787z" fill="#a77860"/><path d="M37.45 88.197c.047.38 1.818.301 3.707.107l.006.022.102.422c.027.115.053.236.075.364.19 1.085.175 2.614-.186 3.924 0 0 4.763 1.782 7.734.158 0 0-.316-2.594.158-4.27.475-1.677 2.953-7.518 2.953-7.518s-1.797-2.607-3.167-3.084c-1.371-.477-3.139-.772-3.139-.772l-2.569.095s-2.138.56-2.617.71c-.856.272-1.187.557-1.63 1.444-.61 1.22-1.636 6.684-1.427 8.398zm2.701-2.873s.234.52.444 1.108c-.17.016-.333.017-.41.028-.676.102-.168-.762-.034-1.136z" fill="#ffbe55"/><path d="M45.393 76.599c-1.58-.222-1.8-1.056-1.808-1.08l1.688.581c0 .008.003.012.003.02.035.159.074.32.117.479z" fill="#a77860"/><path d="M40.185 85.345s.116.245.434 1.208c.322-2.707.153-4.117.153-4.117-.035 1.447-.587 2.909-.587 2.909zm.978 2.981l.101.422c.028.115.054.236.076.363a62.847 62.847 0 001.828-1.034c-.286.064-2.005.25-2.005.25z" fill="#cfbeb8"/><path d="M42.98 77.682l3.025 2.476-.313-2.608s-1.763-.382-2.713.132z" fill="#a77860"/><path d="M45.13 79.738l.874.42-2.97-2.957z" fill="#fcd2b1"/><path d="M45.393 84.904c-.02.444-.062.95-.124 1.492-.051.444-.113.915-.183 1.398-.008.043-.011.086-.02.129-.034.222-.065.444-.1.67-.004.004-.004.008-.004.012a2.678 2.678 0 00-.031.194c-.012.059-.02.122-.031.184-.008.054-.02.112-.027.167a117.35 117.35 0 01-.423 2.334c-.171.868-.33 1.655-.462 2.255-.027.136-.054.26-.077.378a.782.782 0 01-.997.585l-2.569-.807-.233-.073-.252-.079s1.416-3.583 1.164-5.402c.004-.008 0-.016 0-.02a2.862 2.862 0 00-.039-.206 32.952 32.952 0 00-.446-1.632c-.004-.016-.012-.031-.015-.047 0-.008-.004-.016-.008-.024-.051-.164-.101-.311-.144-.456l-.07-.214c-.042-.12-.082-.23-.113-.327a.126.126 0 00-.015-.04s-.004-.004 0-.004c-.1-.296-.167-.467-.167-.467s-.764-4.23 1.18-6.26c.314-.327.702-.6 1.172-.787.035-.01.07-.027.105-.039.011-.004.015-.004.015-.004.085-.03.175-.058.268-.082.077-.023.151-.042.233-.058.007 0 .015-.004.023-.004.04-.008.074-.015.112-.02.005-.004.005-.004.009-.004 0 0 .065.106.174.297.101.183.248.447.415.78.221.443.485 1 .734 1.627.535 1.348 1.016 3.016.946 4.554zm7.124-3.004l-1.61 2.135-.37.487-.817 1.087c0 .409.007.86.023 1.34v.004c.004.14.012.277.015.416a106.936 106.936 0 00.132 2.431c.004.031.004.063.008.094v.042c.027.39.054.764.082 1.118 0 .027 0 .055.003.082.101 1.375.194 2.388.194 2.388l-.228.133-.055.031-.997.576a.524.524 0 01-.784-.444c0-.09-.004-.187-.004-.288l-.027-1.488c-.008-.303-.011-.627-.02-.959 0-.163-.003-.33-.007-.502-.004-.113-.004-.23-.008-.347v-.011l-.012-.632c-.004-.092-.004-.186-.008-.276-.004-.3-.008-.595-.015-.892-.004-.288-.012-.573-.016-.85-.008-.365-.016-.72-.02-1.055-.011-.53-.023-1.013-.03-1.418-.031-1.57-.664-3.677-1.222-5.251a39.884 39.884 0 00-.862-2.205.238.238 0 01.043.016.79.79 0 01.093.031l-.035-.093-.02-.051s.062.008.17.027c.54.093 2.216.401 3.148.868.26.13.573.386.903.706.52.495 1.075 1.141 1.522 1.683.481.596.83 1.067.83 1.067z" fill="#0b4870"/><path d="M49.982 91.054s-2.109.082-2.437 0c-.328-.082-2.516-1.036-2.648-1.977-.131-.94 5.085.843 5.085.843z" fill="#a77860"/><path d="M43.438 88.112l8.56-1.006-3.866 3.16z" fill="#d3d3d3"/><path d="M48.132 90.266l-4.694-1.606v-.548l4.851 1.563z" fill="#f2f2f2"/><path d="M45.925 86.534s.707 0 1.104-.08c.307-.063 1.07.024 1.265.196.193.173.812 1.377.929 1.451.116.073-.06.245-.265.158 0 0-.189.527-.654.33s-.782-.628-1.025-.704c-.243-.076-1.661-.459-1.661-.459s-.059-1.02.307-.892z" fill="#a77860"/><path d="M47.946 80.16l-.784-.5-1.257-1.998-.054-.085-.318-.506.582.506.038.058z" fill="#ffbe55"/><path d="M47.16 79.66l-1.155.498-.312-2.608-.162-.48z" fill="#fcd2b1"/><path d="M55.97 88.254s.004.234-.058.565a2.864 2.864 0 01-.415 1.075c-.427.643-4.443 1.126-5.514 1.243-.167.02-.26.027-.26.027.012-.024.015-.058.024-.101.035-.265.004-.842-.016-1.095a5.13 5.13 0 00-.008-.125l.015-.004.152-.039z" fill="#0b4870"/><path d="M60.117 79.941l-2.211 7.296-.388 1.282-1.606.3-5.93 1.103-.084.015-.167.031-.897.164-.702.132.16-.588.07-.265.209-.786.29-1.088.02-.066 1.304-4.87.442-1.655.958-.101.101-.011z" fill="#f2f2f2"/><path d="M43.034 77.201l2.096 2.537-1.147 1.026-1.238-3.035z" fill="#ffbe55"/><path d="M45.944 86.435l-.02.101-.174.924-.047.237s-.236.039-.617.097c-.47.074-1.164.175-1.916.281-.004 0-.004 0-.008.004-.035.004-.074.008-.109.015-.438.059-.892.118-1.33.172-.098.008-.191.02-.284.03l-.112.013a2.343 2.343 0 00-.163.019l-.14.012c-.299.03-.582.058-.838.073 0 0-.954.114-1.742.114-.508 0-.946-.047-1.02-.2-.194-.385.062-2.859.48-5.087.42-2.228.85-3.51 1.359-4.2v-.004c.124-.167.376-.323.69-.467.043-.02.082-.035.124-.055.09-.038.183-.077.276-.108a14.38 14.38 0 012.045-.573c.03-.008.054-.015.066-.015.011-.004.015-.004.015-.004l-1.664 5.465v.004l-.342 1.113-.008.035-.267.873-.012.04-.012.026c-.003 0 0 .004 0 .004-.066.137-.314.682-.302.932.008.09.07.128.152.144.058-.005.182-.016.356-.027l.125-.012h.011c.02-.004.035-.004.055-.004.007 0 .011 0 .019-.004h.047c.57-.043 1.416-.094 2.114-.098.489 0 1.121.02 1.696.048.302.01.586.026.822.042.403.02.675.04.675.04z" fill="#0b4870"/><path d="M155.669 68.829s-.821 1.528-.414 1.765c.336.197-.394 1.698-.489 1.943-.096.245.609.423.758.58.15.159.594 2.1 1.175 2.158.58.059 3.196-.854 3.908-1.598.713-.744 1.297-4.102.821-5.52-.474-1.416-4.309-2-5.759.672z" fill="#eea987"/><path d="M155.505 69.16s-1.669-1.697-.23-2.505c4.107-2.307 5.246.553 5.563.635.316.082 2.112.206 1.206 3.372-.779 2.719-1.437 3.015-1.437 3.015s-.032-1.757-.362-1.998c-.514-.375-1.641-.284-1.641-.284s.537-1.432-.303-1.636c-.839-.202-1.945-.916-2.796-.6z" fill="#0b4870"/><path d="M159.334 71.001c.075-.197.315-1.04 1.035-.544.722.496-.448 2.087-.574 2.107-.126.02-1.084.091-.461-1.563zm-33.311 7.229c-.714.745-3.329 1.66-3.911 1.602-.578-.058-1.025-2.003-1.176-2.158-.147-.16-.853-.339-.756-.58.093-.246.826-1.75.489-1.945-.287-.167.035-.974.252-1.437.089-.198.163-.331.163-.331 1.451-2.668 5.284-2.084 5.758-.67.477 1.418-.109 4.776-.819 5.52z" fill="#eea987"/><path d="M127.458 75.216c-.779 2.719-1.435 3.015-1.435 3.015s-.027-1.399-.268-1.87a.393.393 0 00-.097-.128c-.263-.191-.686-.261-1.039-.281-.334-.024-.602-.004-.602-.004s.54-1.43-.302-1.632c-.839-.203-1.944-.92-2.794-.604 0 0-1.672-1.695-.233-2.501 4.109-2.306 5.246.553 5.564.635.318.082 2.11.203 1.206 3.37z" fill="#0b4870"/><path d="M124.748 75.556c.075-.197.315-1.04 1.035-.544.722.496-.448 2.087-.574 2.107-.126.02-1.084.09-.461-1.563z" fill="#eea987"/></svg>