<svg fill="none" height="61" width="250" xmlns="http://www.w3.org/2000/svg"><path d="M60.996 39.258c-.181-.042-.372-.085-.567-.134l-.044-.012c1.037-2.298 1.903-4.851 2.544-7.692 2.176-9.623-.866-18.3-8.342-23.802C49.89 4.162 43.931 2.32 38.172 2.32l-.26.002c-.08-.004-.162 0-.237-.014l.034.016h-.043c5.576 2.55 9.245 7.03 10.35 12.613 3.094 2.303 6.38 6.684 4.605 14.53-.554 2.437-1.31 4.591-2.223 6.494-2.554-.969-5.228-2.113-7.768-3.41-.359-.185-.717-.369-1.067-.557a47.52 47.52 0 01-1.052-.579c-3.17-1.791-6.017-3.833-8.016-6.087-.268-.305-.521-.61-.756-.92a12.34 12.34 0 01-.669-.956c-1.096-1.728-1.664-3.568-1.507-5.498.103-1.211.464-2.253 1.08-3.12.013-.017.021-.038.035-.055h-.001l.01-.017a4.528 4.528 0 00-.378-.161c-1.009-.382-2.228-.584-3.53-.584-.387 0-.784.019-1.181.054-2.281.198-4.577.97-6.414 2.137-.048.318-.08.641-.11.97-.287 3.496.455 7.858 3.932 12.455a31.183 31.183 0 001.478 1.782c1.97 2.172 4.582 4.376 8.016 6.544.35.225.712.444 1.08.67a68.687 68.687 0 005.448 2.918 83.787 83.787 0 004.503 1.986c.278.117.542.235.823.352a24.734 24.734 0 01-6.531 3.98c-.904.386-1.808.71-2.688.98l-.027.007a8.935 8.935 0 01-5.216 0l-.028-.008c-.88-.27-1.783-.593-2.688-.979a24.952 24.952 0 01-5.912-3.497c-.205-.165-.418-.32-.617-.492a87.363 87.363 0 005.324-2.33 69.397 69.397 0 003.64-1.89c.226-.122.466-.245.686-.366l-.007-.005.02-.01a50.58 50.58 0 01-1.179-.802l-.092-.064a45.404 45.404 0 01-2.34-1.76 39.164 39.164 0 01-2.113-1.832 34.092 34.092 0 01-2.037-2.07c-.058-.066-.122-.131-.18-.196-2.539 1.297-5.212 2.441-7.767 3.41-.913-1.902-1.668-4.057-2.224-6.494-1.774-7.846 1.512-12.227 4.606-14.53.02-.013.034-.027.053-.04.445-.328.909-.628 1.392-.902.478-.274.976-.525 1.482-.75a17.444 17.444 0 015.462-1.409c.474-.045.943-.063 1.407-.063 1.578 0 3.094.243 4.429.75a7.56 7.56 0 011.291.62c.373.22.712.466 1.014.74.301.269.569.56.794.88.65.88 1.023 1.948 1.128 3.19.159 1.93-.41 3.767-1.51 5.495 1.903 2.347 4.93 4.448 8.068 6.185 3.477-4.597 4.218-8.959 3.931-12.456a16.12 16.12 0 00-.397-2.45 13.761 13.761 0 00-.44-1.482c-1.52-4.264-4.912-7.599-9.714-9.426a21.887 21.887 0 00-2.874-.866 23.001 23.001 0 00-2.554-.45 26.332 26.332 0 00-2.612-.178c-.167-.005-.334-.005-.507-.005-5.758 0-11.722 1.84-16.414 5.297C2.933 13.12-.105 21.797 2.07 31.42a40.12 40.12 0 002.434 7.429c.037.087.07.178.109.265-.214.054-.415.099-.615.143-2.817.647-4.54 3.219-3.845 5.746.588 2.136 2.712 3.555 5.055 3.555.43 0 .87-.05 1.31-.148.14-.032 1.44-.333 3.473-.912a32.492 32.492 0 006.15 5.41 32.545 32.545 0 002.242 1.406c.128.074.256.141.385.212.255.143.51.287.765.422.153.08.306.155.459.234.23.117.46.236.69.348.164.08.329.154.493.231.217.102.434.204.65.3.17.076.338.146.506.218.21.09.421.181.631.267.17.07.339.134.508.2.205.08.41.162.615.238.17.063.338.123.508.184a30.669 30.669 0 001.101.377c.127.042.256.087.382.127l.146.043c.078.024.157.052.234.075a20.702 20.702 0 0012.086 0c.077-.023.157-.05.234-.075l.147-.043c.125-.04.254-.085.38-.126l.504-.167c.198-.067.398-.139.597-.21.17-.062.34-.122.51-.185.204-.076.408-.157.613-.237.17-.067.339-.132.51-.201.209-.086.419-.177.63-.266.168-.073.337-.143.506-.219.216-.096.433-.199.65-.3.165-.077.329-.151.494-.231.23-.112.459-.23.69-.348.152-.079.305-.153.458-.234.254-.135.508-.277.763-.42.129-.072.258-.14.387-.214a33.365 33.365 0 002.241-1.406 32.513 32.513 0 006.146-5.409c2.038.578 3.334.879 3.477.91.44.1.876.149 1.306.149 2.349 0 4.472-1.419 5.06-3.555.694-2.527-1.028-5.099-3.85-5.745zm35.476-28.074H90.36V30h-4.448V11.184h-6.08V7.216h16.64zM114.945 30h-8.064c-2.56 0-4.362-.437-5.408-1.312-1.024-.896-1.536-2.464-1.536-4.704V7.216h15.008v3.968h-10.56v5.344h7.392l-.32 3.968h-7.072v3.168c0 .896.203 1.515.608 1.856.406.341 1.142.512 2.208.512h7.744zm19.183-18.816h-6.112V30h-4.448V11.184h-6.08V7.216h16.64zm20.17 6.368v1.728c0 3.819-.726 6.592-2.176 8.32-1.43 1.728-3.734 2.592-6.912 2.592-3.179 0-5.483-.864-6.912-2.592-1.408-1.728-2.112-4.533-2.112-8.416V17.52c0-3.541.714-6.176 2.144-7.904 1.45-1.728 3.733-2.592 6.848-2.592 3.136 0 5.44.875 6.912 2.624 1.472 1.75 2.208 4.384 2.208 7.904zm-4.448 1.632V18c0-2.048-.256-3.68-.768-4.896-.598-1.408-1.878-2.112-3.84-2.112-1.984 0-3.275.704-3.872 2.112-.491 1.152-.736 2.784-.736 4.896v1.184c0 2.752.384 4.608 1.152 5.568.298.405.736.757 1.312 1.056.597.277 1.301.416 2.112.416.832 0 1.536-.139 2.112-.416s1.024-.619 1.344-1.024.565-.939.736-1.6c.298-1.045.448-2.379.448-4zm23.153-8h-6.112V30h-4.448V11.184h-6.08V7.216h16.64zM191.477 30h-8.064c-2.56 0-4.363-.437-5.408-1.312-1.024-.896-1.536-2.464-1.536-4.704V7.216h15.008v3.968h-10.56v5.344h7.392l-.32 3.968h-7.072v3.168c0 .896.202 1.515.608 1.856.405.341 1.141.512 2.208.512h7.744zm5.911-2.68c.213.2.32.633.32 1.3s-.107 1.107-.32 1.32c-.2.213-.634.32-1.3.32-.667 0-1.107-.107-1.32-.32-.214-.213-.32-.653-.32-1.32s.106-1.1.32-1.3c.213-.213.653-.32 1.32-.32.666 0 1.1.107 1.3.32zm8.998-1.5l2.36-.02c-.013.107-.027.3-.04.58s-.027.473-.04.58c0 .093-.013.247-.04.46s-.06.373-.1.48c-.027.093-.067.22-.12.38-.24.693-.893 1.24-1.96 1.64a6.38 6.38 0 01-2.14.36c-.733 0-1.4-.12-2-.36s-1.073-.547-1.42-.92c-.787-.827-1.18-2.373-1.18-4.64 0-2.28.393-3.833 1.18-4.66.347-.373.82-.68 1.42-.92s1.267-.36 2-.36c1.44 0 2.533.36 3.28 1.08s1.12 1.72 1.12 3h-2.36c0-.587-.147-1.02-.44-1.3-.293-.293-.84-.44-1.64-.44-.787 0-1.313.247-1.58.74-.253.493-.38 1.233-.38 2.22v1.04c0 1.587.307 2.56.92 2.92.28.173.647.26 1.1.26s.82-.04 1.1-.12c.293-.093.5-.247.62-.46.133-.213.22-.42.26-.62.04-.213.067-.52.08-.92zm10.711-.98V23.8c0-.987-.147-1.74-.44-2.26-.28-.52-.873-.78-1.78-.78-1.467 0-2.2.987-2.2 2.96v1.04c0 2.12.733 3.18 2.2 3.18.947 0 1.567-.353 1.86-1.06.24-.56.36-1.24.36-2.04zm2.6-.6c0 2.467-.467 4.12-1.4 4.96-.787.72-1.927 1.08-3.42 1.08-1.907 0-3.193-.56-3.86-1.68-.627-1.027-.94-2.48-.94-4.36 0-1.76.313-3.14.94-4.14.693-1.12 1.953-1.68 3.78-1.68 1.84 0 3.113.493 3.82 1.48.72.973 1.08 2.42 1.08 4.34zm4.819 3.08c.214.2.32.633.32 1.3s-.106 1.107-.32 1.32c-.2.213-.633.32-1.3.32-.666 0-1.106-.107-1.32-.32-.213-.213-.32-.653-.32-1.32s.107-1.1.32-1.3c.214-.213.654-.32 1.32-.32.667 0 1.1.107 1.3.32zm5.659 2.68l-2.6.02V14.96h2.6zm7.673 0h-1.62c-.987 0-1.74-.293-2.26-.88-.507-.587-.76-1.287-.76-2.1v-6h-1.1v-1.98h1.1V16.8h2.6v2.24h1.84v1.98h-1.84v5.84c0 .627.3.94.9.94h1.14zm10.451 0h-1.74l-.8-1.38-2.78 1.5c-1.547 0-2.587-.56-3.12-1.68a6.466 6.466 0 01-.56-1.76c-.093-.64-.14-1.3-.14-1.98 0-.693.007-1.2.02-1.52.013-.333.047-.713.1-1.14.053-.44.127-.807.22-1.1.107-.293.253-.593.44-.9a2.36 2.36 0 01.68-.76c.6-.413 1.38-.62 2.34-.62h2.74v-3.7h2.6zm-2.6-3.64V21h-1.98c-.733 0-1.247.28-1.54.84-.28.56-.42 1.4-.42 2.52 0 1.107.133 1.887.4 2.34.28.453.8.68 1.56.68zM91.44 54h-3.22l-2.78-5.28h-2V54h-2.78V42.82c0-1.067.247-1.84.74-2.32.493-.493 1.32-.74 2.48-.74h2.36c1.413 0 2.533.433 3.36 1.3.84.853 1.26 1.94 1.26 3.26 0 .96-.253 1.793-.76 2.5-.493.693-1.107 1.173-1.84 1.44zm-5.38-7.6c.587 0 1.067-.2 1.44-.6.387-.413.58-.92.58-1.52 0-.613-.187-1.107-.56-1.48-.36-.373-.847-.56-1.46-.56h-1.38c-.827 0-1.24.42-1.24 1.26v2.9zm17.066 7.6h-5.04c-1.6 0-2.727-.273-3.38-.82-.64-.56-.96-1.54-.96-2.94V39.76h9.38v2.48h-6.6v3.34h4.62l-.2 2.48h-4.42v1.98c0 .56.127.947.38 1.16.253.213.713.32 1.38.32h4.84zm9.929-5.52h2.58c0 1.813-.453 3.207-1.36 4.18-.906.973-2.186 1.46-3.84 1.46-3.64 0-5.46-2.14-5.46-6.42v-1.2c0-3.373.934-5.487 2.8-6.34.734-.347 1.62-.52 2.66-.52 1.52 0 2.754.42 3.7 1.26.96.827 1.44 2.027 1.44 3.6h-2.6c-.146-.787-.406-1.38-.78-1.78-.373-.4-.96-.6-1.76-.6-.933 0-1.626.293-2.08.88-.32.413-.506 1.12-.56 2.12-.026.32-.04.753-.04 1.3v1.24c0 1.533.214 2.58.64 3.14.44.56 1.12.84 2.04.84.934 0 1.574-.253 1.92-.76.36-.52.594-1.32.7-2.4zM128.784 54h-3.22l-2.78-5.28h-2V54h-2.78V42.82c0-1.067.246-1.84.74-2.32.493-.493 1.32-.74 2.48-.74h2.36c1.413 0 2.533.433 3.36 1.3.84.853 1.26 1.94 1.26 3.26 0 .96-.254 1.793-.76 2.5-.494.693-1.107 1.173-1.84 1.44zm-5.38-7.6c.586 0 1.066-.2 1.44-.6.386-.413.58-.92.58-1.52 0-.613-.187-1.107-.56-1.48-.36-.373-.847-.56-1.46-.56h-1.38c-.827 0-1.24.42-1.24 1.26v2.9zm18.146-6.64v9.36c0 1.547-.527 2.767-1.58 3.66-1.04.893-2.327 1.34-3.86 1.34-1.534 0-2.827-.447-3.88-1.34-1.04-.893-1.56-2.113-1.56-3.66v-9.36h2.78v9.26c0 .88.24 1.54.72 1.98.493.427 1.14.64 1.94.64s1.446-.213 1.94-.64c.493-.44.74-1.1.74-1.98v-9.26zM147.229 54h-2.78V39.76h2.78zm12.574-11.76h-3.82V54h-2.78V42.24h-3.8v-2.48h10.4zM164.749 54h-2.78V39.76h2.78zm14.413-14.24v12.8c0 .44-.133.82-.4 1.14-.266.307-.58.46-.94.46-.92 0-1.673-.533-2.26-1.6l-4.92-7.7V54h-2.78V39.76h2.68l5.84 9.32v-9.32zm2.005 7.54v-1.76c0-1.853.486-3.3 1.46-4.34.973-1.04 2.32-1.56 4.04-1.56s3.1.52 4.14 1.56c.733.733 1.1 1.833 1.1 3.3h-2.6c0-1.587-.847-2.38-2.54-2.38-.507 0-.94.1-1.3.3-.347.187-.607.407-.78.66-.174.253-.307.627-.4 1.12a8.627 8.627 0 00-.16 1.24c-.014.333-.02.78-.02 1.34v1.14c.013.187.033.5.06.94.04.427.093.733.16.92.08.187.186.427.32.72.146.293.326.5.54.62.546.347 1.166.52 1.86.52 1.16 0 1.98-.493 2.46-1.48v-.96h-1.72v-2.32h4.1v4.3c-.414.973-1.067 1.707-1.96 2.2-.894.493-1.907.74-3.04.74-2.014 0-3.474-.56-4.38-1.68-.894-1.133-1.34-2.847-1.34-5.14z" fill="#fff"/></svg>