<svg fill="none" height="61" viewBox="0 0 250 61" width="250" xmlns="http://www.w3.org/2000/svg"><g fill="#fff"><path d="m60.9961 39.2576c-.1815-.0419-.3725-.0843-.5668-.1331-.0154-.0056-.0287-.0071-.0447-.0127 1.0375-2.2977 1.9034-4.8511 2.544-7.6914 2.1761-9.6235-.8658-18.2998-8.3416-23.80254-4.6967-3.45603-10.6562-5.29664-16.4146-5.29664-.0888 0-.1746.00179-.2613.00227-.079-.00417-.1612 0-.2365-.0149.0114.00513.0222.0112.0343.0168-.0145 0-.0289 0-.0432.00048 5.5765 2.54937 9.2452 7.02882 10.3501 12.61243 3.0944 2.3029 6.3804 6.6836 4.6055 14.5296-.5544 2.4369-1.3102 4.5916-2.2236 6.4946-2.554-.9695-5.2279-2.1138-7.7675-3.4109-.359-.1843-.7175-.3681-1.0667-.5566-.3542-.1885-.7032-.3816-1.0524-.5789-3.1708-1.7913-6.0168-3.8335-8.0158-6.0869-.2679-.3053-.5218-.6103-.7559-.9201-.244-.3141-.4641-.6329-.6694-.9559-1.0956-1.728-1.6644-3.5686-1.5066-5.4986.1021-1.2109.4637-2.2529 1.0791-3.1196.013-.0171.0217-.0376.0352-.0549h-.001c.004-.0055.0064-.0117.0104-.0168-.1196-.0586-.2485-.1121-.378-.1614-1.0091-.3816-2.2285-.5836-3.5294-.5836-.3877 0-.7844.0183-1.1817.0536-2.2812.1978-4.5773.9698-6.4136 2.1371-.048.3183-.0813.6413-.1101.9694-.2872 3.4966.4542 7.8591 3.9316 12.4558.2247.296.4593.5924.7076.8884.2441.2965.5024.5925.7701.8936 1.9707 2.1719 4.5823 4.376 8.0165 6.5439.3491.2247.7121.4444 1.0805.6692.3635.2151.732.4306 1.1098.646 1.3344.7632 2.7785 1.5218 4.3378 2.2715 1.5125.7266 3.0211 1.3795 4.5029 1.9872.2776.1173.5419.2351.8231.3519-2.0783 1.7703-4.3193 3.0567-6.5312 3.9805-.904.3858-1.8081.7094-2.6877.9788-.0089.0027-.0184.005-.0273.0083-1.6916.5189-3.525.5189-5.2165 0-.0089-.0033-.0179-.0056-.0273-.0083-.8798-.2695-1.7837-.593-2.6878-.9788-1.9964-.8335-4.0099-1.9839-5.9127-3.4974-.2044-.1651-.418-.3197-.6163-.4924 1.7381-.6943 3.5289-1.4697 5.324-2.3296 1.2979-.6241 2.4974-1.2557 3.639-1.8896.2267-.1219.4667-.2452.6868-.3667-.0024-.0015-.0044-.0032-.0068-.0051.0058-.0033.0129-.007.0187-.0103-.404-.2666-.796-.5334-1.1777-.801-.0307-.0213-.0621-.0427-.0923-.0645-.7071-.4971-1.3726-.9961-2.0064-1.4959-.1116-.0879-.2237-.1763-.3333-.2647-.5147-.4142-1.0007-.8293-1.4674-1.2441-.2186-.195-.4354-.3899-.6456-.5868-.3179-.2969-.6239-.5934-.9189-.8904-.3869-.3909-.7657-.7832-1.1184-1.1802-.0585-.0652-.122-.1308-.1795-.196-2.5395 1.297-5.2129 2.4415-7.7675 3.4109-.9134-1.903-1.6686-4.0577-2.2241-6.4946-1.7744-7.846 1.5115-12.2267 4.606-14.5295.0194-.0135.0338-.027.0526-.04.4453-.3281.909-.6288 1.392-.9023.4786-.2742.9759-.5254 1.4828-.7498 1.7312-.7627 3.6107-1.2477 5.4619-1.4093.4736-.0446.9423-.0628 1.4064-.0628 1.578 0 3.0945.2425 4.429.7494.4686.175.8991.3815 1.2914.6194.3729.2201.7121.4668 1.0136.7408.3015.2691.5693.5608.794.8795.6507.8797 1.0235 1.9482 1.1287 3.1913.1582 1.93-.4111 3.766-1.511 5.494 1.9033 2.3474 4.9307 4.4482 8.0684 6.1855 3.4772-4.5967 4.2181-8.9592 3.9316-12.4558-.0288-.3281-.0626-.6511-.1101-.9694-.0718-.503-.1677-.9968-.2871-1.4813-.1196-.5073-.2679-1.001-.4399-1.4814-1.5211-4.26404-4.9121-7.59903-9.714-9.42617-.9278-.35003-1.8893-.64169-2.8742-.86615-.8371-.19777-1.6886-.34527-2.5545-.44904-.8609-.1033-1.7313-.16156-2.6115-.17919-.167-.00465-.3346-.00465-.5068-.00465-5.7584 0-11.7227 1.84061-16.4146 5.29664-7.48062 5.50296-10.517589 14.17926-8.34149 23.80266.61738 2.7351 1.44651 5.198 2.43344 7.4285.03771.087.07084.1782.10905.2652-.21417.0536-.41462.0987-.61496.1433-2.81671.6466-4.538951 3.2184-3.845153 5.7455.588174 2.1366 2.712103 3.5547 5.055273 3.5547.43101 0 .8709-.0494 1.31079-.148.13889-.0317 1.43952-.3323 3.4723-.9112 1.60225 1.8178 3.32845 3.3619 5.11295 4.6772.344.2514.6888.4939 1.0378.7317.3635.2466.7271.4892 1.0955.718.3808.2393.7632.4678 1.1461.6884.1279.074.2558.1414.3843.2127.2549.1428.5102.2866.7657.4221.1527.0804.3054.155.4586.2332.2302.1177.4599.2363.6894.3481.165.08.3293.1542.4938.2314.2167.1015.434.2038.6497.3002.1696.0754.3377.1456.5064.2173.2102.0903.4209.1815.6308.2671.17.0694.3386.134.5077.2005.2054.0806.4106.1615.6149.2378.1702.0633.3388.1233.5079.1839.2003.0717.4006.1438.5994.2113.1688.0572.3348.1117.502.1661.127.0418.2558.0865.3819.1265.0485.0154.0977.0279.1462.0433.078.0242.1572.0517.2341.0749 3.9257 1.2021 8.1602 1.2021 12.0857 0 .0775-.0232.1567-.0507.2346-.0754.0486-.0149.0978-.0274.1463-.0428.1255-.04.2539-.0847.3805-.126.1675-.0551.3346-.1094.5037-.1666.1979-.0674.3977-.1391.5976-.2109.1696-.061.3387-.121.5093-.1847.2039-.0759.408-.1564.6129-.2369.1702-.0665.3393-.1318.5099-.201.2092-.0856.4194-.1764.6298-.2661.1686-.0727.3372-.1429.5068-.2183.2162-.0964.4329-.1992.6501-.3007.1642-.0767.3283-.1509.4935-.2309.2295-.1113.4592-.2304.6893-.3477.1528-.0786.3055-.1532.4587-.2336.2544-.135.5083-.2778.7628-.4199.1293-.0725.2583-.1404.3877-.2149.3829-.2206.7647-.4496 1.1461-.6884.3679-.229.7315-.4714 1.095-.718.3491-.2378.6933-.4803 1.0378-.7317 1.7838-1.3152 3.5057-2.8594 5.1084-4.6772 2.0372.5789 3.3335.8795 3.4768.9112.4399.0987.8752.148 1.3057.148 2.3487 0 4.4721-1.4181 5.0603-3.5547.6938-2.5271-1.0285-5.0989-3.8503-5.7453z"/><path d="m96.472 11.184h-6.112v18.816h-4.448v-18.816h-6.08v-3.968h16.64zm18.473 18.816h-8.064c-2.56 0-4.362-.4373-5.408-1.312-1.024-.896-1.5357-2.464-1.5357-4.704v-16.768h15.0077v3.968h-10.56v5.344h7.392l-.32 3.968h-7.072v3.168c0 .896.203 1.5147.608 1.856.406.3413 1.142.512 2.208.512h7.744zm19.183-18.816h-6.112v18.816h-4.448v-18.816h-6.08v-3.968h16.64zm20.17 6.368v1.728c0 3.8187-.726 6.592-2.176 8.32-1.43 1.728-3.734 2.592-6.912 2.592-3.179 0-5.483-.864-6.912-2.592-1.408-1.728-2.112-4.5333-2.112-8.416v-1.664c0-3.5413.714-6.176 2.144-7.904 1.45-1.728 3.733-2.592 6.848-2.592 3.136 0 5.44.87467 6.912 2.624 1.472 1.7493 2.208 4.384 2.208 7.904zm-4.448 1.632v-1.184c0-2.048-.256-3.68-.768-4.896-.598-1.408-1.878-2.112-3.84-2.112-1.984 0-3.275.704-3.872 2.112-.491 1.152-.736 2.784-.736 4.896v1.184c0 2.752.384 4.608 1.152 5.568.298.4053.736.7573 1.312 1.056.597.2773 1.301.416 2.112.416.832 0 1.536-.1387 2.112-.416s1.024-.6187 1.344-1.024.565-.9387.736-1.6c.298-1.0453.448-2.3787.448-4zm23.153-8h-6.112v18.816h-4.448v-18.816h-6.08v-3.968h16.64zm18.474 18.816h-8.064c-2.56 0-4.363-.4373-5.408-1.312-1.024-.896-1.536-2.464-1.536-4.704v-16.768h15.008v3.968h-10.56v5.344h7.392l-.32 3.968h-7.072v3.168c0 .896.202 1.5147.608 1.856.405.3413 1.141.512 2.208.512h7.744zm5.911-2.68c.213.2.32.6333.32 1.3s-.107 1.1067-.32 1.32c-.2.2133-.634.32-1.3.32-.667 0-1.107-.1067-1.32-.32-.214-.2133-.32-.6533-.32-1.32s.106-1.1.32-1.3c.213-.2133.653-.32 1.32-.32.666 0 1.1.1067 1.3.32zm8.998-1.5 2.36-.02c-.013.1067-.027.3-.04.58s-.027.4733-.04.58c0 .0933-.013.2467-.04.46s-.06.3733-.1.48c-.027.0933-.067.22-.12.38-.24.6933-.893 1.24-1.96 1.64-.68.24-1.393.36-2.14.36-.733 0-1.4-.12-2-.36s-1.073-.5467-1.42-.92c-.787-.8267-1.18-2.3733-1.18-4.64 0-2.28.393-3.8333 1.18-4.66.347-.3733.82-.68 1.42-.92s1.267-.36 2-.36c1.44 0 2.533.36 3.28 1.08s1.12 1.72 1.12 3h-2.36c0-.5867-.147-1.02-.44-1.3-.293-.2933-.84-.44-1.64-.44-.787 0-1.313.2467-1.58.74-.253.4933-.38 1.2333-.38 2.22v1.04c0 1.5867.307 2.56.92 2.92.28.1733.647.26 1.1.26s.82-.04 1.1-.12c.293-.0933.5-.2467.62-.46.133-.2133.22-.42.26-.62.04-.2133.067-.52.08-.92zm10.711-.98v-1.04c0-.9867-.147-1.74-.44-2.26-.28-.52-.873-.78-1.78-.78-1.467 0-2.2.9867-2.2 2.96v1.04c0 2.12.733 3.18 2.2 3.18.947 0 1.567-.3533 1.86-1.06.24-.56.36-1.24.36-2.04zm2.6-.6c0 2.4667-.467 4.12-1.4 4.96-.787.72-1.927 1.08-3.42 1.08-1.907 0-3.193-.56-3.86-1.68-.627-1.0267-.94-2.48-.94-4.36 0-1.76.313-3.14.94-4.14.693-1.12 1.953-1.68 3.78-1.68 1.84 0 3.113.4933 3.82 1.48.72.9733 1.08 2.42 1.08 4.34zm4.819 3.08c.214.2.32.6333.32 1.3s-.106 1.1067-.32 1.32c-.2.2133-.633.32-1.3.32-.666 0-1.106-.1067-1.32-.32-.213-.2133-.32-.6533-.32-1.32s.107-1.1.32-1.3c.214-.2133.654-.32 1.32-.32.667 0 1.1.1067 1.3.32zm5.659 2.68-2.6.02v-15.06h2.6zm7.673 0h-1.62c-.987 0-1.74-.2933-2.26-.88-.507-.5867-.76-1.2867-.76-2.1v-6h-1.1v-1.98h1.1v-2.24h2.6v2.24h1.84v1.98h-1.84v5.84c0 .6267.3.94.9.94h1.14zm10.451 0h-1.74l-.8-1.38-2.78 1.5c-1.547 0-2.587-.56-3.12-1.68-.267-.5467-.453-1.1333-.56-1.76-.093-.64-.14-1.3-.14-1.98 0-.6933.007-1.2.02-1.52.013-.3333.047-.7133.1-1.14.053-.44.127-.8067.22-1.1.107-.2933.253-.5933.44-.9.187-.32.413-.5733.68-.76.6-.4133 1.38-.62 2.34-.62h2.74v-3.7h2.6zm-2.6-3.64v-5.36h-1.98c-.733 0-1.247.28-1.54.84-.28.56-.42 1.4-.42 2.52 0 1.1067.133 1.8867.4 2.34.28.4533.8.68 1.56.68zm-154.259 27.64h-3.22l-2.78-5.28h-2v5.28h-2.78v-11.18c0-1.0667.2467-1.84.74-2.32.4933-.4933 1.32-.74 2.48-.74h2.36c1.4133 0 2.5333.4333 3.36 1.3.84.8533 1.26 1.94 1.26 3.26 0 .96-.2533 1.7933-.76 2.5-.4933.6933-1.1067 1.1733-1.84 1.44zm-5.38-7.6c.5867 0 1.0667-.2 1.44-.6.3867-.4133.58-.92.58-1.52 0-.6133-.1867-1.1067-.56-1.48-.36-.3733-.8467-.56-1.46-.56h-1.38c-.8267 0-1.24.42-1.24 1.26v2.9zm17.066 7.6h-5.0401c-1.6 0-2.7266-.2733-3.38-.82-.64-.56-.96-1.54-.96-2.94v-10.48h9.3801v2.48h-6.6001v3.34h4.6201l-.2 2.48h-4.4201v1.98c0 .56.1267.9467.38 1.16.2534.2133.7134.32 1.38.32h4.8401zm9.929-5.52h2.58c0 1.8133-.453 3.2067-1.36 4.18-.906.9733-2.186 1.46-3.84 1.46-3.64 0-5.46-2.14-5.46-6.42v-1.2c0-3.3733.934-5.4867 2.8-6.34.734-.3467 1.62-.52 2.66-.52 1.52 0 2.754.42 3.7 1.26.96.8267 1.44 2.0267 1.44 3.6h-2.6c-.146-.7867-.406-1.38-.78-1.78-.373-.4-.96-.6-1.76-.6-.933 0-1.626.2933-2.08.88-.32.4133-.506 1.12-.56 2.12-.026.32-.04.7533-.04 1.3v1.24c0 1.5333.214 2.58.64 3.14.44.56 1.12.84 2.04.84.934 0 1.574-.2533 1.92-.76.36-.52.594-1.32.7-2.4zm15.729 5.52h-3.22l-2.78-5.28h-2v5.28h-2.78v-11.18c0-1.0667.246-1.84.74-2.32.493-.4933 1.32-.74 2.48-.74h2.36c1.413 0 2.533.4333 3.36 1.3.84.8533 1.26 1.94 1.26 3.26 0 .96-.254 1.7933-.76 2.5-.494.6933-1.107 1.1733-1.84 1.44zm-5.38-7.6c.586 0 1.066-.2 1.44-.6.386-.4133.58-.92.58-1.52 0-.6133-.187-1.1067-.56-1.48-.36-.3733-.847-.56-1.46-.56h-1.38c-.827 0-1.24.42-1.24 1.26v2.9zm18.146-6.64v9.36c0 1.5467-.527 2.7667-1.58 3.66-1.04.8933-2.327 1.34-3.86 1.34-1.534 0-2.827-.4467-3.88-1.34-1.04-.8933-1.56-2.1133-1.56-3.66v-9.36h2.78v9.26c0 .88.24 1.54.72 1.98.493.4267 1.14.64 1.94.64s1.446-.2133 1.94-.64c.493-.44.74-1.1.74-1.98v-9.26zm5.679 14.24h-2.78v-14.24h2.78zm12.574-11.76h-3.82v11.76h-2.78v-11.76h-3.8v-2.48h10.4zm4.946 11.76h-2.78v-14.24h2.78zm14.413-14.24v12.8c0 .44-.133.82-.4 1.14-.266.3067-.58.46-.94.46-.92 0-1.673-.5333-2.26-1.6l-4.92-7.7v9.14h-2.78v-14.24h2.68l5.84 9.32v-9.32zm2.005 7.54v-1.76c0-1.8533.486-3.3 1.46-4.34.973-1.04 2.32-1.56 4.04-1.56s3.1.52 4.14 1.56c.733.7333 1.1 1.8333 1.1 3.3h-2.6c0-1.5867-.847-2.38-2.54-2.38-.507 0-.94.1-1.3.3-.347.1867-.607.4067-.78.66-.174.2533-.307.6267-.4 1.12-.094.4933-.147.9067-.16 1.24-.014.3333-.02.78-.02 1.34v1.14c.013.1867.033.5.06.94.04.4267.093.7333.16.92.08.1867.186.4267.32.72.146.2933.326.5.54.62.546.3467 1.166.52 1.86.52 1.16 0 1.98-.4933 2.46-1.48v-.96h-1.72v-2.32h4.1v4.3c-.414.9733-1.067 1.7067-1.96 2.2-.894.4933-1.907.74-3.04.74-2.014 0-3.474-.56-4.38-1.68-.894-1.1333-1.34-2.8467-1.34-5.14z"/></g></svg>