<svg fill="none" height="277" viewBox="0 0 327 277" width="327" xmlns="http://www.w3.org/2000/svg"><path d="m55.28 93.7563s5.1895-1.2172 8.3849-4.1932c3.6376-3.3851 3.6291-5.6827 3.6291-5.6827l9.7635 5.5564s-.1281 1.8686-3.1045 5.8006c-3.1183 4.1201-6.3536 5.4526-8.3745 6.0876-.5225.164-.8305.237-.8305.237z" fill="#f2f2f2"/><path d="m216.511 66.1669s5.321.2842 9.214-1.6785c4.429-2.2337 5.057-4.4425 5.057-4.4425l7.841 8.0692s-.64 1.7607-4.586 4.7031c-4.135 3.0845-7.612 3.4595-9.728 3.5029-.547.0106-.863-.0039-.863-.0039z" fill="#f2f2f2"/><path d="m239.503 81.9053s1.499 5.1439 4.631 8.1883c3.563 3.4634 5.843 3.3259 5.843 3.3259l-4.966 10.1185s-1.863-.024-5.931-2.792c-4.264-2.9017-5.768-6.0757-6.511-8.0706-.192-.5152-.283-.8212-.283-.8212z" fill="#f2f2f2"/><g fill="#ffbe55"><g opacity=".3"><path d="m200.544 159.13c-.052 1.23-.137 3.678-.209 5.836h-58.664v4.626h2.95v23.619c-14.113-8.157-22.445-12.52-41.496-9.579-5.1349.795-10.0719 1.434-14.8075 1.75-.1439-1.428-.3336-3.245-.5422-5.139.17-.086.3335-.171.4905-.263 0 0-2.7468-16.857-4.0744-21.791l.3858-.224s-.1569-1.712-.327-4.034c1.8051-.198 8.574-1.014 9.2934-2.098.4055-.612.6088-1.29.6998-1.816l2.7075-.507.654-2.164 52.7251-.277v12.12c0 1.085.877 1.967 1.956 1.967h5.99l-1.616 3.691h16.142v-1.053h-9.379l1.105-2.639h10.974c1.079 0 1.956-.881 1.956-1.967v-12.258l7.442-.039 4.538 5.796c.785 1.001 2.192 1.237 3.257.552 1.962-1.263 5.101-3.308 7.619-5.112.164 3.91.347 8.292.23 11.003z"/><path d="m67.6118 158.466c-1.5375 4.369-3.185 12.251-1.5827 23.904 0 0 .4709.066 1.2943.151.0327.381.0654.777.0981 1.178-6.9265-1.994-13.2507-5.731-18.947-12.087-12.9231-14.416-9.8754-40.28 19.2217-50.729-.2224 4.113.0916 5.942-.3859 8.364-.1046.42-.1831.756-.2354.98-.0137.059-.0262.118-.0458.184 0 .013-.0065.033-.0065.046-.157.552-.3532 1.144-.6017 1.809-.2093.553-.2812.953-.242 1.23v.006c-.8567 1.166-1.5827 3.33-2.289 7.094-.7063 3.763-1.1379 7.941-.8109 8.592.1242.257.8632.337 1.72.337 1.3276 0 2.9364-.192 2.9364-.192.4317-.025.9097-.071 1.4127-.124.4251 3.073-1.962 9.125-1.962 9.125z"/><path d="m250.398 122.91c-16.632-6.54-27.919-9.244-37.494-31.121-9.575-21.8771-16.357-36.0501-41.084-40.0571-19.961-3.2372-39.41 1.5666-50.358 14.0744l6.468-.0336 28.07-.1454 35.787-.1836c4.159-.0256 7.554 3.3556 7.573 7.5409l.341 66.2494v.196c.373-.196.798-.354 1.236-.479 1.237-1.133 3.787-2.396 5.932-2.783 0 0 0 .006-.007.019.059-.019.092-.033.092-.033l5.945.336s5.984 3.368 7.357 4.224c.89.553.02 5.152-.745 8.967 7.494.35 8.057 1.803 8.057 1.803s-.877 6.442-1.923 13.482h13.629v4.626h-3.165v6.072c4.33-2.493 9.176-4.823 14.689-6.849 37.264-13.685 19.972-37.898-.4-45.905zm-35.558 4.132c-1.315 4.592-2.419 5.092-2.419 5.092-1.204 1.256-5.612 2.804-6.593 2.704-.974-.098-1.727-3.382-1.981-3.645-.249-.27-1.439-.572-1.276-.981.157-.413 1.393-2.954.824-3.283-.483-.283.06-1.645.425-2.427 0 0-2.818-2.862-.392-4.224 6.926-3.895 8.842.934 9.378 1.073.537.138 3.557.341 2.034 5.691z"/><path d="m214.84 127.042c-1.315 4.592-2.42 5.092-2.42 5.092-1.203 1.256-5.611 2.804-6.592 2.704-.974-.098-1.727-3.382-1.981-3.645-.249-.27-1.439-.572-1.276-.981.157-.413 1.393-2.954.824-3.283-.483-.283.06-1.645.425-2.427 0 0-2.818-2.862-.392-4.224 6.926-3.895 8.842.934 9.378 1.073.537.138 3.557.341 2.034 5.691z"/><path d="m84.5563 133.688c-.5559-.54-1.085-.974-1.5231-1.192-1.5696-.789-4.3956-1.309-5.304-1.467l-.981-.855c-.0785-.257-.1635-.52-.2354-.796-.0713-.27-.1374-.54-.1962-.81.3074.053.5559.073.7325.08 1.0594.019 2.0143-3.034 2.0143-3.034s.909-.184 1.1307-.321c.2159-.139-.6468-2.929-.3662-3.876.2871-.947.412-2.152.412-2.152.0589-.566.0196-1.105-.1112-1.612 1.5239-.315 2.9692-.658 4.3426-1.013z"/><path d="m97.6036 147.346-.654 2.164-2.7075.508c-.0916.525-.2943 1.204-.6998 1.815-.7194 1.085-7.4883 1.901-9.2934 2.099.1701 2.322.327 4.034.327 4.034l-.3858.223c1.3276 4.935 4.0744 21.791 4.0744 21.791-.157.093-.3205.178-.4905.263.2086 1.895.3983 3.712.5422 5.14-2.4068.15-4.7605.23-7.0567.196-2.5375-.04-5.009-.21-7.4164-.546-2.1967-.302-4.336-.742-6.4216-1.335-.0333-.4-.066-.796-.0981-1.178-.824-.085-1.2943-.151-1.2943-.151-1.6023-11.653.0452-19.535 1.5827-23.903l-.4251-.133s2.3871-6.052 1.962-9.125c-.5035.053-.981.099-1.4126.125 0 0-1.6088.191-2.9365.191-.8567 0-1.5951-.08-1.72-.337-.327-.65.1047-4.829.811-8.592.7063-3.764 1.4322-5.928 2.289-7.094v-.006c-.0393-.276.0327-.677.2419-1.23.2486-.664.4448-1.257.6017-1.809 0-.013.0066-.034.0066-.046.0196-.066.0327-.125.0457-.184.0524-.224.1308-.56.2355-.98.4768-2.421.1635-4.251.3859-8.364.255-.091.5166-.183.7847-.276.1178-.04.2348-.078.3526-.124 1.7533-.592 3.6042-1.126 5.5459-1.605 1.2949-.322 2.6291-.613 4.009-.875.497-.093.9875-.192 1.465-.297.0915-.013.1831-.032.2746-.052.1308.507.1701 1.046.1112 1.612 0 0-.1242 1.204-.412 2.152-.2812.947.5821 3.737.3662 3.876-.2223.137-1.1307.321-1.1307.321s-.9549 3.053-2.0144 3.034c-.1772-.007-.425-.027-.7324-.08.0588.27.1242.54.1962.809.0719.277.1569.54.2354.797l.981.855c.9091.158 3.7344.678 5.304 1.467.4381.217.9672.651 1.5231 1.192v.158l.0334 5.671v.309c.0065 1.04.2158 2.033.5945 2.934.0523.112.1046.224.1504.329 1.2295 2.547 3.8324 4.297 6.8277 4.284z"/><path d="m110.102 96.4137v5.8033c0 1.053-.843 1.908-1.896 1.908h-2.119c1.85-2.554 3.061-5.2907 3.964-8.1396.031.1394.051.2829.051.4283z"/><path d="m110.102 111.553v5.804c0 1.058-.843 1.914-1.896 1.914h-5.768c-1.047 0-1.897-.856-1.897-1.914v-5.804c0-1.052.851-1.908 1.897-1.908h5.768c1.053 0 1.896.856 1.896 1.908z"/><path d="m110.102 126.699v5.803c0 1.053-.843 1.908-1.896 1.908h-5.768c-1.047 0-1.897-.856-1.897-1.908v-5.803c0-1.059.851-1.915 1.897-1.915h5.768c1.053 0 1.896.856 1.896 1.915z"/><path d="m177.458 146.931v12.259c0 1.085-.877 1.967-1.956 1.967h-10.974l-1.105 2.638h9.379v1.053h-16.142l1.616-3.69h-5.99c-1.079 0-1.956-.882-1.956-1.968v-12.119z"/><path d="m183.408 81.5044h-67.407v2.3621h67.407z"/><path d="m183.408 96.6243h-67.407v2.362h67.407z"/><path d="m183.408 112.968h-67.407v2.369h67.407z"/><path d="m183.408 128.095h-67.407v2.362h67.407z"/><path d="m239.273 164.966v4.626h-3.165v6.073c-.877.5-1.727 1.007-2.557 1.52-.491.303-.968.605-1.446.909-9.862 6.329-16.951 13.362-23.648 19.047-1.956 1.658-3.872 3.204-5.82 4.587-3.415 2.421-6.907 4.329-10.799 5.447-2.111.612-4.336.987-6.736 1.085-8.404.349-18.874-2.711-33.628-11.093-1.112-.631-2.185-1.243-3.218-1.849-.491-.276-.967-.559-1.445-.835-.746-.428-1.478-.856-2.191-1.271v-23.62h-2.951v-4.626h58.664c.072-2.157.157-4.605.21-5.835.117-2.712-.066-7.094-.23-11.002-2.518 1.803-5.656 3.849-7.618 5.112-1.066.685-2.473.449-3.257-.552l-4.538-5.796 7.305-.04c4.094-.021 7.416-3.33 7.495-7.423.372-.196.797-.354 1.236-.479 1.236-1.133 3.786-2.396 5.931-2.784 0 0 0 .007-.006.02.059-.02.091-.033.091-.033l5.945.336s5.984 3.368 7.358 4.224c.889.553.019 5.152-.746 8.967 7.495.35 8.057 1.803 8.057 1.803s-.877 6.442-1.922 13.482z"/></g><path d="m110.102 96.4137v5.8033c0 1.053-.843 1.908-1.896 1.908h-5.768c-1.047 0-1.897-.856-1.897-1.908v-5.8033c0-1.0527.851-1.9081 1.897-1.9081h5.768c.902 0 1.654.6323 1.844 1.4804.032.1388.052.2823.052.4277z" opacity=".7"/><path d="m110.102 81.3861v5.8032c0 1.0586-.843 1.9146-1.896 1.9146h-5.768c-1.047 0-1.897-.856-1.897-1.9146v-5.8032c0-1.0527.851-1.9081 1.897-1.9081h5.768c1.053 0 1.896.856 1.896 1.9081z" opacity=".7"/><path d="m110.102 111.553v5.804c0 1.058-.843 1.914-1.896 1.914h-5.768c-1.047 0-1.897-.856-1.897-1.914v-5.804c0-1.052.851-1.908 1.897-1.908h5.768c1.053 0 1.896.856 1.896 1.908z" opacity=".7"/><path d="m110.102 126.699v5.803c0 1.053-.843 1.908-1.896 1.908h-5.768c-1.047 0-1.897-.856-1.897-1.908v-5.803c0-1.059.851-1.915 1.897-1.915h5.768c1.053 0 1.896.856 1.896 1.915z" opacity=".7"/><path d="m199.359 72.9846c-.018-4.1853-3.413-7.5665-7.573-7.5409l-35.787.1836-28.069.1454-6.468.0336-29.7123.1507c-4.1654.0269-7.521 3.4352-7.5014 7.627l.2223 43.056.0851 17.048v.158l.0333 5.671v.309c.0066 1.04.2158 2.034.5945 2.934.0523.112.1046.224.1504.329 1.2295 2.547 3.8325 4.297 6.8278 4.284l5.4406-.026 52.7257-.276 27.128-.139 7.442-.039 7.305-.04c4.094-.021 7.417-3.33 7.495-7.423v-.196zm-89.257 59.5184c0 1.052-.843 1.908-1.896 1.908h-5.768c-1.047 0-1.897-.856-1.897-1.908v-5.803c0-1.059.851-1.915 1.897-1.915h5.768c1.053 0 1.896.856 1.896 1.915zm0-15.146c0 1.058-.843 1.914-1.896 1.914h-5.768c-1.047 0-1.897-.856-1.897-1.914v-5.804c0-1.052.851-1.908 1.897-1.908h5.768c1.053 0 1.896.856 1.896 1.908zm0-15.14c0 1.053-.843 1.908-1.896 1.908h-5.768c-1.047 0-1.897-.856-1.897-1.908v-5.8032c0-1.0527.851-1.9081 1.897-1.9081h5.768c.902 0 1.654.6323 1.844 1.4804.033.1388.052.2829.052.4277zm0-15.0271c0 1.0587-.843 1.9146-1.896 1.9146h-5.768c-1.047 0-1.897-.8559-1.897-1.9146v-5.8032c0-1.0527.851-1.9081 1.897-1.9081h5.768c1.053 0 1.896.856 1.896 1.9081zm73.306 43.2661h-67.407v-2.362h67.407zm0-15.119h-67.407v-2.369h67.407zm0-16.3506h-67.407v-2.3621h67.407zm0-15.1199h-67.407v-2.362h67.407z" opacity=".6"/><path d="m183.408 81.5044h-67.407v2.3621h67.407z" opacity=".7"/><path d="m183.408 96.6243h-67.407v2.362h67.407z" opacity=".7"/><path d="m183.408 112.968h-67.407v2.369h67.407z" opacity=".7"/><path d="m183.408 128.095h-67.407v2.362h67.407z" opacity=".7"/></g><path d="m183.408 81.5046h-67.407v2.3621h67.407z" fill="#fff"/><path d="m183.408 96.6245h-67.407v2.3621h67.407z" fill="#fff"/><path d="m183.408 112.968h-67.407v2.369h67.407z" fill="#fff"/><path d="m183.408 128.095h-67.407v2.362h67.407z" fill="#fff"/><path d="m110.102 81.3861v5.8032c0 1.0586-.843 1.9146-1.896 1.9146h-5.768c-1.047 0-1.897-.856-1.897-1.9146v-5.8032c0-1.0527.851-1.9081 1.897-1.9081h5.768c1.053 0 1.896.856 1.896 1.9081z" fill="#ffbe55"/><path d="m110.102 111.553v5.804c0 1.058-.843 1.914-1.896 1.914h-5.768c-1.047 0-1.897-.856-1.897-1.914v-5.804c0-1.052.851-1.908 1.897-1.908h5.768c1.053 0 1.896.856 1.896 1.908z" fill="#ffbe55"/><path d="m104.996 116.783-2.655-2.32c-.218-.192-.24-.522-.051-.742.188-.218.517-.241.736-.051l1.876 1.641 2.671-3.004c.191-.217.52-.235.736-.042.216.194.235.525.041.742z" fill="#fff"/><path d="m110.102 96.4139v5.8031c0 1.053-.843 1.908-1.896 1.908h-5.768c-1.047 0-1.897-.856-1.897-1.908v-5.8031c0-1.0527.851-1.908 1.897-1.908h5.768c.902 0 1.654.6323 1.844 1.4804.032.1388.052.2822.052.4276z" fill="#ffbe55"/><path d="m104.996 101.641-2.655-2.3197c-.218-.1914-.24-.523-.051-.7415.188-.2197.517-.2428.736-.0526l1.876 1.6408 2.671-3.0041c.191-.2158.52-.2336.736-.0408.216.1941.235.5257.041.7402z" fill="#fff"/><path d="m110.102 126.699v5.803c0 1.053-.843 1.908-1.896 1.908h-5.768c-1.047 0-1.897-.856-1.897-1.908v-5.803c0-1.059.851-1.915 1.897-1.915h5.768c1.053 0 1.896.856 1.896 1.915z" fill="#ffbe55"/><path d="m104.996 131.926-2.655-2.319c-.218-.191-.24-.522-.051-.743.188-.219.517-.242.736-.052l1.876 1.641 2.671-3.004c.191-.216.52-.233.736-.04s.235.524.041.739z" fill="#fff"/><path d="m104.207 85.0246c0-.1244.006-.2441.024-.3586.015-.1145.046-.2224.092-.329s.113-.2053.198-.298c.087-.0928.201-.1764.34-.252.071-.0388.164-.0888.28-.1514.118-.0605.231-.1335.341-.2144.11-.081.205-.1764.286-.283.081-.1052.123-.2224.123-.352 0-.1783-.067-.3184-.195-.4191-.131-.1026-.278-.1513-.446-.1513-.106 0-.205.0204-.287.0618-.083.0402-.159.0902-.226.1454-.068.0579-.126.1224-.175.1928-.047.0691-.091.1323-.128.1875l-.834-.5875c.141-.3316.364-.5889.669-.7738.304-.1836.648-.275 1.03-.275.206 0 .411.0283.614.0875.205.0619.39.1566.55.2856.165.1296.295.298.398.5053.101.2052.154.4559.154.7494 0 .3086-.065.5691-.191.7777-.127.2086-.314.3921-.562.5487-.113.077-.229.1454-.344.2046-.115.0606-.222.1224-.32.1876-.095.0658-.174.1388-.234.2197-.058.0809-.09.1783-.09.2928h-1.067zm.024 1.9943v-1.2219h1.059v1.2219z" fill="#fff"/><path d="m238.103 143.774s1.65-.288 1.619-.962c-.034-.676.25-1.597.353-1.882.139-.38.153-1.728.609-1.536.454.192.076 2.227.076 2.671.001.447 1.43-.8 1.864-.804s2.279 2.686 1.205 3.417c-1.076.732-2.693.745-2.857.913-.164.169-1.588.734-1.588.734z" fill="#eea886"/><path d="m242.333 141.367s3.438-2.004 3.774-1.929c.339.073.433.28.119.481-.313.202-3.266 2.041-3.266 2.041s4.455-1.632 4.742-1.637c.17-.002.375.39.216.514s-4.483 2.014-4.483 2.014 4.163-1.515 4.405-1.442c.214.065.318.474.018.608-.301.135-4.087 1.776-4.087 1.776s3.1-.897 3.274-.706c.106.117.298.446-.509.651s-2.659.902-2.659.902z" fill="#eea886"/><path d="m217.428 186.757 6.747 28.305h1.486l-5.722-28.367z" fill="#858585"/><path d="m210.065 186.757 6.75 28.305h1.486l-5.723-28.367z" fill="#858585"/><path d="m201.84 186.757-6.747 28.305h-1.488l5.722-28.367z" fill="#858585"/><path d="m227.567 151.484s-.877 6.442-1.923 13.482c-.091.599-.183 1.197-.274 1.803v.006c-.125.823-.249 1.645-.373 2.461-.02.118-.039.236-.059.356-.262 1.697-.523 3.355-.785 4.894-.294 1.776-.575 3.389-.83 4.718-.131.658-.249 1.244-.36 1.744-.268 1.183-.557 2.131-.857 2.901-1.21 3.151-2.525 3.185-2.525 3.185h-29.077c-.202-2.803.576-7.514.576-7.514l.327-.428 7.28-9.5.274-.356 1.294-1.691v-.007l1.066-1.387.563-.731.347-.454.097-.124.53-.698 11.112-14.501c2.17-.046 4.002-.02 5.539.039 7.496.349 8.058 1.802 8.058 1.802z" fill="#e2d2ca"/><path d="m200.787 169.165 3.789-.665-2.527-6.401z" fill="#24263d"/><path d="m185.507 212.254s-2.491 1.49-3.618 2.045c-1.13.554-5.518.723-5.951 1.139-.433.415-.271 1.735.456 1.868.728.133 6.065.605 7.844.18 1.779-.423 5.11.274 5.847.021.737-.255.251-4.253-.037-5.149-.287-.897-4.541-.104-4.541-.104z" fill="#0e538c"/><path d="m185.546 210.561-.039 1.693s3.337.619 4.542.104l-.084-1.858z" fill="#1c1e30"/><path d="m216.507 172.49s-19.048 4.069-22.021 5.339-4.756 1.795-4.978 2.429c-.225.636-4.868 31.028-4.868 31.028h6.317s4.904-22.953 5.499-24.374c.594-1.42 24.153-1.496 25.861-3.216 1.709-1.719 3.196-6.429 1.338-10.653s-7.148-.553-7.148-.553z" fill="#282b45"/><path d="m208.734 213.454s-2.236 1.856-3.266 2.578c-1.031.721-5.343 1.564-5.708 2.043-.364.477-.004 1.756.737 1.775.74.02 6.084-.336 7.778-1.029 1.695-.69 5.092-.515 5.781-.88.691-.364-.397-4.239-.818-5.081-.42-.844-4.504.594-4.504.594z" fill="#0e538c"/><path d="m208.515 211.777.219 1.678s3.393.097 4.504-.595l-.366-1.823z" fill="#0e538c"/><path d="m217.699 169.658s-20.646 9.471-21.984 12.54c-1.362 3.125 12.051 30.427 12.051 30.427l6.169-.959s-10.086-25.968-9.534-27.265c.553-1.297 33.263-5.217 25.715-13.952-7.548-8.737-12.417-.791-12.417-.791z" fill="#282b45"/><path d="m217.609 140.392c.991-.518 4.296.617 5.272 2.146 2.27 3.556 6.559 7.948 6.559 7.948l9.562-8.088 1.917 4.821-11.351 9.626c-.968.819-2.395.769-3.302-.118-2.983-2.912-9.119-9.036-9.593-10.568-.627-2.026-.958-4.776.936-5.767z" fill="#0b4870"/><path d="m219.51 149.681c-.419 2.106-.811 3.975-.85 4.791-.066 1.276-1.316 6.31-2.401 10.494-.379 1.454-.739 2.809-1.02 3.862l-.112.408-.091.356h-.007l-.386 1.44-6.507-1.44-1.602-.356-2.721-.606-1.322-.288c.079-.283.053-1.014-.026-2.02-.032-.409-.078-.869-.123-1.356-.007-.041-.014-.085-.014-.125-.065-.618-.144-1.282-.229-1.974v-.006c-.026-.205-.046-.415-.078-.633-.314-2.566-.694-5.355-.903-7.157-.183-1.599-.379-4.376-.49-7.172-.151-3.954-.138-7.936.32-8.64.085-.131.222-.27.398-.414 1.328-1.073 4.899-2.427 5.514-2.658.059-.02.092-.033.092-.033l5.945.336s5.984 3.368 7.357 4.224c.891.553.021 5.152-.744 8.967z" fill="#fff"/><path d="m214.645 171.033.596-2.206-12.773-2.503.027 2.017z" fill="#1f2136"/><path d="m208.292 167.351-3.029-.636v2.411l3.029.71z" fill="#4f558a"/><path d="m209.65 161.074c.033.631.073 1.271.105 1.917l.01.008c.431 7.095 1.074 14.517 1.074 14.517.886.746 12.142-1.885 12.142-1.885s-1.386-1.892-2.721-7.135c-1.343-5.235-.293-10.265 1.099-18.784 1.384-8.52.236-8.472.236-8.472l-8.696-4.751c-.569 2.179-2.875 10.085-3.42 14.615-.194 1.654-.073 5.612.171 9.97z" fill="#0b4870"/><path d="m206.868 136.167s0 .007-.007.02c-.078.198-.746 1.967-1.517 4.514-.373 1.23-.765 2.638-1.131 4.138 0 0 0 .006-.007.006-.359 1.474-.693 3.047-.941 4.619-.583 3.606-.837 8.758-1.125 12.864-.013.183-.027.356-.04.533v.007c-.052.751-.111 1.453-.17 2.098-.013.158-.026.31-.045.454-.203 2.079-.458 3.481-.851 3.58-.085.019-.163.038-.229.059-.909.217-.595.04-.595.04s.019-.619.045-1.554v-.006c.027-.717.053-1.611.079-2.573.072-2.157.157-4.605.209-5.835.118-2.712-.066-7.094-.229-11.002-.177-4.072-.857-8.251-.614-8.895.104-.278-.242.038.104-.278 1.236-1.13 4.918-2.4 7.064-2.789z" fill="#0b4870"/><path d="m207.077 135.137c0 .402-.033.771-.122 1.017 0 0 .668 2.621 5.944.335 0 0-1.043-3.907 0-7.185l-5.944 3.712s.073.59.105 1.278c.017.277.025.573.017.843z" fill="#eea987"/><path d="m212.684 135.45s-2.074 1.009-4.167 1.205l1.021 2.181 3.362-2.345z" fill="#d3d3d3"/><path d="m208.517 136.655s-1.459-.486-1.449-1.205l-.198.72.595 2.303z" fill="#d3d3d3"/><path d="m208.517 136.655-.763 1.318s.354.406 1.486.23z" fill="#ffbe55"/><path d="m207.918 138.087s-3.119 9.232-3.143 15.787c-.025 6.554.488 10.467.488 10.467l.687 1.29 1.004-1.178s-.709-19.032 2.066-26.223c0 0-.986-.473-1.102-.143z" fill="#ffbe55"/><path d="m207.06 134.294c.017.277.025.573.017.842 4.193.068 4.258-2.343 4.258-2.343-.652 1.746-4.275 1.501-4.275 1.501z" fill="#a77860"/><path d="m182.802 137.543s-1.035-2.07-1.202-2.38c-.167-.311-.984-.74-1.961-1.145-.976-.402-2.454-.457-2.599-.338-.144.118-.34.162-.486.65-.148.487-.034.991-.034.991s-.434.504-.251 1.112c0 0-.39.495-.079 1.149 0 0-.369.495-.108.948 0 0 .817.433 1.08.692.261.258 2.019 1.027 3.804 1.475 0 0 1.813-.214 1.836-3.154z" fill="#eea886"/><path d="m182.802 137.543s1.975 1.981 1.931 2.455c-.075.783-1.034 3.066-1.083 3.02-.05-.046-3.092-2.428-3.092-2.428z" fill="#eea886"/><path d="m203.357 144.786s0 .006-.006.006c-.327.578-1.759 1.736-3.578 3.052-.104.08-.209.152-.313.232-2.518 1.801-5.657 3.849-7.619 5.112-1.066.684-2.472.448-3.257-.552l-4.538-5.798-4.65-5.934.255-.389 2.159-3.296.432-.651 7.743 9.862s5.082-3.435 8.018-6.455c.222-.23.51-.427.844-.599.373-.198.798-.356 1.236-.48.137-.04.274-.072.412-.105 1.289-.283 2.609-.25 3.1.151.549.448.824 1.04.896 1.704.162 1.316-.453 2.895-1.134 4.14z" fill="#0b4870"/><path d="m179.441 136.836.534-.37-4.354-6.366-.535.37z" fill="#eb4747"/><path d="m175.632 130.097-.907-.754.37 1.123z" fill="#eea886"/><path d="m177.301 133.775s2.453 1.086 2.347 1.55c-.107.463-.396.561-.396.561l.831.96s.229.982-.793.97c0 0 .301.893-.686.752 0 0-.036.687-.503.712s-2.019-.749-2.019-.749-.262-.328.108-.948c0 0-.329-.608.079-1.149 0 0-.195-.532.252-1.113 0 0-.353-1.223.52-1.641 0 0 .156.048.26.095z" fill="#d69779"/><path d="m181.527 135.117s-1.799.196-2.74.784c-.212.132-.395.305-.364.577s.421.568 1.205.528c.782-.038 1.813.313 1.813.313s.794-.306.086-2.202z" fill="#eea886"/><path d="m183.666 187.31s1.336-8.384 1.406-8.723c.071-.34 1.43-1.562 7.924-3.703 0 0-7.219 1.412-9.111 2.652-1.46.956-.219 9.774-.219 9.774z" fill="#12131f"/><path d="m148.254 171.781h-1.446v47.757h1.446z" fill="#0e538c"/><path d="m233.552 171.781h-1.447v47.757h1.447z" fill="#0e538c"/><path d="m236.108 169.237h-91.488v43.267h91.488z" fill="#cce9ff"/><path d="m239.273 164.848h-97.603v4.626h97.603z" fill="#0e538c"/><path d="m148.803 218.598h-2.544v.94h2.544z" fill="#0e538c"/><path d="m234.05 218.598h-2.442v.94h2.442z" fill="#0e538c"/><path d="m177.458 143.451v15.739c0 1.085-.877 1.967-1.956 1.967h-23.217c-1.079 0-1.955-.882-1.955-1.967v-15.739c0-1.085.876-1.967 1.955-1.967h23.217c1.079 0 1.956.882 1.956 1.967z" fill="#f7f7f7"/><path d="m168.124 163.795v1.053h-11.464l1.616-3.691 2.896-6.619.112-.257h6.134l-2.87 6.836-.021.04-1.104 2.638z" fill="#f7f7f7"/><path d="m167.065 154.281-.118.29-2.773 6.586-1.55 3.691h-5.945l1.616-3.691 2.891-6.619.111-.257z" fill="#f2f2f2"/><path d="m172.801 163.795v1.053h-9.784l.406-1.053z" fill="#d3d3d3"/><path d="m164.534 161.119 2.885-6.87v6.87z" fill="#d3d3d3"/><path d="m161.856 157.474c.32-.83 1.087-1.333 1.84-1.271-.061-.036-.125-.067-.191-.093-.87-.338-1.881.188-2.261 1.176-.381.988.015 2.064.885 2.402.138.054.279.083.421.095-.732-.412-1.045-1.396-.694-2.309z" fill="#fff"/><path d="m163.023 159.746c.583-.131 1.115-.578 1.367-1.234.279-.725.138-1.493-.298-1.987-.065-.073-.135-.141-.212-.2-.058-.045-.12-.086-.183-.123-.752-.063-1.519.441-1.839 1.272-.351.912-.039 1.896.694 2.309.054.004.106.007.159.005.104-.002.208-.019.312-.042z" fill="#d3d3d3"/><path d="m259.658 116.447s-1.234.165-1.223-.36c.009-.525.093-1.21.093-1.21z" fill="#eea987"/><path d="m266.59 110.754-4.049 3.151c.516-.098 1.38-.224 1.401.049.027.386-1.54.854-2.036 1.206-.455.324-.933.9-1.06.927l-.885.763-1.432-1.973s2.363-2.691 2.933-3.264c.926-.933 4.672-1.482 4.876-1.345.37.244.252.486.252.486z" fill="#eea987"/><path d="m261.592 116.983-3.265-2.783-11.199 11.386c-1.754 1.212 3.42 5.39 4.88 6.303 3.754 2.342 8.182 7.759 12.776 4.455 4.979-3.583-2.27-6.132-4.687-6.07-2.096.054-6.658-4.09-6.658-4.09z" fill="#ffbe55"/><path d="m255.682 219.146s-1.861 1.965-3.749 2.377c-1.889.411-5.148 1.813-5.163 2.942-.015 1.128 7.374.993 9.535-.143 3.226-1.697 3.555-1.186 3.912-2.034.358-.847-.429-3.118-.406-3.386.028-.333-4.129.244-4.129.244z" fill="#0b4870"/><path d="m255.891 218.206s-.246.919-.209.94c.037.02 4.257.495 4.129-.244-.104-.6-.251-1.251-.251-1.251z" fill="#2f6b8c"/><path d="m276.7 219.658s-1.369 1.914-3.2 2.356c-1.805.436-4.476 2.136-4.565 3.232-.088 1.095 5.758 1.659 8.81-.265 2.006-1.266 2.754-1.193 3.158-1.997.404-.805-.211-3.057-.171-3.318.049-.322-4.032-.008-4.032-.008z" fill="#0b4870"/><path d="m276.755 218.711s-.089.926-.055.947 4.056.736 4.032.008c-.02-.58-.256-1.301-.256-1.301z" fill="#2f6b8c"/><path d="m260.147 162.902s-1.954 14.283-2.752 19.111c-.933 5.644-1.249 10.307-1.511 13.231-.327 3.674-.76 22.478-.989 23.554-.231 1.073 5.691.515 5.691.515s3.102-24.516 4.077-28.43c.908-3.643 3.552-19.384 4.379-18.389.828.995 3.365 18.826 3.977 21.699.615 2.874 2.258 25.499 2.258 25.499s5.587.901 6.711 0c0 0-.882-20.174-1.272-25.562-.149-2.055 1.291-24.584-2.16-33.67-1.824-4.8-18.409 2.442-18.409 2.442z" fill="#0e538c"/><path d="m266.536 128.651s-5.171 1.076-5.785 1.623c-.666.583-1.842 6.279-1.911 7.867-.071 1.589.623 8.218 1.289 10.687s-.873 13.028-1.294 16.449c0 0 11.508 2.173 21.745.833 0 0-1.395-10.39-.985-13.772.526-4.335 1.787-14.323 1.787-14.323s.009-5.621-.783-6.519c-1.698-1.929-8.227-2.845-8.227-2.845z" fill="#ffbe55"/><path d="m273.647 139.076c.242 5.145 1.87 6.396 3.473 5.996.503-.125.997-.413 1.431-.793.681-.596 1.216-1.421 1.407-2.206.702-2.865.708-10.768-2.886-11.785 0 0-3.899-1.268-3.425 8.788z" fill="#ffbe55"/><path d="m258.181 141.413s2.885-.481 3.061 3.728c.176 4.21 1.988 12.03 4.939 15.147l-11.61.443c-2.952-3.116-4.401-10.58-4.621-14.788-.204-3.869-3.063-3.728-3.063-3.728z" fill="#d3d3d3"/><path d="m264.954 131.771c.066.045.136.088.214.124.262.135.595.232 1.014.278.152.018.306.023.46.019.094-.001.189-.008.285-.016 2.737-.269 5.453-3.42 5.453-3.42-5.496-.837-7.852.193-7.852.193s-.88 1.937.426 2.822z" fill="#ffbe55"/><path d="m265.068 129.778s1.28.851 6.134-1.301c0 0-.484-2.9.264-6.082.722-3.062-5.962 3.777-5.962 3.777.078.056.093.369.047.805-.011.118-.028.244-.048.375-.035.226-.082.467-.141.715-.015.068-.031.134-.05.201-.273 1.046-.244.598-.244 1.51z" fill="#eea886"/><path d="m271.201 127.552s-2.538 1.54-5.049 1.887l1.336 2.145 4.231-2.933z" fill="#0b4870"/><path d="m265.312 128.268s.268.883.84 1.171l-1.255 1.759.046-2.333z" fill="#0b4870"/><path d="m265.334 127.421c2.878.153 4.719-2.849 4.775-2.937-1.807 1.985-4.606 2.103-4.606 2.103-.035.226-.11.586-.169.834z" fill="#a77860"/><path d="m258.181 141.413s-3.455.323-2.725 5.174l-10.256.558s-1.418-3.304 1.686-4.93z" fill="#f7f7f7"/><path d="m267.071 150.481s-.444.21-.831.105c-.667-.182-1.236-1.115-2.108-.636-.87.479-.138 3.688.304 4.158.443.47 1.799.195 3.497-1.029 1.696-1.223-.862-2.598-.862-2.598z" fill="#eea886"/><path d="m264.449 149.832s-1.472.111-3.096.436c-1.425.285-3.154.838-3.087 1.201.101.549 1.468-.069 2.899-.256 1.319-.172 1.087.086 1.087.086s.061-.077-1.338.395c-1.507.507-3.101 1.114-3.053 1.412.062.368.1.409.676.315-.319.126-.331.233-.291.375.204.727 2.531.333 3.454.175-.709.126-1.216.294-.804.66.469.416 3.735-.292 4.929-.432 1.301-.152-1.376-4.367-1.376-4.367z" fill="#eea886"/><path d="m275.924 130.39c-1.056.349-1.619 1.85-.978 4.968.711 3.448 1.506 5.124 1.965 5.936s2.934 4.969 2.482 5.629c-.453.658-6.435 2.223-6.842 2.34-.811.232-6.238 1.321-6.238 1.321l1.328 4.676s16.524-2.837 17.329-3.646c.804-.809 1.224-1.905.334-4.732-.904-2.872-2.528-9.599-2.818-10.124-.287-.526-1.801-7.942-6.562-6.368z" fill="#ffbe55"/><path d="m275.093 136.038s.54 6.965 2.937 11.912c.728-.164 1.445-.543 2.074-1.045 0 0-2.77-4.577-3.018-5.098-.248-.52-1.713-4.557-1.993-5.769z" fill="#a77860" opacity=".3"/><path d="m267.152 154.275s6.652 1.201 12.379.485c-.085-.556-.008-1.166.17-1.88 0 0-5.371 1.06-5.973 1.133-.603.071-5.214.306-6.576.262z" fill="#a77860" opacity=".3"/><path d="m74.9556 113.429-.0719.658-.7777 7.388c-1.8312-1.349-3.3353-.177-4.4733 1.724-.0327.052-.0661.105-.0981.164-1.0006-1.822-2.1968-5.118.0327-7.987 1.0994-1.414 2.7206-2.026 4.3752-2.026.0981 0 .2028 0 .3009.006.0458 0 .085.007.1308.007.0713.006.1498.013.2223.019.0589.008.1178.014.1766.02.0334.007.0661.007.0981.013.0255.007.0582.007.0844.014z" fill="#e8734d"/><path d="m80.1941 125.292c-.2223.138-1.1307.321-1.1307.321s-.9549 3.054-2.0143 3.034c-.1773-.006-.4251-.027-.7325-.079-.726-.125-1.7724-.421-2.8515-1.013l.2747-2.586.2819-2.684c0-.007.0065-.007.0065-.007l.0524-.553.0261-.25c-1.8312-1.35-3.3354-.178-4.4733 1.723-.3669-.861-.654-1.789-.7986-2.717-.497-3.093.569-6.132 5.3955-6.408.1897-.013.4127-.007.654.013 1.5696.112 3.9639.921 4.9711 3.619.1765.461.3074.98.3858 1.56 0 0-.1242 1.204-.412 2.151-.2819.948.5808 3.737.3649 3.876z" fill="#a77860"/><path d="m80.2399 119.265s-2.7075 1.881-5.402 2.283c-.1773.027-.3407.059-.5042.105h-.0066c-.085.02-.17.046-.2485.073l.0261-.251c-1.8312-1.349-3.3354-.177-4.4733 1.724-.0327.052-.0661.105-.0981.164-.1962-.361-.4055-.782-.588-1.249-.0399-.098-.0784-.198-.1183-.303-.1374-.375-.2551-.782-.346-1.204 0-.007 0-.013-.0072-.019-.0262-.119-.0451-.238-.0654-.363-.0262-.124-.0458-.256-.0589-.395-.0137-.124-.0261-.257-.0327-.381-.0071-.131-.0137-.263-.0137-.395 0-1.211.3336-2.48 1.2622-3.678 1.0994-1.414 2.7207-2.026 4.3753-2.026.0981 0 .2027 0 .3008.006.0458 0 .0851.007.1308.007.0713.006.1498.013.2224.019.0589.008.1177.014.1766.02.0333.007.066.007.0981.013.0261.007.0588.007.085.014 2.3871.362 4.6238 1.954 5.1731 4.224.1328.507.1714 1.045.1125 1.612z" fill="#0e538c"/><path d="m67.311 129.247c-.0595.308-.1374.637-.2355.98.0524-.224.1308-.561.2355-.98z" fill="#e8734d"/><path d="m95.2296 219.926s2.4976 3.529 2.1556 4.089c-.3414.56-2.9692.639-4.5669 0-1.5984-.638-1.6356-4.776-2.359-6.552-.3028-.744.3434-2.941 1.2557-3.101.9117-.159 1.9012.31 1.9012.31s-.9457 2.503 1.6134 5.254z" fill="#ffbe55"/><path d="m93.6338 214.644s.5245 1.502.7168 2.937c.1589 1.191 1.7789 3.716 1.703 4.038-.0765.32-2.1313.609-2.9698-.216-.8358-.825-1.376-3.22-1.5598-4.653-.1726-1.335-.3884-1.994-.3884-1.994s1.6977-.992 2.4982-.112z" fill="#a77860"/><path d="m73.4952 219.985s2.4074 3.47 2.064 4.03c-.3427.56-2.9678.639-4.5668 0-1.5978-.639-1.6377-4.776-2.3597-6.552-.3034-.744.3453-2.941 1.2564-3.101.911-.159 1.9783.343 1.9783.343s-.9319 2.527 1.6278 5.28z" fill="#ffbe55"/><path d="m71.8674 214.705s.1903 1.638.4944 2.797c.3055 1.158 1.9418 3.795 1.8659 4.116-.0759.32-2.1327.61-2.9685-.215-.8378-.825-1.4852-3.211-1.5604-4.653-.0759-1.446.1903-2.388.1903-2.388s1.1791-.535 1.9783.343z" fill="#a77860"/><path d="m93.7843 215.38s-.1236.105-.3336.209c-.4055.21-1.1445.428-1.9097-.131-.066-.046-.1896-.249-.3727-.578 0 0 0 0 0-.008v-.007c-.0197-.025-.0327-.052-.0524-.085-1.5761-2.914-6.5857-14.35-6.5857-17.771 0-3.903-2.0013-8.665-3.27-11.43-.4768-1.033-.8568-1.782-.9876-2.111-.1373-.335-.2681-.664-.3924-.987-4.0809-10.349-3.2569-13.574-3.8324-14.278-.588-.724-.6403.447-.9876 2.053-.2289 1.085-.6474 7.837-1.0333 12.593-.0588.797-.1242 1.54-.1831 2.184-.1112 1.185-.2158 2.06-.3074 2.422-.4447 1.764-.0981 7.698-.3401 10.698-.2491 2.994-1.3276 16.554-1.3276 16.554s-.8371 1.375-2.0143.034c-.0065-.013-.0196-.04-.0327-.093-.0196-.059-.0327-.144-.0589-.256-.4316-2.284-1.9358-15.041-1.9816-18.317-.0523-3.567-.1046-8.482-.1962-10.021-.0523-.823-.1046-1.605-.1635-2.356-.0333-.4-.066-.796-.0981-1.178-.9941-11.658-2.5898-14.243.6344-23.805.0137-.04.0262-.085.0458-.124.5755-1.698 1.1772-3.106 1.7919-4.27.0131-.026.0262-.053.0393-.079.0065-.008 0-.008 0-.008 1.2884-2.414 2.6356-3.73 3.9567-4.289.3989-.165.7985-.264 1.1903-.309.2419-.02.4839-.027.7259-.008.0262 0 .0589 0 .085.008.5232.045 1.0333.19 1.5238.407 0 0 .0066 0 .0066.007.2027.079.3989.185.5951.289l.0131.008c.7325.413 1.4323.973 2.0666 1.592.072.066.1308.124.1962.197l.0072.006c.2813.276.5428.567.7979.856.242.283.4768.572.6933.856.1968.249.3668.48.5428.717v.007c.7324 1.033 1.2556 1.94 1.5114 2.381.0189.034.0392.066.0523.099.0392.086.0713.137.085.171.0065.006.0131.013.0131.019 0 .008.0065.014.0065.02.0138.079.0857.435.1969.974.5493 2.671 2.0333 9.967 2.4329 12.105.2681 1.428.7913 5.824 1.2426 9.896.2086 1.895.3982 3.712.5421 5.14.1184 1.177.2034 2.085.2355 2.533.1438 2.171 2.2301 10.342 2.132 11.119-.085.677 2.3152 12.515 2.9502 15.606 0 .007 0 .014.0065.021.0066.019.0066.032.0131.045.0831.429.1289.673.1289.673z" fill="#a77860"/><path d="m88.2652 179.981c-.157.093-.3205.178-.4905.263-2.2825 1.198-5.0823 1.875-7.8938 2.237-2.0019.262-4.0162.362-5.8533.368-2.8449.014-5.2909-.183-6.7035-.329-.8241-.085-1.2943-.151-1.2943-.151-1.6023-11.653.0451-19.535 1.5827-23.903.9738-2.783 1.8959-4.146 1.8959-4.146h.2878.0392c.7724 0 2.7992.027 5.0882.198 2.0731.158 4.3621.441 6.1214.947.4506.131.8692.276 1.2361.434.6736.296 1.1837.645 1.4649 1.059.019.033.0393.066.0523.099.0393.059.0654.111.0851.171.0065.006.013.013.013.019 0 .008.0066.013.0066.02.0857.224.1772.54.2877.921 1.3277 4.937 4.0745 21.793 4.0745 21.793z" fill="#0e538c"/><path d="m90.3913 217.152v3.694h.4578v-2.855z" fill="#ffbe55"/><path d="m68.5654 217.152v3.694h.4571v-2.855z" fill="#ffbe55"/><path d="m74.106 121.475-.0261.251-.0523.553s-.0066 0-.0066.006l-.2818 2.685-.2747 2.586-.2675 2.585s-.1969.158-.5167.401c-.0072.007-.0072.014-.0137.014-.0458.039-.0974.078-.1498.118-.0719.053-.1445.112-.223.171-.2413.184-.5232.389-.8306.618-.0065.007-.0065.007-.0137.007-.0131.006-.0327.02-.0517.033-.6023.435-1.2949.916-1.9757 1.329-1.5042.928-2.943 1.56-3.2111.81-.019-.046-.0262-.093-.0327-.139v-.007c-.0393-.276.0327-.677.2419-1.229.2486-.665.4448-1.257.6017-1.81 0-.013.0066-.033.0066-.046.0196-.066.0327-.124.0457-.183.0981-.343.1766-.672.2355-.981.4767-2.421.1635-4.251.3858-8.363.0262-.519.0654-1.072.1112-1.671.4245-5.316 4.2772-5.902 6.1345-5.862-1.6546 0-3.2765.612-4.3752 2.026-1.3407 1.724-1.4454 3.613-1.085 5.231.2289 1.073.654 2.033 1.0523 2.756.0327-.059.066-.112.0981-.165 1.1392-1.901 2.6434-3.073 4.4746-1.724z" fill="#0e538c"/><path d="m77.5454 132.338s-.1373.034-.3597.086c-.4643.106-1.3276.283-2.2039.408-.1308.019-.2616.04-.3924.052-.0262.007-.0589.007-.0851.013-.2818.034-.5624.06-.8247.068-.3597.019-.6932.013-.9548-.027-.5428-.087-.824-.31-.5755-.777.0523-.093.0922-.198.1308-.31.0719-.183.1242-.4.1635-.637v-.008c0-.007 0-.007 0-.013.0327-.165.0523-.342.0719-.519.0523-.041.104-.08.1498-.119.0065 0 .0065-.008.0137-.014.3198-.242.5167-.4.5167-.4l.2675-2.586.2746-2.586c1.308-.21 2.8979-.237 2.4983.934-.2223.672-.1373 1.645.072 2.632 0 .013.0065.019.0065.032.0589.27.1243.54.1962.81.0719.276.157.539.2354.797l.2682.808.0065.027c.2897.789.5245 1.329.5245 1.329z" fill="#a77860"/><path d="m63.1247 148.967c.0785.643 3.0634.509 6.2483.181.0033.013.0066.024.0105.037.068.283.1275.535.1707.712.0464.194.0903.4.1275.615.3198 1.834.2943 4.415-.3139 6.628 0 0 8.0285 3.011 13.0355.267 0 0-.5317-4.38.2669-7.212.8005-2.832 4.9769-12.698 4.9769-12.698s-3.028-4.403-5.3386-5.209-5.2895-1.304-5.2895-1.304l-4.3302.16s-3.6048.945-4.4125 1.2c-1.4421.459-1.9999.941-2.7468 2.439-1.0268 2.06-2.7573 11.289-2.4048 14.184zm4.5532-4.853s.3943.878.7482 1.872c-.2885.027-.5618.028-.6913.047-1.1406.172-.2832-1.286-.0569-1.919z" fill="#ffbe55"/><path d="m76.5121 129.377c-2.6611-.375-3.0345-1.782-3.0476-1.822 2.8455.98 2.8455.98 2.8455.98 0 .013.0066.019.0066.033.0582.269.1242.54.1955.809z" fill="#a77860"/><path d="m67.7348 144.149s.1955.414.7305 2.041c.5428-4.572.259-6.953.259-6.953-.0595 2.444-.9895 4.912-.9895 4.912z" fill="#cfbeb8"/><path d="m69.3829 149.185c.068.283.1275.535.1707.712.0464.194.0902.4.1275.615 1.7933-.981 3.0823-1.748 3.0823-1.748-.4827.108-3.3805.421-3.3805.421z" fill="#cfbeb8"/><path d="m72.4442 131.207 5.0993 4.181-.5258-4.405s-2.9725-.644-4.5735.224z" fill="#a77860"/><path d="m76.07 134.679 1.4735.709-5.007-4.993z" fill="#fcd2b1"/><path d="m76.5121 143.405c-.0327.751-.1046 1.605-.2086 2.52-.0857.751-.1897 1.546-.3081 2.362-.013.072-.0189.146-.0326.217-.0589.375-.1112.751-.1701 1.133-.0065.006-.0065.013-.0065.019-.0197.105-.0399.217-.0523.329-.0197.098-.0334.204-.0524.31-.0137.091-.0327.19-.0457.283-.2289 1.354-.4768 2.697-.7129 3.941-.2878 1.466-.5559 2.796-.7783 3.809-.0451.23-.0915.44-.1301.638-.1635.764-.9418 1.218-1.6808.987l-4.3295-1.362-.3924-.124-.4251-.132s2.3871-6.053 1.962-9.125c.0066-.014 0-.027 0-.034-.0196-.124-.0392-.236-.0654-.348-.242-1-.5101-1.942-.7521-2.756-.0065-.027-.0196-.053-.0261-.08 0-.013-.0066-.025-.0131-.04-.0857-.276-.1707-.526-.242-.77l-.1184-.361c-.0713-.205-.1373-.388-.1896-.553-.0066-.027-.0131-.046-.0262-.067 0 0-.0065-.006 0-.006-.17-.5-.2812-.789-.2812-.789s-1.2884-7.145 1.9882-10.574c.5303-.552 1.1843-1.012 1.9757-1.329.0588-.019.1177-.046.1766-.065.0196-.007.0261-.007.0261-.007.1439-.053.2943-.099.4513-.139.1301-.04.255-.072.3924-.099.0131 0 .0261-.006.0392-.006.0661-.013.1243-.026.1897-.032.0072-.008.0072-.008.0137-.008 0 0 .1112.178.2943.501.1701.309.4186.755.6991 1.316.3728.749.8175 1.69 1.2368 2.75.9018 2.276 1.7128 5.093 1.5944 7.691z" fill="#0b4870"/><path d="m88.5202 138.331-2.7141 3.606-.6213.823-1.3793 1.836c0 .69.0131 1.453.0393 2.263v.006c.0072.236.0196.468.0261.704.0327.829.0785 1.685.1243 2.539.0327.527.0654 1.053.0974 1.567.0072.052.0072.105.0138.158v.071c.0457.658.0915 1.291.1373 1.888 0 .046 0 .093.0065.139.1701 2.322.327 4.034.327 4.034l-.3858.224-.0916.052-1.6808.973c-.582.336-1.308-.078-1.3217-.749 0-.151-.0065-.316-.0065-.487-.0131-.704-.0262-1.567-.0452-2.513-.0137-.513-.0196-1.059-.0333-1.62 0-.276-.0066-.559-.0131-.848-.0065-.191-.0065-.388-.0137-.586v-.019l-.019-1.067c-.0072-.156-.0072-.315-.0137-.466-.0066-.507-.0131-1.006-.0262-1.507-.0065-.486-.019-.967-.0261-1.435-.0131-.618-.0262-1.217-.0327-1.782-.0197-.896-.0393-1.711-.0524-2.396-.0523-2.651-1.1183-6.21-2.0594-8.869-.7724-2.157-1.4525-3.724-1.4525-3.724.0261.008.0457.014.0719.027.0523.013.1046.032.157.053l-.0589-.158-.0334-.087s.1047.014.2878.047c.9091.157 3.7343.678 5.3039 1.467.4382.217.9673.651 1.5232 1.191.877.836 1.8122 1.928 2.5643 2.843.8117 1.007 1.4009 1.802 1.4009 1.802z" fill="#0b4870"/><path d="m84.2483 153.792s-3.5552.139-4.1085 0c-.5519-.139-4.2411-1.749-4.4635-3.338-.2211-1.59 8.572 1.424 8.572 1.424z" fill="#a77860"/><path d="m73.2173 148.824 14.4292-1.699-6.5178 5.336z" fill="#d3d3d3"/><path d="m81.1287 152.461-7.9114-2.713v-.924l8.1776 2.64z" fill="#f2f2f2"/><path d="m77.4088 146.159s1.1929 0 1.8619-.136c.5173-.107 1.8024.04 2.1314.332.3263.291 1.3688 2.325 1.5663 2.45.1962.124-.1007.413-.4473.268 0 0-.3172.889-1.102.558-.7842-.335-1.3172-1.063-1.7272-1.191-.4101-.128-2.8005-.775-2.8005-.775s-.0987-1.723.5174-1.506z" fill="#a77860"/><path d="m80.8154 135.391-1.3204-.843-2.1189-3.374-.0916-.145-.5363-.855.981.855.0648.099z" fill="#ffbe55"/><path d="m79.4924 134.547-1.9489.842-.5252-4.405-.2727-.812z" fill="#fcd2b1"/><path d="m94.3402 149.063s.0071.395-.0975.955c-.0916.526-.2943 1.204-.6998 1.816-.7194 1.084-7.4883 1.901-9.2933 2.098-.2812.034-.4382.046-.4382.046.0196-.04.0262-.098.0399-.171.0589-.447.0065-1.421-.0262-1.849-.0072-.131-.0137-.211-.0137-.211l.0262-.006.255-.066z" fill="#0b4870"/><path d="m101.331 135.023-3.7274 12.323-.654 2.164-2.7069.508-9.9938 1.862-.1432.026-.2812.053-1.5114.276-1.1831.224.2682-.994.1177-.447.3531-1.329.4905-1.836.0321-.112 2.1981-8.224.7449-2.797 1.6154-.171.1707-.019z" fill="#f2f2f2"/><path d="m72.5364 130.395 3.5336 4.284-1.9345 1.734-2.0856-5.128z" fill="#ffbe55"/><path d="m77.4408 145.991-.0327.171-.2943 1.56-.0785.401s-.3983.066-1.0398.164c-.7914.125-1.962.296-3.2301.475-.0072 0-.0072 0-.0138.006-.0588.007-.1236.013-.1825.026-.7396.099-1.5048.198-2.2438.29-.1635.013-.3205.032-.4768.051-.066.008-.1308.014-.1896.021-.0923.006-.1832.019-.2747.032-.0785.008-.157.014-.2355.02-.5035.053-.981.099-1.4126.125 0 0-1.6088.191-2.9365.191-.8567 0-1.5951-.079-1.72-.337-.327-.65.1047-4.829.811-8.592.7063-3.764 1.4322-5.928 2.289-7.093v-.007c.2093-.283.6344-.546 1.1641-.789.0713-.033.1373-.059.2086-.093.1504-.065.3081-.131.4644-.183 1.3479-.514 2.9691-.875 3.4472-.968.0523-.013.0916-.026.1112-.026.0196-.006.0261-.006.0261-.006l-2.8056 9.23v.007l-.5756 1.881-.0137.059-.4506 1.474-.0196.067s-.0065.019-.0196.045c-.0066 0 0 .006 0 .006-.1112.232-.5298 1.152-.5095 1.573.0131.152.1177.218.2551.245.0981-.008.3073-.027.6016-.046l.2093-.021h.0196c.0327-.006.0589-.006.0916-.006.0131 0 .0196 0 .0327-.007h.0785c.9614-.072 2.3871-.158 3.5643-.165.824 0 1.89.034 2.858.08.5094.019.9875.045 1.3864.072.6795.035 1.1367.067 1.1367.067z" fill="#0b4870"/><path d="m262.391 116.253s-1.384 2.582-.698 2.983c.566.333-.665 2.868-.825 3.282-.162.412 1.026.714 1.278.98.253.267 1.001 3.546 1.98 3.644.978.099 5.387-1.444 6.588-2.7s2.186-6.928 1.384-9.322c-.8-2.392-7.263-3.379-9.707 1.133z" fill="#eea987"/><path d="m262.115 116.812s-2.814-2.865-.388-4.23c6.922-3.896 8.842.935 9.376 1.072.533.139 3.559.348 2.032 5.696-1.313 4.592-2.421 5.092-2.421 5.092s-.055-2.967-.61-3.375c-.867-.632-2.767-.479-2.767-.479s.906-2.419-.51-2.763c-1.414-.341-3.279-1.547-4.712-1.013z" fill="#0b4870"/><path d="m268.568 119.923c.126-.333.531-1.756 1.745-.92 1.217.838-.756 3.525-.968 3.56-.213.035-1.826.154-.777-2.64z" fill="#eea987"/><path d="m212.421 132.134c-1.204 1.256-5.612 2.804-6.593 2.705-.974-.099-1.727-3.383-1.981-3.646-.249-.27-1.439-.572-1.276-.981.157-.413 1.393-2.954.824-3.283-.483-.283.06-1.645.425-2.427.151-.336.275-.559.275-.559 2.446-4.507 8.908-3.52 9.705-1.133.805 2.396-.183 8.067-1.379 9.324z" fill="#eea987"/><path d="m214.84 127.042c-1.315 4.592-2.42 5.092-2.42 5.092s-.045-2.363-.451-3.158c-.052-.099-.104-.171-.163-.217-.445-.323-1.158-.441-1.753-.475-.562-.04-1.014-.006-1.014-.006s.909-2.415-.51-2.756c-1.412-.342-3.276-1.554-4.709-1.021 0 0-2.818-2.862-.392-4.224 6.926-3.895 8.842.934 9.378 1.073.537.138 3.557.342 2.034 5.692z" fill="#0b4870"/><path d="m210.271 127.617c.126-.333.531-1.758 1.745-.92 1.217.837-.756 3.525-.968 3.559-.213.035-1.827.153-.777-2.639z" fill="#eea987"/></svg>