<svg fill="none" height="230" viewBox="0 0 344 230" width="344" xmlns="http://www.w3.org/2000/svg"><path d="m300.117 205.367-109.208.023-23.908.012h-7.901l-23.862.011-89.5089.426c-.0574-.184-.1147-.38-.172-.564-9.6894-32.303 19.7226-31.901 27.841-41.94 2.8896-3.577 3.0846-8.476-2.1328-16.641-.0229-.034-.0458-.08-.0802-.115-3.119-4.887-5.3894-9.694-6.88-14.386-3.1419-9.821-2.924-19.159-.0918-27.796 2.1443-6.5434 5.7907-12.6729 10.6067-18.3079 1.8805-2.1965 3.9331-4.3125 6.1461-6.348 44.4449-40.871 152.8279-48.622 167.8259 22.8049 8.509 40.503 21.959 17.066 49.617 45.839 9.127 9.499 12.212 19.17 12.315 27.784.195 16.56-10.607 29.198-10.607 29.198z" fill="#cce9ff"/><path d="m123.897 150.167s-12.957-2.139-21.763 5.106c-8.7953 7.245-3.6009 19.631-10.8708 21.241-10.4691 2.311-34.5605 5.623-32.0493 28.336.2522 2.3 73.5241 0 73.5241 0l-3.142-48.933z" fill="#2795f6"/><path d="m229.654 166.612s15.48-2.841 26.225 5.991c10.744 8.821 5.848 16.077 11.604 17.963s13.898 5.59 12.074 14.927h-52.012z" fill="#2795f6"/><path d="m293.535 204.769h-6.995c-.378-.322.264-1.047.918-1.093.286-.023.653.035 1.066.127.092-1.277.642-7.05 2.718-6.808 2.328.264 0 2.541-.654 3.887-.493 1-.997 2.438-1.238 3.105.183.046.39.08.585.115.309-.955 1.456-4.152 2.912-3.968 1.72.219 1.021 1.495-.195 2.266-.894.563-1.983 1.357-2.511 1.736.436.069.906.127 1.365.115 1.215-.034 1.8.322 2.029.518z" fill="#2795f6"/><path d="m247.175 28.29h-123.278v170.281h123.278z" fill="#ffbe55"/><path d="m248.792 105.627h-126.523v5.463h126.523z" fill="#e5a13e"/><path d="m229.849 52.0491h-33.677v44.896h33.677z" fill="#fff" opacity=".5"/><path d="m229.012 52.8655h-32.026v43.24h32.026z" fill="#cce9ff"/><path d="m204.611 52.4286v12.3165.322c-.023.966-.137 1.702-.264 1.702h-.034c-.126 0-.229-.6325-.264-1.495 0-.069 0-.138-.011-.2185v-.0115c0-.092 0-.1955 0-.2875v-12.3855c.183.023.378.0345.573.0575z" fill="#afcdfb"/><path d="m204.164 65.2051c-2.121 0-3.853 1.8285-3.853 4.0825h7.706c0-2.254-1.732-4.0825-3.853-4.0825z" fill="#afcdfb"/><path d="m204.474 65.2511c-.115-.023-.218-.0345-.333-.0345-1.387 0-2.511 1.817-2.511 4.071h.676c-.011-2.0585.941-3.7605 2.168-4.0365z" fill="#cde0fb"/><path d="m203.51 82.846s-1.892-2.2195-.114-3.6225c0 0 1.295-.7935 2.362-.7245 0 0-1.502 2.53-1.021 2.7715.482.253 1.468-2.9325 1.468-2.9325s2.958-.2875 3.91.1725c0 0-2.522 2.07-1.995 2.1965s3.268-1.909 3.268-1.909 2.752.4715 2.603 2.1505-1.101 2.208-1.514 2.162c-.412-.046-2.855-.9775-2.912-.6325-.058.345 1.41 1.4605 2.442 1.518 0 0-1.938 2.1505-3.233 1.5295-1.285-.621-1.399-1.5985-2.202-1.9665s-1.491-.368-1.158.0115c.332.3795 1.789.736 2.247 1.5525.459.8165.872 1.3685-.458 1.1615s-3.509-1.1845-3.601-2.3c-.092-1.1385-.092-1.1385-.092-1.1385z" fill="#10538c"/><path d="m212.638 80.9946s-7.476-.2875-9.128 1.8515c0 0-.367 1.0925-1.49 2.093l-.172.483s1.295-1.3685 1.754-1.449c.012-.0115-.722-2.668 9.036-2.9785z" fill="#10538c"/><path d="m202.031 84.9392s-1.605 1.196-1.72 3.312l.287.023s.516-2.1965 1.433-3.059c.94-.851 0-.276 0-.276z" fill="#10538c"/><path d="m198.649 83.1104s0 0-.413.8855c-.023.046-.035.0805-.058.1265-.172.3795-.63.644-1.181.805v-7.268c.402.1725.677.3105.677.3105s-.172 3.312.367 3.243 0-2.944 0-2.944c1.009.299 1.961 1.4835 1.961 1.4835 1.169 1.9435-1.353 3.358-1.353 3.358z" fill="#10538c"/><path d="m199.325 85.5828v.506s-.011-.023-.023-.0575c-.023-.0575-.046-.1035-.069-.1495 0-.0115-.011-.023-.011-.0345s-.012-.023-.012-.023c-.045-.092-.103-.2185-.16-.345-.252-.5175-.619-1.196-.86-1.334 0-.0115.034-.0575.057-.1265.103-.299.172-1.1155-1.238-2.346v-.437c.814.598 1.445 1.242 1.651 1.909-.011-.0345-.046 1.1155.665 2.438z" fill="#10538c"/><path d="m199.325 85.5827s1.089 1.6675.47 3.6915l-.286-.0805s.275-2.231-.299-3.358c-.573-1.1155.115-.253.115-.253z" fill="#10538c"/><path d="m201.676 79.4879s-3.337-1.8745-1.778-4.416c0 0 1.25-1.564 2.58-1.9665 0 0-.711 3.795 0 3.8755.711.092.493-4.278.493-4.278s3.509-1.6905 4.897-1.564c0 0-2.179 3.703-1.468 3.611s3.153-3.8295 3.153-3.8295 3.601-.667 4.174 1.472c.574 2.139-.355 3.2085-.894 3.3465s-3.956.092-3.864.5405c.091.4485 2.396 1.1615 3.692.759 0 0-1.422 3.519-3.291 3.3465-1.869-.184-2.443-1.334-3.601-1.426s-1.995.2185-1.422.5405c.574.3105 2.535.1035 3.463.897.929.7935 1.686 1.288-.045 1.6445-1.732.3565-4.851.138-5.47-1.2075s-.619-1.3455-.619-1.3455z" fill="#10538c"/><path d="m212.076 73.071s-9.334 3.036-10.4 6.417c0 0 .046 1.518-.895 3.2545v.667s.975-2.277 1.514-2.5875c0 .0115-2.087-2.9325 9.781-7.751z" fill="#10538c"/><path d="m200.781 82.7541s-1.444 2.1965-.619 4.8645l.367-.1035s-.355-2.944.39-4.416c.768-1.4835-.138-.345-.138-.345z" fill="#10538c"/><path d="m221.823 89.2516s4.93-20.171 5.297-21.8615c.161-.759.642-1.0235 1.135-1.104-.871-.092-1.502-.092-1.502-.092-1.708 0-3.222 1.2305-3.772 3.0475-1.193 3.979-5.825 10.626-8.061 18.0895.114 0 6.903 1.9205 6.903 1.9205z" fill="#1d8cdd"/><path d="m196.986 96.1169v-3.7835c.894-1.7365 1.8-3.3005 2.58-4.531.115-.184.241-.368.355-.5405.035-.0575.069-.115.115-.161.149-.23.298-.437.424-.621.207-.2875.402-.5405.562-.7475.229-.2875.539-.5175.895-.69.034-.0115.057-.0345.091-.046.138-.0575.275-.115.425-.1725.011 0 .034-.0115.045-.0115.413-.138.86-.2185 1.353-.2645 1.067-.1035 2.282-.023 3.486.1495.149.023.31.046.459.069.665.1035 1.319.2415 1.938.3795h.011c.23.0575.448.1035.665.161.012 0 .035.0115.046.0115.08.023.149.0345.218.0575.333.0805.642.1725.94.253 1.204.345 2.007.621 2.007.621v.161l.012.6095.011.299.023.874v.0345.1265l.023.759v.0575l.172 6.9345h-16.856z" fill="#1d8cdd"/><path d="m220.263 88.9295c-.103-.046-.252-.1265-.458-.2185-.035-.023-.081-.0345-.115-.0575-.103-.046-.229-.1035-.356-.1725-.16-.069-.332-.1495-.516-.2415-.252-.115-.539-.2415-.837-.3795-.091-.0345-.172-.0805-.275-.115-.092-.0345-.172-.0805-.264-.115-.355-.1495-.722-.3105-1.123-.46-.367-.1495-.746-.299-1.147-.4485l-.057-.023c-1.09-.4025-2.271-.805-3.452-1.1155-.367-.1035-.734-.1955-1.101-.276-.045-.0115-.103-.023-.149-.0345 0 0 0 0-.011 0-.229-.046-.459-.092-.688-.138 0 0 0 0-.012 0-.619-.115-1.215-.184-1.777-.2185-.138-.0115-.275-.0115-.401-.0115-1.044-.023-1.984.115-2.706.483-.493.253-.906.621-1.181 1.104-.287.506-.677 1.311-1.113 2.3345-.814 1.8975-1.8 4.5195-2.637 7.2795h19.895l.045-.5635.104-1.1155.493-5.4165v-.0115c-.012 0-.058-.023-.161-.069z" fill="#137cbc"/><path d="m229.024 66.2629v29.8425h-1.158c-.826-.115-1.64-.2415-2.431-.3795-1.353-.23-2.649-.4945-3.761-.782-.333-.0805-.643-.1725-.941-.2645-.183-.0575-.355-.1035-.516-.161-.091-.0345-.183-.0575-.275-.092-1.25-.437-2.064-.92-2.167-1.4375-.092-.4715.137-1.587.562-3.0935.08-.276.16-.5635.252-.8625.046-.138.08-.276.126-.4255.012-.0575.035-.1035.058-.161l.022-.069c.012-.046.035-.1035.046-.1495 0-.0115.012-.023.012-.0345.103-.322.206-.644.321-.989.16-.483.321-.9775.504-1.495.23-.667.47-1.3685.723-2.07.069-.207.149-.414.218-.621.263-.736.539-1.4835.814-2.231.711-1.9205 1.445-3.8525 2.133-5.6235.206-.529.401-1.0465.607-1.541.138-.345.264-.6785.39-1.012.379-.9545.642-1.863.883-2.691.367-1.2305.7-2.2655 1.307-2.9095.356-.3795.791-.6325 1.399-.713.035 0 .069-.0115.103-.0115.115-.0115.241-.023.367-.023z" fill="#2b94f4"/><path d="m225.435 95.7375-2.007-6.624-.034-.1035s-.23-.023-.631-.0575c-.229-.023-.516-.046-.849-.069-.527-.046-1.192-.1035-1.937-.161-.023 0-.046 0-.069 0-.035 0-.069 0-.103-.0115-.138-.0115-.287-.023-.436-.0345-.069 0-.138-.0115-.207-.0115-.16-.0115-.309-.023-.47-.0345-1.135-.0805-2.396-.1495-3.726-.2185-.321-.0115-.654-.0345-.987-.046-.114 0-.229-.0115-.344-.0115-.791-.0345-1.593-.0575-2.396-.069-1.089-.0115-2.156-.0115-3.188 0-.08 0-.16 0-.241.0115-.516.0115-1.009.0345-1.49.0575-.918.046-1.766.1265-2.523.23-.459.069-.894.1495-1.273.23-.871.207-1.525.483-1.857.8395-.723.782-1.25 3.2775-1.629 6.44h26.511z" fill="#2b94f4"/><path d="m218.027 76.0725s-1.135.4025-2.029 2.231c-.895 1.817-1.262 6.7275-1.709 6.7735s-3.807-.6095-3.807-.6095l.08.8395s3.498 2.3345 4.232 1.9205c.734-.4255 2.752-6.0835 2.878-6.946s.355-4.209.355-4.209z" fill="#ffb27d"/><path d="m225.847 75.4399s-4.552-.966-7.82.6325c0 0-2.098 4.5195-2.029 5.29.068.7705.791 3.9675.137 5.1635-.665 1.2075 6.055 3.3465 7.27 2.599 1.204-.736 2.637-12.857 2.442-13.685z" fill="#fff"/><path d="m209.507 93.7251c-.309.713-.71 1.5295-1.169 2.392h-6.192c.711-3.7145 1.341-6.302 1.663-7.521.137-.5175.206-.7935.206-.7935.298-.529.665-.828 1.055-.943.837-.2415 1.812.322 2.683 1.1385.103.092.206.1955.298.299.333.345.642.713.906 1.081.619.8395 1.055 1.6675 1.112 2.0815.081.506-.149 1.2995-.562 2.2655z" fill="#0c476f"/><path d="m205.035 86.8825s1.388-.805 4.564-.115c3.165.69 5.756 2.3345 5.756 2.3345l-8.072.3335z" fill="#0c476f"/><path d="m224.586 75.4285s2.018-.368 2.305 1.2765c.275 1.6445.034 11.6035-1.514 12.1095s-7.889-2.3-7.889-2.3l.195-1.058s6.066.828 6.295.736c.195-.092.608-10.764.608-10.764z" fill="#ffb27d"/><path d="m208.969 82.938-.287-2.6565 3.749 4.945s-1.57.782-1.662.6325-1.8-2.921-1.8-2.921z" fill="#0c476f"/><path d="m214.576 82.938 3.451 5.29h-5.802l-3.256-5.29z" fill="#ffbe55"/><path d="m208.969 82.9379-.276-2.6335 1.961 2.4495z" fill="#fff"/><path d="m217.855 87.9634.264-.1955-3.44-5.1175-.103.2875z" fill="#fff"/><path d="m214.679 82.6504-5.47.1495-.24.138h5.607z" fill="#fff"/><path d="m216.514 96.1169h-6.192c-.299-.851-.574-1.656-.815-2.392-.619-1.8745-1.077-3.3465-1.364-4.3125-.149-.5175-.264-.897-.321-1.104-.046-.138-.057-.2185-.057-.2185 0-.0345 0-.0575 0-.092.011-.69.24-1.15.63-1.426.023-.0115.046-.0345.058-.046.63-.414 1.605-.4025 2.625-.1725.906.207 1.835.575 2.557.966.585.3105 1.032.6325 1.216.8625.011.0115.023.0345.046.0575.034.0575.069.115.103.1725.092.1725.183.391.275.644 0 .0115.012.023.012.0345s0 .0115.011.023c.344 1.0465.665 2.7025.929 4.6.092.7705.195 1.5755.287 2.4035z" fill="#10538c"/><path d="m208.441 86.5261s2.397-2.162 12.178 2.484l-8.027.1265z" fill="#10538c"/><path d="m217.672 85.4564s-.895-.598-1.216-.644c-.39-.0575-.802-.5405-.757-.2645.046.276.471.6325.585.7475.115.115-.665.092-.986-.0575-.149-.069-.94-.276-.929.0115 0 .1725.31.989 1.09 1.1615.355.0805 2.087.1265 2.087.1265z" fill="#ffb27d"/><path d="m221.731 70.8054s1.697.9315.39 2.7945c0 0 1.479.2185 1.857-.207 0 0-.057.184-.126.276 0 0 1.434-.1495 1.973-.6785.527-.529-.872-7.82-4.725-6.4515 0 0-3.405.2185-2.545 4.0825s-.413 4.0365-.413 4.0365.378.1265.55.1035c0 0 .241-.1265.264-.276 0 0-.023.2185-.069.299 0 0 1.388-.0575 2.007-.6785.585-.598 1.147-2.5185.837-3.3005z" fill="#0c476f"/><path d="m222.327 72.7491s.929-1.311 1.193-2.4495c.195-.8165 1.215-4.1745-1.869-3.8985 0 0-2.179.322-3.05.8395-.688.414-1.698 1.334-.769 4.0595l.23.92z" fill="#0c476f"/><path d="m220.344 76.6705c.229.1725 1.238.3795 2.041-.023.756-.3795 1.1-1.196.986-1.518-.115-.3335-.47-.4485-.849-2.461l-.149.0575-2.477 1.012s.218.805.367 1.564c.126.6555-.057 1.2765.081 1.3685z" fill="#ffb27d"/><path d="m219.896 73.7381s.218.805.367 1.564c1.434-.322 1.938-1.794 2.11-2.5875z" fill="#ed975d"/><path d="m219.552 74.5659s3.429-.6095 3.016-2.7485-.252-3.6455-2.454-3.3465c-2.201.299-2.465 1.196-2.511 1.9435-.023.7475 1.055 4.255 1.949 4.1515z" fill="#ffb27d"/><path d="m218.635 67.9649s1.686 2.852 3.348 3.036c1.663.1955 2.041-.5405 2.041-.5405s-1.364-.805-1.857-2.484c0 .0115-2.924-1.449-3.532-.0115z" fill="#0c476f"/><path d="m218.922 68.1606s-.7.736-.803 1.3685-.023 1.8975-.39 1.909c0 0-1.055-1.794-.31-2.99.78-1.288 1.503-.2875 1.503-.2875z" fill="#0c476f"/><path d="m218.795 68.2756s1.147 2.829 3.303 3.4845c0 0-2.271-1.518-2.718-3.427-.435-1.9205-.585-.0575-.585-.0575z" fill="#0c476f"/><path d="m225.813 72.9904c-.527.529-1.972.6785-1.972.6785.069-.092.126-.276.126-.276-.757.575-2.546.092-2.546.092 1.457-.276 1.044-2.3805.551-2.484-.241-1.587-.757-3.565-.998-4.4505.069-.0115.103-.0115.103-.0115 3.865-1.3685 5.264 5.9225 4.736 6.4515z" fill="#0c476f"/><path d="m223.921 75.2561s2.225.0345 2.809.5175c.585.483.86 7.3715.86 7.3715s-1.055-.2875-2.006-.069c-.952.2185-2.19 0-2.19 0z" fill="#fff"/><path d="m220.16 75.3826s-2.809.5635-3.451 1.311c-.643.7475-1.927 4.508-1.927 4.508s.493.0805.757.4255c.252.345 1.089.184 1.089.184z" fill="#fff"/><path d="m215.046 96.117c.378-.8395.78-1.6445 1.158-2.4035.768-1.5065 1.502-2.829 2.121-3.8065.207-.3335.402-.621.574-.8625.08-.115.149-.2185.218-.3105.022-.023.034-.046.057-.0805.011-.0115.023-.023.034-.046.023-.0345.046-.0575.081-.0805.011-.023.034-.0345.045-.0575.012-.0115.023-.023.035-.0345.321-.299.722-.529 1.181-.69.504-.1725 1.089-.276 1.708-.322.597-.0345 1.239-.023 1.881.0345.654.0575 1.307.1495 1.938.2645.218.0345.436.0805.642.1265h.011c.86.1725 1.652.3795 2.282.552v7.705h-13.966z" fill="#137cbc"/><path d="m219.621 96.1169c.069-.184.138-.3795.195-.5635.126-.345.252-.69.378-1.0235.356-.9315.7-1.8055 1.021-2.553.47-1.1155.894-2.001 1.192-2.5415.035-.046.058-.1035.092-.1495.08-.1265.172-.2415.264-.345.115-.1265.252-.253.401-.3565.23-.1725.482-.3105.769-.414.607-.2415 1.33-.345 2.121-.345.218 0 .447.0115.676.023h.012c.378.023.768.069 1.169.1265.069.0115.138.023.207.0345.011 0 .034 0 .046.0115.286.046.573.1035.86.161v7.935z" fill="#137cbc"/><path d="m231.409 96.1055h-.723v-33.4535-1.8515-9.591h-35.317v9.591 1.8515 33.4535h-.722c-1.801 0-3.268 1.4605-3.268 3.2775v.115h43.286v-.115c0-1.817-1.456-3.2775-3.256-3.2775zm-34.4-43.2515h32.026v7.935h-32.026zm0 9.798h32.026v33.4535h-32.026z" fill="#e5a13e"/><path d="m228.565 53.5671h-30.971v1.564h30.971z" fill="#fff"/><path d="m228.565 56.0166h-30.971v1.564h30.971z" fill="#fff"/><path d="m228.565 58.4661h-30.971v1.564h30.971z" fill="#fff"/><path d="m228.565 60.7661h-30.971v1.564h30.971z" fill="#fff"/><path d="m228.565 63.3538h-30.971v1.564h30.971z" fill="#fff"/><path d="m199.325 52.8311h-.298v13.3515h.298z" fill="#fff"/><path d="m227.304 52.8311h-.298v13.3515h.298z" fill="#fff"/><path d="m230.583 130.1h-33.677v44.896h33.677z" fill="#cce9ff"/><path d="m214.404 130.916s.08 13.271-13.336 24.484c0 0 2.798 14.616 2.397 18.768h-6.445v-43.24h17.384z" fill="#fff"/><path d="m215.573 153.513s-1.399.15-2.213 1.541c-.814 1.38-2.408 7.383-3.566 8.602s-5.24 3.669-5.24 3.669l1.032.678s6.226-1.897 7.132-3.001 2.202-7.004 2.202-7.004z" fill="#ffb27d"/><path d="m216.949 145.072s.081-1.978 2.913-2.093c2.832-.126 4.873 2.277 4.965 3.588s-.482 3.347 1.376 4.704.94 7.647-3.452 7.647c-4.391 0-7.006-.253-7.029-2.53-.011-2.277-.091-4.335 1.652-4.968 1.754-.644-.425-6.348-.425-6.348z" fill="#0c476f"/><path d="m221.742 170.361s-.011.023-.011.057c0 .012-.012.035-.012.046-.011.035-.022.092-.045.15 0 .011-.012.034-.012.046-.011.046-.034.103-.046.172-.011.035-.023.081-.034.115-.103.334-.229.782-.401 1.334-.035.138-.081.288-.127.449-.023.08-.045.149-.068.23-.012.023-.012.057-.023.08-.012.058-.035.104-.046.161-.023.058-.035.127-.058.196-.045.149-.091.299-.126.46-.103.368-.206.747-.321 1.15h-6.639c.012-.414.034-.817.057-1.185 0-.092.012-.172.012-.253.034-.414.057-.805.092-1.15.011-.092.011-.184.023-.264.022-.173.034-.345.057-.495 0-.034.011-.057.011-.08 0-.035.012-.058.012-.081.023-.161.034-.322.057-.46.012-.046.012-.092.023-.138.012-.046.012-.08.023-.126.011-.035.011-.081.023-.115.011-.035.011-.069.023-.104 0-.023 0-.034.011-.046.012-.046.012-.092.023-.138 0-.023.012-.057.012-.08s.011-.046.011-.069c.012-.092.046-.173.08-.242.012-.023.023-.034.035-.057.011-.023.023-.035.034-.046.023-.035.046-.069.081-.092.011-.012.022-.023.045-.046.012-.012.035-.035.046-.046l.035-.035c.023-.023.046-.034.068-.046.012-.011.035-.023.046-.034.035-.023.069-.035.104-.058.022-.011.034-.023.057-.023.023-.011.046-.023.069-.034.023-.012.046-.012.068-.023.023-.012.046-.012.069-.023.081-.023.161-.046.241-.058.023 0 .034-.011.057-.011.035-.012.058-.012.092-.023.046 0 .08-.012.126-.023.035 0 .058-.012.092-.012.023 0 .046 0 .069-.011.034 0 .08-.012.126-.012s.103 0 .149-.011c.229-.012.482 0 .734.011.057 0 .115.012.172.012.092.011.195.011.298.023.138.011.287.034.436.057h.046c.068.012.137.023.206.035.206.034.413.069.608.103.08.012.16.035.241.046l.217.046c.207.046.413.092.608.138.069.023.149.035.218.058.023 0 .034.011.057.011.035.012.069.012.104.023.057.012.103.023.149.035.08.023.16.046.24.057.035.012.058.012.092.023.046.012.103.023.149.035.126.034.252.069.367.103.057.012.103.035.149.046.046.012.08.023.115.035h.023c.034.011.069.023.092.023.034.011.057.023.08.023.034.011.069.023.092.034.022.012.034.012.057.023.023 0 .034.012.057.023.046.069.103.081.103.081z" fill="#1c468a"/><path d="m221.742 170.361s-.011.023-.011.057c0 .012-.012.035-.012.046-.011.035-.022.092-.045.15 0 .011-.012.034-.012.046-.011.046-.034.103-.046.172-.011.035-.023.081-.034.115-.103.334-.229.782-.401 1.334-.035.138-.081.288-.127.449-.023.08-.045.149-.068.23-.012.023-.012.057-.023.08-.012.058-.035.104-.046.161-.023.058-.035.127-.058.196-.045.149-.091.299-.126.46-.103.368-.206.747-.321 1.15h-6.639c.012-.414.034-.817.057-1.185 0-.092.012-.172.012-.253.034-.414.057-.805.092-1.15.011-.092.011-.184.023-.264.022-.173.034-.345.057-.495 0-.034.011-.057.011-.08 0-.035.012-.058.012-.081.023-.161.034-.322.057-.46.012-.046.012-.092.023-.138.012-.046.012-.08.023-.126.011-.035.011-.081.023-.115.011-.035.011-.069.023-.104 0-.023 0-.034.011-.046.012-.046.012-.092.023-.138 0-.023.012-.057.012-.08s.011-.046.011-.069c.012-.092.046-.173.08-.242.012-.023.023-.034.035-.057.011-.023.023-.035.034-.046.023-.035.046-.069.081-.092.011-.012.022-.023.045-.046.012-.012.035-.035.046-.046l.035-.035c.023-.023.046-.034.068-.046.012-.011.035-.023.046-.034.035-.023.069-.035.104-.058.022-.011.034-.023.057-.023.023-.011.046-.023.069-.034.023-.012.046-.012.068-.023.023-.012.046-.012.069-.023.081-.023.161-.046.241-.058.023 0 .034-.011.057-.011.035-.012.058-.012.092-.023.046 0 .08-.012.126-.023.035 0 .058-.012.092-.012.023 0 .046 0 .069-.011.034 0 .08-.012.126-.012s.103 0 .149-.011c.229-.012.482 0 .734.011.057 0 .115.012.172.012.092.011.195.011.298.023.138.011.287.034.436.057h.046c.068.012.137.023.206.035.206.034.413.069.608.103.08.012.16.035.241.046l.217.046c.207.046.413.092.608.138.069.023.149.035.218.058.023 0 .034.011.057.011.035.012.069.012.104.023.057.012.103.023.149.035.08.023.16.046.24.057.035.012.058.012.092.023.046.012.103.023.149.035.126.034.252.069.367.103.057.012.103.035.149.046.046.012.08.023.115.035h.023c.034.011.069.023.092.023.034.011.057.023.08.023.034.011.069.023.092.034.022.012.034.012.057.023.023 0 .034.012.057.023.046.069.103.081.103.081z" fill="#163560"/><path d="m225.01 174.995h-6.559c-.16-.92-.321-1.782-.458-2.518-.23-1.265-.424-2.22-.505-2.645-.034-.161-.046-.253-.046-.253s.058-.069.172-.196c.677-.77 3.245-3.496 4.484-2.242.206.207.413.425.631.655.733.805 1.502 1.817 1.96 3.255.333 1.069.482 2.357.321 3.944z" fill="#1c468a"/><path d="m216.949 154.445 1.113 1.667 2.236-.115 1.032-2.679s-.321-.058-.471-3.393l-2.786.851s.149.874-.046 1.817c-.149.667-.447 1.369-1.078 1.852z" fill="#ffb27d"/><path d="m216.64 153.261c.149 0 2.775-.886 6.524.655 0 0-1.777 10.224-1.02 12.167.768 1.955 1.055 3.68 1.055 3.68l-8.302.104s.114-6.693-.264-9.062c-.39-2.369 2.007-7.544 2.007-7.544z" fill="#ffb27d"/><path d="m224.827 170.844c-.138.299-.447.529-.837.713-.505.241-1.112.402-1.594.517-.378.092-.963.184-1.628.265-.356.046-.734.069-1.124.092-.057 0-.115.011-.161.011-2.499.127-5.297.069-5.664-1.127-.034-.115-.034-.345-.012-.644.046-.621.195-1.541.333-2.392.138-.828.264-1.598.298-1.989.195-2.116-.206-5.152-.275-7.119-.046-1.633 1.41-5.646 1.41-5.646s.276-.161 1.365-.311c0 0 .16 1.967 1.158 2.128 1.743.287 3.142-1.311 3.555-1.955 0 0 1.995.506 2.591 1.173.424.483.367 1.633.241 2.357-.034.23-.092.414-.126.529-.126.334-.596 2.737-.803 3.703 0 .023-.011.046-.011.069-.012.069-.023.127-.035.173-.011.046-.023.092-.034.115 0 .011-.012.034-.012.046-.309.989-.493 1.989-.389 3.231.011.15.045.322.091.518.264 1.426 1.422 4.243 1.663 5.543z" fill="#1d8cdd"/><path d="m218.016 152.593c1.158-.092 2.843-2.668 2.843-2.668l-2.786.851c-.011 0 .138.874-.057 1.817z" fill="#ed975d"/><path d="m216.926 153.203s-2.671.287-3.577 1.552c-.895 1.265-1.468 3.151-1.468 3.151s.642 1.921 2.511 1.679c1.869-.241 2.534-6.382 2.534-6.382z" fill="#1d8cdd"/><path d="m217.603 151.535s3.406-.103 3.314-2.231c-.092-2.127.275-3.576-1.904-3.599-2.178-.023-2.568.805-2.706 1.529-.149.725.402 4.278 1.296 4.301z" fill="#ffb27d"/><path d="m217.855 145.44s.103.702 1.445 1.633c1.342.932 1.571 3.071 1.571 3.071s1.02-3.818-.195-4.681c-1.215-.862-2.821-.023-2.821-.023z" fill="#0c476f"/><path d="m218.956 144.233s-1.743-.161-2.981 1.794c-.528.839-.115 2.162.435 2.852 0 0 .184-1.806 1.136-2.404.951-.598 1.41-2.242 1.41-2.242z" fill="#0c476f"/><path d="m218.383 150.293s-.035.265-.665.299c0 0-.539.024-.551-.252-.011 0 .482-.265 1.216-.047z" fill="#fff"/><path d="m207.317 164.462s-.894-1.047-.057-1.714c0 0 .619-.379 1.112-.345 0 0-.711 1.196-.481 1.311.229.115.699-1.391.699-1.391s1.399-.138 1.846.08c0 0-1.192.978-.94 1.047.252.057 1.548-.909 1.548-.909s1.307.219 1.238 1.024c-.068.805-.516 1.046-.711 1.023-.194-.023-1.353-.46-1.376-.299-.022.161.666.69 1.159.713 0 0-.918 1.012-1.525.725-.608-.299-.666-.759-1.044-.932-.378-.172-.711-.172-.55 0 .16.173.848.345 1.066.736s.413.644-.218.552c-.63-.092-1.662-.563-1.708-1.092-.058-.529-.058-.529-.058-.529z" fill="#10538c"/><path d="m211.64 163.576s-3.543-.138-4.323.874c0 0-.172.518-.699.989l-.08.23s.619-.644.837-.69c-.012.012-.356-1.253 4.265-1.403z" fill="#10538c"/><path d="m206.606 165.451s-.756.563-.814 1.575l.138.012s.241-1.047.676-1.449c.448-.414 0-.138 0-.138z" fill="#10538c"/><path d="m204.175 163.139s1.434-.805.757-1.886c0 0-.539-.667-1.101-.84 0 0 .31 1.622 0 1.668-.309.034-.206-1.829-.206-1.829s-1.502-.724-2.098-.667c0 0 .928 1.587.63 1.553-.309-.035-1.353-1.645-1.353-1.645s-1.548-.287-1.789.633c-.252.92.15 1.38.379 1.437.229.058 1.697.035 1.663.23-.035.196-1.032.495-1.583.322 0 0 .608 1.507 1.411 1.438.802-.081 1.043-.575 1.548-.61.493-.034.86.092.607.23-.252.138-1.089.046-1.49.38-.402.345-.723.552.023.701.745.15 2.075.058 2.339-.517.263-.598.263-.598.263-.598z" fill="#10538c"/><path d="m199.715 160.379s4.002 1.299 4.46 2.748c0 0-.022.644.379 1.392v.287s-.424-.977-.642-1.104c0 .012.894-1.253-4.197-3.323z" fill="#10538c"/><path d="m204.554 164.531s.619.943.264 2.081l-.161-.046s.149-1.265-.172-1.897c-.31-.621.069-.138.069-.138z" fill="#10538c"/><path d="m206.446 162.024s-1.881-1.058-1.009-2.496c0 0 .699-.885 1.456-1.104 0 0-.401 2.139 0 2.185s.275-2.415.275-2.415 1.984-.954 2.764-.885c0 0-1.227 2.093-.826 2.035.401-.046 1.777-2.162 1.777-2.162s2.03-.379 2.363.828c.321 1.208-.207 1.817-.505 1.886-.298.081-2.236.046-2.179.299.046.253 1.353.656 2.087.426 0 0-.802 1.989-1.857 1.886-1.055-.104-1.376-.759-2.03-.805-.653-.046-1.135.126-.803.299.322.172 1.434.057 1.961.506.528.448.952.724-.023.931-.974.207-2.74.081-3.084-.678-.367-.736-.367-.736-.367-.736z" fill="#10538c"/><path d="m212.328 158.401s-5.274 1.714-5.871 3.623c0 0 .023.851-.504 1.84v.379s.55-1.288.848-1.46c0 0-1.181-1.656 5.527-4.382z" fill="#10538c"/><path d="m205.941 163.864s-.814 1.242-.344 2.748l.207-.057s-.207-1.656.218-2.496c.435-.828-.081-.195-.081-.195z" fill="#10538c"/><path d="m210.069 166.187c0 2.047-1.651 3.703-3.692 3.703-.424 0-.837-.069-1.215-.207-1.445-.506-2.477-1.875-2.477-3.496z" fill="#10538c"/><path d="m206.389 169.878c-.15.023.607 0 .447 0-2.041 0-3.693-1.656-3.693-3.703h.918c0 1.898.504 3.485 2.328 3.703z" fill="#10538c"/><path d="m210.127 170.074h-7.477c0-.127.046-.242.138-.322.08-.081.195-.138.321-.138h6.57c.241 0 .448.207.448.46z" fill="#10538c"/><path d="m210.15 166.187h-7.58v.115h7.58z" fill="#10538c"/><path d="m210.31 167.566c-.08-.195-.883-.391-1.204-.529 0 0-.206.15.069.391.069.069.206.161.332.253-.034-.011-.08-.023-.114-.034-.287-.081-2.133.552-2.351.966s1.055 1.437 2.018 1.115c.493-.161 2.087-.46 2.087-.46l-.264-1.299s-.493-.207-.573-.403z" fill="#ffb27d"/><path d="m224.54 155.388s.379 2.645-2.362 6.555c-2.74 3.91-2.58 4.163-4.162 5.198-1.571 1.035-6.869 2.127-6.869 2.127l-.264-1.299s5.138-3.312 5.619-3.968c.482-.655 3.784-8.004 3.784-8.004z" fill="#ffb27d"/><path d="m221.903 154.411s-2.19 1.725-2.775 2.564c-.585.84-1.112 2.726-1.112 2.726s2.293 1.437 6.249.402c0 0 1.055-4.899-.023-5.543-1.078-.632-2.075-.149-2.075-.149z" fill="#1d8cdd"/><path d="m215.275 130.916s2.454 10.868 13.76 14.709c0 0-.103 16.744-1.387 21.148-1.285 4.405-1.594 7.395-1.594 7.395h2.981v-43.24h-13.76z" fill="#fff"/><path d="m231.409 174.156h-.723v-33.453-1.852-9.591h-35.317v9.591 1.852 33.453h-.722c-1.801 0-3.268 1.461-3.268 3.278v.115h43.286v-.115c0-1.806-1.456-3.278-3.256-3.278zm-34.4-43.24h32.026v7.935h-32.026zm0 9.787h32.026v33.453h-32.026z" fill="#e5a13e"/><path d="m248.792 188.025h-126.523v17.365h126.523z" fill="#ffcc83"/><path d="m152.323 205.493s-2.339-8.452-12.086-11.281c-9.746-2.829-9.116-1.415-17.911-6.463-8.795-5.037-22.6233-1.886-25.4556 2.208s-9.4256 6.302-18.5416 6.141-9.5747 8.74-9.5747 8.74z" fill="#0d4871"/><path d="m315.23 205.655h-286.4601c-.195 0-.3555-.161-.3555-.357v-.184c0-.195.1605-.356.3555-.356h286.4491c.195 0 .355.161.355.356v.184c0 .196-.16.357-.344.357z" fill="#2995f5"/><path d="m176.231 130.1h-33.677v44.896h33.677z" fill="#fff" opacity=".5"/><path d="m175.406 130.927h-32.027v43.24h32.027z" fill="#cce9ff"/><path d="m156.44 169.004s-1.846 2.53-1.846 5.163h12.533s-.677-4.094-3.532-5.163c-2.855-1.058-7.155 0-7.155 0z" fill="#0c476f"/><path d="m171.782 155.399s-1.972 5.026-2.19 5.21c-.596.483-4.231-5.095-4.793-6.072-.562-.978-4.013-.138-4.312-1.955-.091-.552-.275-1.162-.275-1.553 0-.046 0-.092 0-.138 0-.356.023-.736.081-1.138l-.172.011-2.902.23s.287.702.195 1.553c-.034.276-.045.793-.08 1.299-.034.564-.424 1.047-.963 1.208-1.238.368-2.786.92-3.05 1.61-.528 1.345-1.697 7.44-1.927 9.51-.229 2.07-2.316 8.119-2.316 8.119h1.044s3.921-6.612 4.254-7.636c.103-.322.481-1.575.94-3.185.436 1.736 1.055 3.473 1.193 4.186.24 1.23-2.03 5.221-1.801 6.325.23 1.104 12.201 1.702 12.04 0-.16-1.702-1.846-4.589-2.19-5.934-.252-1.012.333-4.405.516-6.417 1.835 2.093 4.323 4.048 5.08 3.645 1.961-1.023 2.58-8.625 2.58-8.625z" fill="#ffb27d"/><path d="m158.148 148.166s-1.559 1.242-.241 3.048c0 0-1.525-.058-1.914-.46 0 0 .068.184.137.264 0 0-1.41-.115-1.938-.632-.527-.506.7-7.682 4.518-6.417 0 0 3.337.149 2.58 3.956-.768 3.806.482 3.956.482 3.956s-.367.126-.539.115c0 0-.23-.127-.264-.265 0 0 .023.219.08.299 0 0-1.364-.034-1.972-.621-.642-.598-1.215-2.472-.929-3.243z" fill="#0c476f"/><path d="m156.772 149.741s-.676-1.414-.745-2.564c-.046-.817.711-3.749 3.658-2.967 0 0 .86.184 1.605.839.596.518 1.422 1.576.069 4.048l-.378.851z" fill="#0c476f"/><path d="m160.476 152.582c-2.098-.31-3.279-2.518-3.279-2.518.86-.092 2.041.345 3.004.816v.138c0 .391.137 1.012.275 1.564z" fill="#ed975d"/><path d="m160.499 151.742s-3.761-.391-3.486-2.737-.023-3.979 2.385-3.829c2.408.149 2.775 1.092 2.867 1.909.114.805-.78 4.692-1.766 4.657z" fill="#ffb27d"/><path d="m161.13 145.326s-1.353 2.633-2.982 2.84c-1.628.219-2.259-.287-2.259-.287s1.33-.817 1.778-2.473c0 .012 2.843-1.483 3.463-.08z" fill="#0c476f"/><path d="m160.843 145.521s.699.701.814 1.322.057 1.863.413 1.863c0 0 .997-1.782.252-2.944-.791-1.23-1.479-.241-1.479-.241z" fill="#0c476f"/><path d="m160.981 145.625s-1.078 2.794-3.177 3.473c0 0 2.202-1.53 2.592-3.416.401-1.874.585-.057.585-.057z" fill="#0c476f"/><path d="m159.731 150.363s.091.333.321.391c.229.057.837.115.883.069.057-.046.229-.345.229-.345s-.952-.219-1.433-.115z" fill="#fff"/><path d="m171.736 155.676s-.069-1.794.126-2.404c.195-.609.608-1.61.7-1.564s.275 1.38.195 1.679.08 1.012.195.874c.114-.138.309-1.092.458-1.035.161.058.012.633.081.782.068.15.068.529-.23 1.024-.298.494-.596 1.058-.596 1.058z" fill="#ffb27d"/><path d="m149.296 173.271s-1.514-.368-2.007-.196c-.493.173-1.399 1.058-1.169 1.07.229.011 1.273-.265 1.422-.23.149.034.573.092.573.092s-.619.034-.585.149c.035.115 1.594.127 1.777 0 .184-.126.815-.897.815-.897h-.826z" fill="#ffb27d"/><path d="m154.743 154.595s1.903 1.633 4.311 1.506c2.42-.126 4.323-2.116 4.323-2.116s1.101.012 1.674.621c.574.621 2.775 3.381 2.775 3.381s.195 2.082-2.282 3.531l-.252-.449s-.413 5.175-.161 5.658c.264.483 2.317 5.578 1.973 6.36-.333.782-11.57 2.702-12.419-.127-.848-2.829 1.273-5.278 1.181-6.29-.091-1.012-.573-4.221-.573-4.221s-3.245-.494-3.36-2.449c.023.011.597-5.44 2.81-5.405z" fill="#fff"/><path d="m177.791 174.156h-.723v-33.453-1.852-9.591h-35.317v9.591 1.852 33.453h-.722c-1.801 0-3.268 1.461-3.268 3.278v.115h43.298v-.115c0-1.806-1.468-3.278-3.268-3.278zm-34.389-43.24h32.027v7.935h-32.027zm0 9.787h32.027v33.453h-32.027z" fill="#e5a13e"/><path d="m174.947 131.629h-30.972v1.564h30.972z" fill="#fff"/><path d="m174.947 134.079h-30.972v1.564h30.972z" fill="#fff"/><path d="m174.947 136.528h-30.972v1.564h30.972z" fill="#fff"/><path d="m174.947 138.828h-30.972v1.564h30.972z" fill="#fff"/><path d="m174.947 141.416h-30.972v1.564h30.972z" fill="#fff"/><path d="m145.718 130.893h-.298v13.352h.298z" fill="#fff"/><path d="m173.686 130.893h-.299v13.352h.299z" fill="#fff"/><path d="m166.817 172.902h-4.564v-1.61h4.576c.355 0 .642.288.642.644v.311c.011.368-.287.655-.654.655z" fill="#fcecdb"/><path d="m171.369 171.959v.242c0 .126-.034.253-.091.356-.127.207-.344.357-.608.357h-8.543c-.057 0-.103-.046-.103-.104v-.034c0-.058.046-.104.103-.104h5.206c.023-.034.057-.069.069-.115.046-.092.08-.195.08-.31v-.311c0-.057-.011-.115-.023-.161-.023-.092-.069-.172-.126-.241h-5.217c-.058 0-.103-.046-.103-.104v-.034c0-.058.045-.104.103-.104h8.588c.298 0 .562.207.642.483.012.058.023.115.023.184z" fill="#699dee"/><path d="m171.346 171.775h-3.887c-.023-.092-.069-.172-.126-.241h-5.217c-.058 0-.103-.046-.103-.104v-.034c0-.058.045-.104.103-.104h8.588c.298 0 .562.207.642.483z" fill="#548ee2"/><path d="m162.265 172.097.63.035-.63.011z" fill="#f4d2b8"/><path d="m162.265 172.351 1.502.034-1.502.012z" fill="#f4d2b8"/><path d="m163.239 174.156h4.851v-1.253h-4.896c-.333 0-.608.276-.608.609 0 .357.287.644.653.644z" fill="#0c476f"/><path d="m167.815 174.156h5.527v-1.253h-5.539c-.344 0-.619.276-.619.621 0 .356.275.632.631.632z" fill="#fcecdb"/><path d="m166.806 174.156h6.719c.057 0 .092-.046.092-.092 0-.057-.046-.092-.092-.092h-6.719c-.058 0-.092.046-.092.092 0 .058.046.092.092.092z" fill="#0c476f"/><path d="m166.806 173.087h6.719c.057 0 .092-.046.092-.092 0-.058-.046-.092-.092-.092h-6.719c-.058 0-.092.046-.092.092 0 .057.046.092.092.092z" fill="#0c476f"/><path d="m173.33 173.535-.745.012.745.023z" fill="#f4d2b8"/><path d="m173.33 173.248-1.777.011 1.777.012z" fill="#f4d2b8"/><path d="m171.576 173.259s.08.058.103.138c0 .012.011.035.011.046v.38l.23-.138.229.138v-.357c0-.069-.023-.138-.057-.184-.023-.023-.035-.034-.058-.034h-.458z" fill="#699dee"/><path d="m171.576 173.259s.08.058.103.138h.447s-.023-.126-.115-.149h-.435z" fill="#568cdb"/><path d="m175.532 52.0491h-33.678v44.896h33.678z" fill="#cce9ff"/><path d="m158.045 52.854s-.08 13.271 13.336 24.4835c0 0-2.798 14.6165-2.397 18.768h6.445v-43.24h-17.384z" fill="#fff"/><path d="m146.028 78.0276s-2.809.4025-3.532 1.035c-1.227 1.0695-.321 17.3995-.321 17.3995s4.22.345 4.22 0c0-.3565-.367-18.4345-.367-18.4345z" fill="#d39e7a"/><path d="m157.036 96.485-6.031.4485-4.209.3105-.883.069-.057-.3795-.046-.3335-.011-.069-.207-1.472-.08-.5865-.264-1.794-1.318-9.177-.367-2.5645s-.276-2.415 1.96-2.806c.161-.0345.333-.0575.516-.092h.012c.757-.138 1.628-.2875 2.477-.4025.699-.092 1.399-.1495 2.018-.138.264 0 .516.023.745.0575.298.046.562.115.78.2185l.069.0345c.091.046.16.092.241.1495.034.023.057.046.08.0805.08.0805.16.2415.264.4715.103.253.229.598.355 1.012.183.575.378 1.2765.596 2.0815.597 2.2425 1.273 5.1865 1.869 7.8775.023.0805.035.161.058.2415.08.345.149.69.229 1.0235 0 .0115.011.0345.011.046.012.0575.023.1265.035.184.034.161.069.3335.103.4945.069.322.138.6325.206.9315.436 2.0355.757 3.588.838 3.9905.011.0575.011.092.011.092z" fill="#efcbab"/><path d="m153.218 79.4536s.951 1.4145 1.502 4.393c.481 2.6105.894 3.565 1.582 4.1055.688.529 4.518 2.116 4.518 2.116l-.287.6785s-5.618-.7705-6.249-1.7135-3.039-6.509-2.855-7.7855c.195-1.288 1.789-1.794 1.789-1.794z" fill="#f4a269"/><path d="m166.095 96.9334h-4.644c-.115-.46-.287-.759-.62-.7705-.298-.0115-1.892.1495-3.829.2185-3.073.1035-6.984-.046-7.855-1.5985-.206-.368-.367-.7475-.47-1.104-.023-.0575-.035-.1035-.046-.161-.184-.667-.218-1.311-.172-1.863.023-.322.069-.621.126-.874.138-.644.321-1.0465.321-1.0465l1.514 1.1155.172.1265s1.295-.092 3.096-.1725c.401-.0115.814-.0345 1.25-.046.217-.0115.435-.0115.665-.0115h.218c.538-.0115 1.1-.0115 1.651-.0115h.16.39c2.133.023 4.174.161 5.195.552.149.0575.275.115.378.184 0 0 .011 0 .011.0115.734.46 1.64 2.737 2.489 5.451z" fill="#10538c"/><path d="m161.841 96.9335h-10.836l-4.209.3105c-.206-.092-.39-.1955-.55-.3105-.149-.1035-.275-.2185-.39-.3335-.023-.023-.046-.046-.057-.069-.069-.0805-.126-.1725-.172-.2645-.207-.414-.287-.805-.264-1.1845.011-.2185.057-.414.138-.621.172-.4715.481-.897.837-1.2765.905-.943 2.121-1.5295 2.121-1.5295h.011c.127.0115 1.388.069 3.051.207.16.0115.321.023.493.046 1.307.115 2.797.276 4.162.4945 1.766.276 3.325.6325 4.002 1.104.527.3565 1.101 1.679 1.663 3.427z" fill="#1d8cdd"/><path d="m153 74.3015c0-.0115 0-.0115 0-.023 0-.184-.012-.368-.023-.552-.035-.552-.115-1.0925-.207-1.564-.057-.276-.126-.529-.195-.759-.011-.0345-.022-.069-.034-.1035-.172-.529-.39-.92-.631-1.0695-.435-.2875-.963-.345-1.341-.3565.103-.092.298-.115.298-.115-.229-.046-.768.1495-.768.1495-3.154-1.472-3.979 3.2775-3.991 4.393-.011 1.1155-.08 2.392-1.766 3.289-.642.345-1.077.7475-1.341 1.196-1.112 1.8285.481 4.163.481 4.163.012 0 .184.23.425.5635.642.851 1.777 2.3575 1.777 2.3575 0-.207.172-.598.47-1.104.218-.3795.505-.805.837-1.265.161-.2185.321-.4485.505-.667.229-.299.481-.6095.734-.9085.103-.115.195-.23.298-.345.447-.5175.917-1.012 1.387-1.449.103-.1035.218-.1955.321-.2875.126-.115.264-.23.39-.3335.252-.1955.493-.3795.723-.5175.011-.0115.022-.0115.034-.023.034-.023.057-.0345.092-.0575.103-.1265.183-.2645.263-.414.035-.0575.058-.115.092-.1725.08-.1725.149-.345.218-.5175.183-.529.287-1.0005.31-1.081-.069.4485-.149.8165-.23 1.1155-.057.1955-.114.368-.172.506-.046.1035-.08.1955-.126.2645-.023.0345-.034.069-.057.1035.023-.023.046-.046.069-.0575.091-.0805.172-.1725.252-.276.092-.115.172-.2415.252-.391.505-.966.688-2.346.654-3.6915z" fill="#0c476f"/><path d="m151.417 78.2231c-.057-.023-.114-.046-.183-.069 0-.1495.011-.299.023-.4485.046-.713.149-1.4605.149-1.4605l-2.362-.6325-.138-.0345c-.069 1.0465-.275 1.7595-.459 2.2425-.24.0115-.401.023-.401.023-.034.138 0 .368.126.6095-.023.046-.034.0805-.034.115-.149.667 1.513 1.5985 2.293 1.633.447.023.688-.161.814-.391.941-.253.872-1.2995.172-1.587z" fill="#ffb27d"/><path d="m151.406 76.2336s-.103.7475-.149 1.4605c-1.342-.1265-1.961-1.403-2.213-2.1045z" fill="#f4a269"/><path d="m148.814 75.3136s-.63-1.1615-.733-2.1275c-.081-.69.435-3.1855 2.935-2.6565 0 0 .734.1265 1.387.6325.528.4025 1.262 1.265.23 3.404l-.275.7245z" fill="#0c476f"/><path d="m151.819 76.935s-3.177-.161-3.05-2.139c.126-1.978-.195-3.335 1.834-3.3235 2.03.023 2.374.805 2.488 1.472.127.6785-.447 3.979-1.272 3.9905z" fill="#ffb27d"/><path d="m152.059 71.5184s-1.02 2.2655-2.373 2.5185-1.915-.138-1.915-.138 1.078-.7475 1.387-2.1505c-.011 0 2.317-1.38 2.901-.23z" fill="#0c476f"/><path d="m151.83 71.7024s.619.5635.734 1.081c.126.5175.126 1.564.436 1.541 0 0 .757-1.541.08-2.484-.711-1.0005-1.25-.138-1.25-.138z" fill="#0c476f"/><path d="m154.995 91.1376c-.252.3105-1.055.4025-1.915.5405-.677.115-1.387.253-1.892.552-1.147.6785-4.885 2.9555-5.974 2.852-.424-.0345-.344-.851-.092-1.932.401-1.702 1.25-4.071 1.25-5.106 0-.5635.183-1.886.436-3.4155.023-.1265.046-.2415.057-.368.493-2.9555 1.17-6.44 1.17-6.44s.756 1.6675 2.247 1.6675c1.479 0 1.135-1.265 1.135-1.265s1.353.161 1.674.506c.322.345 1.136 1.84 1.296 2.2425 0 0 .035.5175-1.25.759 0 0 .31 1.403.344 2.346.023.69-.47 2.852-.619 4.209-.046.4715-.057.851.023 1.0235.103.2185.424.437.78.644.734.414 1.628.8165 1.33 1.1845z" fill="#2b94f4"/><path d="m153.676 89.953c.826 1.403-2.224 1.8285-2.729 2.116-1.146.6785-4.644 3.1165-5.745 3.013-.424-.0345-.344-.851-.091-1.932.401-1.702 1.25-4.071 1.25-5.106 0-.5635.183-1.886.435-3.4155l1.319-1.265s1.41 3.6685 2.763 4.2665c.711.3105 1.445.5175 1.984.644-.046.4715-.057.851.023 1.0235.103.2185.424.437.791.6555z" fill="#1d8cdd"/><path d="m158.114 90.9648h-4.151v.4945h4.151z" fill="#0c476f"/><path d="m157.231 91.3904c.046-.161 3.818-6.1065 3.818-6.1065h8.394l-4.208 5.9455z" fill="#0c476f"/><path d="m157.586 91.4594c.046-.161 3.83-6.1755 3.83-6.1755h8.038l-4.013 6.1755z" fill="#2b478b"/><path d="m164.226 88.5845c-.081.2415-.344.437-.585.437s-.367-.1955-.287-.437.344-.437.585-.437c.252 0 .378.1955.287.437z" fill="#afcdfb"/><path d="m156.245 89.4241c-.172-.069-1.514.1725-1.892.2415-1.216-.2415-5.206-1.035-5.401-1.288-.229-.299-.734-9.3035-1.307-9.453 0 0-1.124-.69-2.213.621-1.09 1.2995.779 10.6145 2.396 11.0975 1.801.529 6.983-.0805 6.983-.0805.425.1495 1.17.23 1.571.3565.528.1725.987.0345 1.101-.1725.092-.207-1.043-1.2305-1.238-1.3225z" fill="#ffb27d"/><path d="m148.046 77.832s-2.316.207-2.993.9775c-.676.759-.871 2.829-.871 2.829s2.041 1.656 4.495 1.012z" fill="#2b94f4"/><path d="m157.162 52.854s-2.454 10.8675-13.76 14.7085c0 0 .103 16.744 1.388 21.1485 1.272 4.4045 1.593 7.3945 1.593 7.3945h-2.981v-43.24h13.76z" fill="#fff"/><path d="m137.772 99.3715v.115h43.287v-.115c0-1.8055-1.457-3.2775-3.268-3.2775h-.723v-33.442-1.8515-9.591h-35.317v9.591 1.8515 33.4535h-.722c-1.801 0-3.257 1.4605-3.257 3.266zm37.657-38.5825h-32.027v-7.935h32.027zm0 35.3165h-32.027v-33.4535h32.027z" fill="#e5a13e"/><path d="m169.982 92.8396s1.135.46 1.949-.7015c0 0-1.307-.2185-1.949.7015z" fill="#6bb7bf"/><path d="m169.902 92.3566s-.081-.4024-.562-.4254c.011.0115.183.4254.562.4254z" fill="#6bb7bf"/><path d="m170.142 89.9761s.551.0575.757-.552c0 0-.596.069-.757.552z" fill="#6bb7bf"/><path d="m171.45 81.9605c-1.113-.2415-1.136-1.15-1.136-1.15 1.319.414 1.136 1.15 1.136 1.15z" fill="#6bb7bf"/><path d="m171.53 81.7536s.699.2875 1.192-.4255c0 0-.802-.138-1.192.4255z" fill="#6bb7bf"/><path d="m170.005 95.5191-.149.161c-.023.023-.069.0115-.069-.023.011-4.7035.608-8.8665 1.101-11.339.55-2.691 1.101-4.278 1.101-4.2895 0 .0115-.505 1.633-1.044 4.3125-.504 2.461-1.078 5.6925-.929 11.109.012.023 0 .046-.011.069z" fill="#6bb7bf"/><path d="m172 79.3961c-.172.138-.86.7475-.195 1.219 0 0 .505.161.677-.23.126-.299.16-.6325.172-.7705 0-.0345-.023-.069-.058-.069-.034 0-.091-.0115-.137-.0345-.058-.023-.092-.115-.184-.138-.057-.0115-.103-.023-.172-.023-.046 0-.08.023-.103.046z" fill="#1d8cdd"/><path d="m171.622 80.4426s.206.161.126.4255v.092s.057-.2415.298-.3105c0 0-.229.023-.424-.207z" fill="#6bb7bf"/><path d="m171.45 81.9605c-1.113-.2415-1.136-1.15-1.136-1.15s.883.483 1.136 1.15z" fill="#8ad8db"/><path d="m170.383 81.3397s-.699.2645-1.181-.4485c0 0 .803-.1265 1.181.4485z" fill="#6bb7bf"/><path d="m171.633 95.1283.138.1724c.023.0231.057.0115.068-.023.081-4.692-.424-8.878-.871-11.3505-.493-2.7025-1.009-4.301-1.021-4.3125 0 .0115.471 1.6445.964 4.3355.447 2.4725.963 5.7155.711 11.132-.012 0 0 .0231.011.0461z" fill="#6bb7bf"/><path d="m169.97 78.9707c.172.1495.837.7705.172 1.2305 0 0-.504.1495-.665-.2415-.126-.299-.149-.6325-.16-.7705 0-.0345.023-.069.057-.069.035 0 .092-.0115.149-.0345.058-.023.092-.115.184-.138.057-.0115.103-.023.172-.0115.023-.0115.057.0115.091.0345z" fill="#1d8cdd"/><path d="m170.326 80.0286s-.207.161-.138.414v.092s-.046-.2415-.298-.322c0 .0115.229.0345.436-.184z" fill="#6bb7bf"/><path d="m170.681 80.5115s.734.1265 1.067-.6785c0 .0115-.814.046-1.067.6785z" fill="#6bb7bf"/><path d="m172.183 94.277-.103.1955c-.011.0345-.057.023-.069-.0115-1.009-4.5885-1.341-8.786-1.387-11.3045-.057-2.737.138-4.416.149-4.4275 0 .0115-.138 1.702-.08 4.439.046 2.5185.195 5.7845 1.513 11.0515 0 .0115-.011.0345-.023.0575z" fill="#6bb7bf"/><path d="m170.624 78.1081c-.138.184-.677.92.069 1.242 0 0 .527.046.608-.368.057-.322.022-.6555 0-.7935 0-.0345-.035-.0575-.081-.0575-.034 0-.091.0115-.149 0-.069-.0115-.114-.092-.206-.092-.058 0-.115 0-.172.023-.023 0-.046.0115-.069.046z" fill="#1d8cdd"/><path d="m170.486 79.2122s.23.115.218.3795l.023.092s0-.2415.23-.368c-.012 0-.23.0805-.471-.1035z" fill="#6bb7bf"/><path d="m171.289 79.6951s0-.5865.505-.7705c0 0 .114.483-.505.7705z" fill="#6bb7bf"/><path d="m170.108 78.752s.011-.4485-.401-.575c0 0-.104.414.401.575z" fill="#ed9f4a"/><path d="m171.461 81.4432c.012.0115.218-.437-.195-.7935 0 0-.172.4715.195.7935z" fill="#ed9f4a"/><path d="m171.748 81.4085c-.012 0 0-.2185.206-.253 0 0 .035.184-.206.253z" fill="#6bb7bf"/><path d="m169.638 80.6496s-.184-.368-.745-.3105c-.012 0 .08.4025.745.3105z" fill="#6bb7bf"/><path d="m172.803 96.071h-3.67c-.24 0-.435-.2185-.401-.46l1.709-11.799c.011-.115.114-.1955.217-.1955h.551c.115 0 .218.092.241.207l1.743 11.799c.034.23-.161.4485-.39.4485z" fill="#1d8cdd"/><path d="m169.947 95.7145.906-12.098c-.103.0115-.172.092-.195.184l-1.708 11.799c-.035.2415.149.46.401.46h.734c-.092-.0805-.149-.207-.138-.345z" fill="#ffb278"/><g fill="#2795f6"><path d="m270.212 122.9h-.768l.011-.057.23-2.059c.011-.069.068-.115.126-.115h.023c.045 0 .08.023.114.058.035.034.058.08.069.138z"/><path d="m269.513 122.44h-.023l.195-1.656c.011-.069.068-.115.126-.115h.023c.011.012.011.012.023.023.034.035.057.081.057.138l.011 1.185c-.011.23-.183.414-.412.425z"/><path d="m270.705 132.077h-1.491v65.78h1.491z"/><path d="m269.902 132.077h-.688v65.78h.688z"/><path d="m272.322 187.358h-4.736v17.399h4.736z"/><path d="m270.407 187.358h-2.821v17.399h2.821z"/><path d="m272.54 123.901c0 .816-1.216 1.472-2.718 1.472-.115 0-.229 0-.332-.012-1.342-.092-2.386-.713-2.386-1.46 0-.748 1.044-1.369 2.386-1.461.114-.011.217-.011.332-.011 1.502 0 2.718.655 2.718 1.472z"/><path d="m271.129 123.901c0 .655-.676 1.219-1.651 1.46-1.341-.092-2.385-.713-2.385-1.46 0-.748 1.044-1.369 2.385-1.461.975.242 1.651.805 1.651 1.461z"/><path d="m272.31 133.377h-4.724l-1.674-8.062h7.82z"/><path d="m274.157 124.706h-8.658v.77h8.658z"/><path d="m270.934 124.706h-5.435v.77h5.435z"/><path d="m268.366 187.358h3.027l-.447-1.346c-.035-.115-.149-.195-.275-.195h-1.422c-.149 0-.287.092-.356.23z"/><path d="m266.474 125.707h6.674l-1.308 7.245h-3.83z"/><path d="m267.288 123.981s.505-1.115 1.514-1.081c0 0-.642.575-.585 1.081.057.518-.929 0-.929 0z"/><path d="m273.595 124.706h-7.545l.619-.874h6.341z"/><path d="m271.737 124.706h-5.687l.619-.874h4.483z"/><path d="m266.921 125.959h1.525l.447 6.762h-.447z"/></g><path d="m254.186 21.0813-137.632 4.9731.339 9.4474 137.632-4.9731z" fill="#e5a13e"/><path d="m179.751 40.71h-40.58v8.7055h40.58z" fill="#e5a13e"/><path d="m233.301 40.71h-40.581v8.7055h40.581z" fill="#e5a13e"/><path d="m179.751 117.219h-40.58v8.706h40.58z" fill="#e5a13e"/><path d="m233.301 117.219h-40.581v8.706h40.581z" fill="#e5a13e"/></svg>